STARTFONT 2.3
FONT -FontForge-Lobster-Book-R-Normal--12-120-72-72-P-70-ISO10646-1
SIZE 12 72 72  2
FONTBOUNDINGBOX 25 19 -6 -6
COMMENT "Generated by fontforge, http://fontforge.sourceforge.net"
COMMENT "Copyright 2010 The Lobster Project Authors (https://github.com/impallari/The-Lobster-Font), with Reserved Font Name "Lobster"."
STARTPROPERTIES 41
FOUNDRY "FontForge"
FAMILY_NAME "Lobster"
WEIGHT_NAME "Book"
SLANT "R"
SETWIDTH_NAME "Normal"
ADD_STYLE_NAME ""
PIXEL_SIZE 12
POINT_SIZE 120
RESOLUTION_X 72
RESOLUTION_Y 72
SPACING "P"
AVERAGE_WIDTH 70
CHARSET_REGISTRY "ISO10646"
CHARSET_ENCODING "1"
FONTNAME_REGISTRY ""
CHARSET_COLLECTIONS "ISO8859-2 ISO8859-5 ISO8859-9 ISO8859-4 ISO10646-1"
BITS_PER_PIXEL 2
FONT_NAME "Lobster-Regular"
FACE_NAME "Lobster Regular"
COPYRIGHT "Copyright 2010 The Lobster Project Authors (https://github.com/impallari/The-Lobster-Font), with Reserved Font Name "Lobster"."
FONT_VERSION "2.100"
FONT_ASCENT 10
FONT_DESCENT 2
UNDERLINE_POSITION -1
UNDERLINE_THICKNESS 1
X_HEIGHT 5
CAP_HEIGHT 8
DEFAULT_CHAR 1
RAW_ASCENT 800
RAW_DESCENT 200
NORM_SPACE 3
RELATIVE_WEIGHT 40
RELATIVE_SETWIDTH 50
SUPERSCRIPT_X 0
SUPERSCRIPT_Y 4
SUPERSCRIPT_SIZE 7
SUBSCRIPT_X 0
SUBSCRIPT_Y 0
SUBSCRIPT_SIZE 7
AVG_LOWERCASE_WIDTH 56
AVG_UPPERCASE_WIDTH 75
ENDPROPERTIES
CHARS 1148
STARTCHAR NULL.dup1
ENCODING 0
SWIDTH 600 0
DWIDTH 7 0
BBX 1 1 0 0
BITMAP
00
ENDCHAR
STARTCHAR nonmarkingreturn
ENCODING 13
SWIDTH 600 0
DWIDTH 7 0
BBX 1 1 0 0
BITMAP
00
ENDCHAR
STARTCHAR space
ENCODING 32
SWIDTH 217 0
DWIDTH 3 0
BBX 1 1 0 0
BITMAP
00
ENDCHAR
STARTCHAR exclam
ENCODING 33
SWIDTH 257 0
DWIDTH 3 0
BBX 4 9 0 0
BITMAP
0E
0D
1D
1C
28
24
00
60
70
ENDCHAR
STARTCHAR quotedbl
ENCODING 34
SWIDTH 353 0
DWIDTH 4 0
BBX 4 3 1 6
BITMAP
76
99
88
ENDCHAR
STARTCHAR numbersign
ENCODING 35
SWIDTH 659 0
DWIDTH 8 0
BBX 6 9 1 0
BITMAP
0400
0890
1880
BAE0
2580
BBD0
2200
6300
0100
ENDCHAR
STARTCHAR dollar
ENCODING 36
SWIDTH 548 0
DWIDTH 7 0
BBX 7 11 0 -1
BITMAP
0080
06E0
1DA4
1E70
0B40
03C0
76E0
A5E0
A9D0
2F40
0800
ENDCHAR
STARTCHAR percent
ENCODING 37
SWIDTH 796 0
DWIDTH 10 0
BBX 10 9 0 0
BITMAP
1A0600
364800
725800
636000
6656C0
298D90
025C90
0218C0
090E40
ENDCHAR
STARTCHAR ampersand
ENCODING 38
SWIDTH 682 0
DWIDTH 8 0
BBX 8 9 0 0
BITMAP
06A0
0E30
1D60
0E00
1E16
78FD
B454
B460
6E80
ENDCHAR
STARTCHAR quotesingle
ENCODING 39
SWIDTH 196 0
DWIDTH 2 0
BBX 2 3 1 6
BITMAP
70
90
40
ENDCHAR
STARTCHAR parenleft
ENCODING 40
SWIDTH 437 0
DWIDTH 5 0
BBX 5 12 2 -3
BITMAP
0240
0900
2400
7000
A000
D000
D000
D000
D000
9000
6000
1000
ENDCHAR
STARTCHAR parenright
ENCODING 41
SWIDTH 413 0
DWIDTH 5 0
BBX 5 12 -1 -3
BITMAP
0500
0300
0240
0280
0280
0280
0380
0340
0A00
0C00
2400
4000
ENDCHAR
STARTCHAR asterisk
ENCODING 42
SWIDTH 515 0
DWIDTH 6 0
BBX 4 5 1 4
BITMAP
18
AB
7D
AB
14
ENDCHAR
STARTCHAR plus
ENCODING 43
SWIDTH 442 0
DWIDTH 5 0
BBX 5 5 0 1
BITMAP
0900
0800
BF80
1800
1400
ENDCHAR
STARTCHAR comma
ENCODING 44
SWIDTH 216 0
DWIDTH 3 0
BBX 2 3 0 -1
BITMAP
B0
70
50
ENDCHAR
STARTCHAR hyphen
ENCODING 45
SWIDTH 290 0
DWIDTH 3 0
BBX 3 1 0 3
BITMAP
68
ENDCHAR
STARTCHAR period
ENCODING 46
SWIDTH 263 0
DWIDTH 3 0
BBX 2 2 0 0
BITMAP
60
70
ENDCHAR
STARTCHAR slash
ENCODING 47
SWIDTH 311 0
DWIDTH 4 0
BBX 4 12 0 -3
BITMAP
05
09
0C
08
18
14
20
30
20
60
90
80
ENDCHAR
STARTCHAR zero
ENCODING 48
SWIDTH 546 0
DWIDTH 7 0
BBX 7 9 0 0
BITMAP
06A0
1D34
3838
7438
B474
B074
B0B0
B5D0
2E40
ENDCHAR
STARTCHAR one
ENCODING 49
SWIDTH 317 0
DWIDTH 4 0
BBX 4 9 0 0
BITMAP
01
7E
1D
2D
2C
38
78
74
B0
ENDCHAR
STARTCHAR two
ENCODING 50
SWIDTH 492 0
DWIDTH 6 0
BBX 6 9 0 0
BITMAP
1B80
31E0
35E0
02C0
0740
1800
6000
FFD0
9B80
ENDCHAR
STARTCHAR three
ENCODING 51
SWIDTH 514 0
DWIDTH 6 0
BBX 6 9 0 0
BITMAP
0AD0
28B0
18E0
0280
02D0
64E0
E0E0
A1D0
6A40
ENDCHAR
STARTCHAR four
ENCODING 52
SWIDTH 476 0
DWIDTH 6 0
BBX 6 9 0 0
BITMAP
0700
0700
0A50
1CC0
21C0
BFE0
4780
0740
0B00
ENDCHAR
STARTCHAR five
ENCODING 53
SWIDTH 517 0
DWIDTH 6 0
BBX 6 9 0 0
BITMAP
0010
1FF0
2400
2B80
11E0
24E0
A0E0
A1D0
7E40
ENDCHAR
STARTCHAR six
ENCODING 54
SWIDTH 500 0
DWIDTH 6 0
BBX 6 9 0 0
BITMAP
06A0
1D30
3820
7400
BA90
B4E0
B0A0
B1D0
2E40
ENDCHAR
STARTCHAR seven
ENCODING 55
SWIDTH 464 0
DWIDTH 6 0
BBX 6 9 0 0
BITMAP
2D10
55A0
01C0
0340
0A00
1D00
3C00
3800
2800
ENDCHAR
STARTCHAR eight
ENCODING 56
SWIDTH 499 0
DWIDTH 6 0
BBX 6 9 0 0
BITMAP
0B90
2C70
2CA0
1E80
1F80
72E0
E0E0
E1D0
6A40
ENDCHAR
STARTCHAR nine
ENCODING 57
SWIDTH 489 0
DWIDTH 6 0
BBX 6 9 0 0
BITMAP
0A80
34E0
70F0
B0F0
B1E0
2AE0
01D0
9380
7D00
ENDCHAR
STARTCHAR colon
ENCODING 58
SWIDTH 267 0
DWIDTH 3 0
BBX 3 5 0 1
BITMAP
28
28
00
64
74
ENDCHAR
STARTCHAR semicolon
ENCODING 59
SWIDTH 276 0
DWIDTH 3 0
BBX 3 6 0 -1
BITMAP
28
28
00
74
74
20
ENDCHAR
STARTCHAR less
ENCODING 60
SWIDTH 358 0
DWIDTH 4 0
BBX 4 4 0 1
BITMAP
0B
74
74
0A
ENDCHAR
STARTCHAR equal
ENCODING 61
SWIDTH 515 0
DWIDTH 6 0
BBX 6 4 0 1
BITMAP
2A90
0000
0000
6A80
ENDCHAR
STARTCHAR greater
ENCODING 62
SWIDTH 362 0
DWIDTH 4 0
BBX 4 4 0 1
BITMAP
74
0B
29
90
ENDCHAR
STARTCHAR question
ENCODING 63
SWIDTH 441 0
DWIDTH 5 0
BBX 5 9 0 0
BITMAP
1B80
72C0
72C0
0740
0800
2400
1000
6400
7400
ENDCHAR
STARTCHAR at
ENCODING 64
SWIDTH 688 0
DWIDTH 8 0
BBX 8 9 0 -1
BITMAP
02A4
1D09
36A6
A666
DD9A
CDDC
CA64
A050
2A80
ENDCHAR
STARTCHAR A
ENCODING 65
SWIDTH 668 0
DWIDTH 8 0
BBX 9 11 0 -2
BITMAP
001B40
005B00
018E00
2B9E00
AA2D00
5D2C00
1C2C00
283800
387800
340000
140000
ENDCHAR
STARTCHAR B
ENCODING 66
SWIDTH 641 0
DWIDTH 8 0
BBX 8 9 0 0
BITMAP
0AB4
765C
9768
9BF8
0A2C
0E1D
1D1C
1D28
2DA0
ENDCHAR
STARTCHAR C
ENCODING 67
SWIDTH 497 0
DWIDTH 6 0
BBX 7 9 0 0
BITMAP
07A0
1E24
3C24
7800
B400
B400
B400
B410
2E80
ENDCHAR
STARTCHAR D
ENCODING 68
SWIDTH 663 0
DWIDTH 8 0
BBX 8 9 0 0
BITMAP
0AA4
755D
974E
DB0E
4F0E
0E1D
1D2C
2D38
2EE0
ENDCHAR
STARTCHAR E
ENCODING 69
SWIDTH 459 0
DWIDTH 6 0
BBX 6 9 0 0
BITMAP
0790
0D30
1C60
1D00
1E00
7800
F400
B410
7E40
ENDCHAR
STARTCHAR F
ENCODING 70
SWIDTH 459 0
DWIDTH 6 0
BBX 7 9 0 0
BITMAP
17A8
6740
9B40
DB00
5FE0
1E00
1D00
2C00
3C00
ENDCHAR
STARTCHAR G
ENCODING 71
SWIDTH 578 0
DWIDTH 7 0
BBX 7 11 0 -2
BITMAP
06A4
2D18
7828
B400
B024
B074
74B0
2AA0
19D0
32C0
2A40
ENDCHAR
STARTCHAR H
ENCODING 72
SWIDTH 665 0
DWIDTH 8 0
BBX 9 9 0 0
BITMAP
0B8B40
3B8B00
A74E00
9B4E00
5BFD00
0E1C00
1E2C00
1D3800
2C7800
ENDCHAR
STARTCHAR I
ENCODING 73
SWIDTH 375 0
DWIDTH 5 0
BBX 5 9 0 0
BITMAP
0B80
6740
9740
DB00
0E00
0E00
1D00
2D00
2C00
ENDCHAR
STARTCHAR J
ENCODING 74
SWIDTH 536 0
DWIDTH 6 0
BBX 7 11 0 -2
BITMAP
00B8
0278
0A74
09B0
00B0
00E0
01D0
02D0
6AC0
9780
6A00
ENDCHAR
STARTCHAR K
ENCODING 75
SWIDTH 601 0
DWIDTH 7 0
BBX 8 9 0 0
BITMAP
0B8A
2758
9760
DB90
4FA0
0E38
1D74
2DB0
2CB0
ENDCHAR
STARTCHAR L
ENCODING 76
SWIDTH 379 0
DWIDTH 5 0
BBX 8 12 0 -3
BITMAP
0B80
6740
9740
9B00
0E00
0E00
1D00
2C00
2D00
0790
00BE
002D
ENDCHAR
STARTCHAR M
ENCODING 77
SWIDTH 787 0
DWIDTH 9 0
BBX 9 9 1 0
BITMAP
1B8780
674B40
CB4F40
DF6F00
2B7B00
37AF00
67DE00
978E00
C75D00
ENDCHAR
STARTCHAR N
ENCODING 78
SWIDTH 668 0
DWIDTH 8 0
BBX 9 9 0 0
BITMAP
1B8280
67C340
97D300
DAD700
1DE600
0CB900
18BD00
287C00
243800
ENDCHAR
STARTCHAR O
ENCODING 79
SWIDTH 665 0
DWIDTH 8 0
BBX 8 9 0 0
BITMAP
06A8
258E
A74A
9E0A
1D0E
2D1D
2C2C
2D74
0B90
ENDCHAR
STARTCHAR P
ENCODING 80
SWIDTH 573 0
DWIDTH 7 0
BBX 7 9 0 0
BITMAP
0AA4
765C
975C
DB1C
0F34
0E40
1D00
2D00
2C00
ENDCHAR
STARTCHAR Q
ENCODING 81
SWIDTH 665 0
DWIDTH 8 0
BBX 8 11 0 -2
BITMAP
06A8
258E
A74A
9F0A
5D0E
2D1D
2C2C
2EB4
0BE0
007C
0014
ENDCHAR
STARTCHAR R
ENCODING 82
SWIDTH 601 0
DWIDTH 7 0
BBX 7 9 0 0
BITMAP
0AA4
365C
975C
DB24
4FF4
0E38
1D74
2DB0
2CB0
ENDCHAR
STARTCHAR S
ENCODING 83
SWIDTH 570 0
DWIDTH 7 0
BBX 7 9 0 0
BITMAP
06A0
0E28
0E24
0B40
02D0
28F0
70B0
70E0
2B80
ENDCHAR
STARTCHAR T
ENCODING 84
SWIDTH 481 0
DWIDTH 6 0
BBX 9 9 0 0
BITMAP
1AE440
62EA00
92C000
D38000
078000
074000
0B0000
0B0000
0E0000
ENDCHAR
STARTCHAR U
ENCODING 85
SWIDTH 716 0
DWIDTH 9 0
BBX 9 9 0 0
BITMAP
1BC2C0
638380
D74380
C74740
0B0B40
0E0B00
0E0E00
0E2C00
07E400
ENDCHAR
STARTCHAR V
ENCODING 86
SWIDTH 615 0
DWIDTH 7 0
BBX 8 9 0 0
BITMAP
0B82
6382
9385
D388
0388
03D4
03E0
03D0
03C0
ENDCHAR
STARTCHAR W
ENCODING 87
SWIDTH 962 0
DWIDTH 12 0
BBX 13 9 0 0
BITMAP
0B82C240
6383C200
9387C500
D38BC800
038AC800
03D6D400
03E2E000
03D2E000
03C2D000
ENDCHAR
STARTCHAR X
ENCODING 88
SWIDTH 620 0
DWIDTH 7 0
BBX 8 9 0 0
BITMAP
0BC9
63D8
92F0
D1E0
01E0
01F0
02B0
09B4
0878
ENDCHAR
STARTCHAR Y
ENCODING 89
SWIDTH 620 0
DWIDTH 7 0
BBX 8 9 0 0
BITMAP
0BC2
63C2
92D5
D1E8
00F4
00F0
00E0
01E0
02D0
ENDCHAR
STARTCHAR Z
ENCODING 90
SWIDTH 542 0
DWIDTH 7 0
BBX 7 9 0 0
BITMAP
2AF4
34F0
02D0
03C0
0B40
0F00
2D00
3C70
BEA0
ENDCHAR
STARTCHAR bracketleft
ENCODING 91
SWIDTH 400 0
DWIDTH 5 0
BBX 5 12 0 -3
BITMAP
0B80
0D00
0C00
1C00
2800
2800
3400
3000
7000
A000
9000
E400
ENDCHAR
STARTCHAR backslash
ENCODING 92
SWIDTH 362 0
DWIDTH 4 0
BBX 4 12 0 -3
BITMAP
50
60
30
20
24
18
08
0C
09
05
06
02
ENDCHAR
STARTCHAR bracketright
ENCODING 93
SWIDTH 400 0
DWIDTH 5 0
BBX 6 12 -1 -3
BITMAP
06D0
00C0
01C0
0280
0240
0340
0700
0600
0A00
0D00
0C00
6C00
ENDCHAR
STARTCHAR asciicircum
ENCODING 94
SWIDTH 421 0
DWIDTH 5 0
BBX 3 2 1 7
BITMAP
18
98
ENDCHAR
STARTCHAR underscore
ENCODING 95
SWIDTH 444 0
DWIDTH 5 0
BBX 5 1 0 0
BITMAP
6A80
ENDCHAR
STARTCHAR grave
ENCODING 96
SWIDTH 201 0
DWIDTH 2 0
BBX 2 2 0 7
BITMAP
60
20
ENDCHAR
STARTCHAR a
ENCODING 97
SWIDTH 526 0
DWIDTH 6 0
BBX 7 6 0 0
BITMAP
1EE0
75D0
F1D0
E2C0
E7D4
BAE0
ENDCHAR
STARTCHAR b
ENCODING 98
SWIDTH 444 0
DWIDTH 5 0
BBX 5 9 0 0
BITMAP
0400
3C00
3800
7B40
B5C0
B1C0
F280
E340
B900
ENDCHAR
STARTCHAR c
ENCODING 99
SWIDTH 384 0
DWIDTH 5 0
BBX 5 6 0 0
BITMAP
1F40
7640
F000
E000
E040
B900
ENDCHAR
STARTCHAR d
ENCODING 100
SWIDTH 525 0
DWIDTH 6 0
BBX 7 9 0 0
BITMAP
0010
00B0
00F0
1EE0
75D0
F1D0
E2C0
E3C4
BAE0
ENDCHAR
STARTCHAR e
ENCODING 101
SWIDTH 384 0
DWIDTH 5 0
BBX 5 6 0 0
BITMAP
1F40
7640
F700
F900
E040
B900
ENDCHAR
STARTCHAR f
ENCODING 102
SWIDTH 267 0
DWIDTH 3 0
BBX 8 12 -3 -3
BITMAP
0079
00B1
00E0
01F4
02D0
02C0
03C0
0380
0740
2F40
5B00
6D00
ENDCHAR
STARTCHAR g
ENCODING 103
SWIDTH 507 0
DWIDTH 6 0
BBX 7 9 0 -3
BITMAP
1EE0
75D0
F1D0
E2C0
E384
BBA0
1B40
2B00
2D00
ENDCHAR
STARTCHAR h
ENCODING 104
SWIDTH 505 0
DWIDTH 6 0
BBX 8 9 -1 0
BITMAP
0100
0F00
0E00
1EE0
1DB0
2CB0
38E0
38E1
74B4
ENDCHAR
STARTCHAR i
ENCODING 105
SWIDTH 267 0
DWIDTH 3 0
BBX 4 8 0 0
BITMAP
28
28
74
B4
B0
E0
E5
B8
ENDCHAR
STARTCHAR j
ENCODING 106
SWIDTH 240 0
DWIDTH 3 0
BBX 6 11 -3 -3
BITMAP
00A0
00A0
01D0
01D0
02C0
03C0
0390
0790
1F40
5B00
6D00
ENDCHAR
STARTCHAR k
ENCODING 107
SWIDTH 518 0
DWIDTH 6 0
BBX 8 9 -1 0
BITMAP
0100
0F00
0E00
1D60
1E80
2EF0
38B0
38E5
74B8
ENDCHAR
STARTCHAR l
ENCODING 108
SWIDTH 267 0
DWIDTH 3 0
BBX 4 8 0 0
BITMAP
2C
38
74
74
B0
F0
E5
B8
ENDCHAR
STARTCHAR m
ENCODING 109
SWIDTH 752 0
DWIDTH 9 0
BBX 11 6 -1 0
BITMAP
1EEB80
2DB6C0
2CB2C0
38E380
39E394
75D2D0
ENDCHAR
STARTCHAR n
ENCODING 110
SWIDTH 505 0
DWIDTH 6 0
BBX 8 6 -1 0
BITMAP
1EE0
2DB0
2CB0
38E0
38E1
74B4
ENDCHAR
STARTCHAR o
ENCODING 111
SWIDTH 439 0
DWIDTH 5 0
BBX 7 6 0 0
BITMAP
1E40
7594
F290
E240
E300
B900
ENDCHAR
STARTCHAR p
ENCODING 112
SWIDTH 468 0
DWIDTH 6 0
BBX 7 10 -1 -3
BITMAP
0900
1EE0
2D74
2C74
38B0
39E0
7F80
B000
B000
9000
ENDCHAR
STARTCHAR q
ENCODING 113
SWIDTH 486 0
DWIDTH 6 0
BBX 6 9 0 -3
BITMAP
1EE0
75D0
F1D0
E2C0
E380
BB80
0740
0B00
0A00
ENDCHAR
STARTCHAR r
ENCODING 114
SWIDTH 376 0
DWIDTH 5 0
BBX 6 6 -1 0
BITMAP
1ED0
2D90
2C00
3800
3800
7400
ENDCHAR
STARTCHAR s
ENCODING 115
SWIDTH 382 0
DWIDTH 5 0
BBX 6 6 -1 0
BITMAP
0780
0B80
1780
2380
63D0
2E40
ENDCHAR
STARTCHAR t
ENCODING 116
SWIDTH 267 0
DWIDTH 3 0
BBX 4 8 0 0
BITMAP
28
38
BC
74
B0
E0
E5
B8
ENDCHAR
STARTCHAR u
ENCODING 117
SWIDTH 505 0
DWIDTH 6 0
BBX 7 6 0 0
BITMAP
75D0
B6D0
B2C0
E380
E794
B6D0
ENDCHAR
STARTCHAR v
ENCODING 118
SWIDTH 414 0
DWIDTH 5 0
BBX 5 6 0 0
BITMAP
7580
B480
B180
E240
E600
B800
ENDCHAR
STARTCHAR w
ENCODING 119
SWIDTH 661 0
DWIDTH 8 0
BBX 8 6 0 0
BITMAP
75D6
B6D2
B2C6
E389
E798
B6E0
ENDCHAR
STARTCHAR x
ENCODING 120
SWIDTH 522 0
DWIDTH 6 0
BBX 7 6 0 0
BITMAP
1E60
1B60
47C0
4740
1B84
62E0
ENDCHAR
STARTCHAR y
ENCODING 121
SWIDTH 486 0
DWIDTH 6 0
BBX 6 9 0 -3
BITMAP
75D0
B6D0
B2C0
E380
E790
BB90
2F00
5F00
7D00
ENDCHAR
STARTCHAR z
ENCODING 122
SWIDTH 428 0
DWIDTH 5 0
BBX 5 6 0 0
BITMAP
2BC0
6740
0E00
2D00
3940
BA40
ENDCHAR
STARTCHAR braceleft
ENCODING 123
SWIDTH 352 0
DWIDTH 4 0
BBX 5 12 0 -3
BITMAP
0780
0A00
0D00
0D00
0C00
1C00
7400
2800
3400
7000
7000
3400
ENDCHAR
STARTCHAR bar
ENCODING 124
SWIDTH 532 0
DWIDTH 6 0
BBX 2 12 2 -3
BITMAP
60
60
60
60
60
60
60
60
60
60
60
60
ENDCHAR
STARTCHAR braceright
ENCODING 125
SWIDTH 352 0
DWIDTH 4 0
BBX 5 12 -1 -3
BITMAP
0A00
0340
0340
0700
0600
0A00
0740
0D00
1C00
1C00
2800
B400
ENDCHAR
STARTCHAR asciitilde
ENCODING 126
SWIDTH 431 0
DWIDTH 5 0
BBX 4 2 1 7
BITMAP
54
AE
ENDCHAR
STARTCHAR uni00A0
ENCODING 160
SWIDTH 217 0
DWIDTH 3 0
BBX 1 1 0 0
BITMAP
00
ENDCHAR
STARTCHAR exclamdown
ENCODING 161
SWIDTH 219 0
DWIDTH 3 0
BBX 4 9 -1 -3
BITMAP
0E
09
00
1C
18
28
34
74
B0
ENDCHAR
STARTCHAR cent
ENCODING 162
SWIDTH 384 0
DWIDTH 5 0
BBX 5 9 0 -1
BITMAP
0200
0B40
39C0
A840
E800
A800
2A00
1000
2000
ENDCHAR
STARTCHAR sterling
ENCODING 163
SWIDTH 455 0
DWIDTH 5 0
BBX 6 9 0 0
BITMAP
02E0
0B30
0E10
1D00
7E80
2C00
2C00
3810
BBE0
ENDCHAR
STARTCHAR currency
ENCODING 164
SWIDTH 500 0
DWIDTH 6 0
BBX 4 4 1 2
BITMAP
AA
82
82
AA
ENDCHAR
STARTCHAR yen
ENCODING 165
SWIDTH 558 0
DWIDTH 7 0
BBX 6 9 1 0
BITMAP
B420
7890
3C80
2D40
2F00
6E80
2D00
BE80
3C00
ENDCHAR
STARTCHAR brokenbar
ENCODING 166
SWIDTH 532 0
DWIDTH 6 0
BBX 2 12 2 -3
BITMAP
60
60
60
60
60
00
60
60
60
60
60
60
ENDCHAR
STARTCHAR section
ENCODING 167
SWIDTH 542 0
DWIDTH 7 0
BBX 7 10 0 -1
BITMAP
02A0
0B24
0F10
2B80
39E0
1E70
07B0
A380
D340
6900
ENDCHAR
STARTCHAR dieresis
ENCODING 168
SWIDTH 392 0
DWIDTH 5 0
BBX 4 1 0 7
BITMAP
73
ENDCHAR
STARTCHAR copyright
ENCODING 169
SWIDTH 587 0
DWIDTH 7 0
BBX 7 7 0 1
BITMAP
0640
2020
5654
5844
5814
26A0
0640
ENDCHAR
STARTCHAR ordfeminine
ENCODING 170
SWIDTH 345 0
DWIDTH 4 0
BBX 4 4 0 5
BITMAP
2A
66
69
65
ENDCHAR
STARTCHAR guillemotleft
ENCODING 171
SWIDTH 589 0
DWIDTH 7 0
BBX 7 4 0 1
BITMAP
0624
6640
6680
0510
ENDCHAR
STARTCHAR logicalnot
ENCODING 172
SWIDTH 444 0
DWIDTH 5 0
BBX 5 3 0 1
BITMAP
6B80
0340
0340
ENDCHAR
STARTCHAR uni00AD
ENCODING 173
SWIDTH 290 0
DWIDTH 3 0
BBX 3 1 0 3
BITMAP
68
ENDCHAR
STARTCHAR registered
ENCODING 174
SWIDTH 553 0
DWIDTH 7 0
BBX 7 7 0 1
BITMAP
0940
2050
4A50
8A54
4950
2450
0A40
ENDCHAR
STARTCHAR macron
ENCODING 175
SWIDTH 446 0
DWIDTH 5 0
BBX 4 1 1 7
BITMAP
AA
ENDCHAR
STARTCHAR degree
ENCODING 176
SWIDTH 314 0
DWIDTH 4 0
BBX 4 4 0 4
BITMAP
18
65
98
64
ENDCHAR
STARTCHAR plusminus
ENCODING 177
SWIDTH 479 0
DWIDTH 6 0
BBX 6 6 0 1
BITMAP
0300
0600
7FD0
0900
0800
6A40
ENDCHAR
STARTCHAR uni00B2
ENCODING 178
SWIDTH 328 0
DWIDTH 4 0
BBX 4 5 0 4
BITMAP
2E
26
08
20
69
ENDCHAR
STARTCHAR uni00B3
ENCODING 179
SWIDTH 336 0
DWIDTH 4 0
BBX 4 5 0 4
BITMAP
1A
26
09
66
28
ENDCHAR
STARTCHAR acute
ENCODING 180
SWIDTH 316 0
DWIDTH 4 0
BBX 3 2 1 7
BITMAP
24
60
ENDCHAR
STARTCHAR uni00B5
ENCODING 181
SWIDTH 505 0
DWIDTH 6 0
BBX 8 8 -1 -2
BITMAP
1D74
2DB4
2CB0
38E0
39E5
7DB4
B000
A000
ENDCHAR
STARTCHAR paragraph
ENCODING 182
SWIDTH 542 0
DWIDTH 7 0
BBX 5 10 1 -1
BITMAP
2F40
BEC0
FEC0
FEC0
BE80
2F40
2B40
2B00
3A00
3A00
ENDCHAR
STARTCHAR periodcentered
ENCODING 183
SWIDTH 434 0
DWIDTH 5 0
BBX 3 2 1 2
BITMAP
78
74
ENDCHAR
STARTCHAR cedilla
ENCODING 184
SWIDTH 227 0
DWIDTH 3 0
BBX 3 3 0 -3
BITMAP
20
68
64
ENDCHAR
STARTCHAR uni00B9
ENCODING 185
SWIDTH 229 0
DWIDTH 3 0
BBX 3 6 0 3
BITMAP
04
74
24
30
60
50
ENDCHAR
STARTCHAR ordmasculine
ENCODING 186
SWIDTH 329 0
DWIDTH 4 0
BBX 4 4 0 5
BITMAP
28
65
58
64
ENDCHAR
STARTCHAR guillemotright
ENCODING 187
SWIDTH 586 0
DWIDTH 7 0
BBX 7 4 0 1
BITMAP
2580
0624
1964
5100
ENDCHAR
STARTCHAR onequarter
ENCODING 188
SWIDTH 749 0
DWIDTH 9 0
BBX 9 9 0 0
BITMAP
040800
742400
242000
309000
618980
520A40
061B40
080300
140300
ENDCHAR
STARTCHAR onehalf
ENCODING 189
SWIDTH 745 0
DWIDTH 9 0
BBX 9 9 0 0
BITMAP
040800
742400
242000
309000
618B80
520980
060200
080800
141E40
ENDCHAR
STARTCHAR threequarters
ENCODING 190
SWIDTH 836 0
DWIDTH 10 0
BBX 10 9 0 0
BITMAP
1A0200
260500
090800
662400
286260
0082A0
0186E0
0200C0
0500C0
ENDCHAR
STARTCHAR questiondown
ENCODING 191
SWIDTH 439 0
DWIDTH 5 0
BBX 5 9 0 -3
BITMAP
0740
0640
0100
0600
0800
7400
E340
E340
B900
ENDCHAR
STARTCHAR Agrave
ENCODING 192
SWIDTH 668 0
DWIDTH 8 0
BBX 9 14 0 -2
BITMAP
000D00
000900
000000
001B40
005B00
018E00
2B9E00
AA2D00
5D2C00
1C2C00
283800
387800
340000
140000
ENDCHAR
STARTCHAR Aacute
ENCODING 193
SWIDTH 668 0
DWIDTH 8 0
BBX 9 14 0 -2
BITMAP
0001C0
000240
000100
001B40
005B00
018E00
2B9E00
AA2D00
5D2C00
1C2C00
283800
387800
340000
140000
ENDCHAR
STARTCHAR Acircumflex
ENCODING 194
SWIDTH 668 0
DWIDTH 8 0
BBX 9 14 0 -2
BITMAP
000180
000680
000440
001B40
005B00
018E00
2B9E00
AA2D00
5D2C00
1C2C00
283800
387800
340000
140000
ENDCHAR
STARTCHAR Atilde
ENCODING 195
SWIDTH 668 0
DWIDTH 8 0
BBX 10 13 0 -2
BITMAP
001F90
000540
001B40
005B00
018E00
2B9E00
AA2D00
5D2C00
1C2C00
283800
387800
340000
140000
ENDCHAR
STARTCHAR Adieresis
ENCODING 196
SWIDTH 668 0
DWIDTH 8 0
BBX 9 13 0 -2
BITMAP
0019C0
000000
001B40
005B00
018E00
2B9E00
AA2D00
5D2C00
1C2C00
283800
387800
340000
140000
ENDCHAR
STARTCHAR Aring
ENCODING 197
SWIDTH 668 0
DWIDTH 8 0
BBX 9 14 0 -2
BITMAP
000600
000940
000600
001B40
005B00
018E00
2B9E00
AA2D00
5D2C00
1C2C00
283800
387800
340000
140000
ENDCHAR
STARTCHAR AE
ENCODING 198
SWIDTH 764 0
DWIDTH 9 0
BBX 11 11 0 -2
BITMAP
001B44
005BA4
018F00
2B9E00
AA2FD0
9D2D00
1C2C00
283800
387E90
340000
140000
ENDCHAR
STARTCHAR Ccedilla
ENCODING 199
SWIDTH 497 0
DWIDTH 6 0
BBX 7 12 0 -3
BITMAP
07A0
1E24
3C24
7800
B400
B400
B400
B820
2F80
0500
0640
0900
ENDCHAR
STARTCHAR Egrave
ENCODING 200
SWIDTH 459 0
DWIDTH 6 0
BBX 6 12 0 0
BITMAP
0240
0180
0000
0790
0D30
1C60
1D00
1E00
7800
F400
B410
7E40
ENDCHAR
STARTCHAR Eacute
ENCODING 201
SWIDTH 459 0
DWIDTH 6 0
BBX 6 12 0 0
BITMAP
0070
0090
0000
0790
0D30
1C60
1D00
1E00
7800
F400
B410
7E40
ENDCHAR
STARTCHAR Ecircumflex
ENCODING 202
SWIDTH 459 0
DWIDTH 6 0
BBX 6 12 0 0
BITMAP
0090
0260
0000
0790
0D30
1C60
1D00
1E00
7800
F400
B410
7E40
ENDCHAR
STARTCHAR Edieresis
ENCODING 203
SWIDTH 459 0
DWIDTH 6 0
BBX 7 11 0 0
BITMAP
0364
0000
0790
0D30
1C60
1D00
1E00
7800
F400
B410
7E40
ENDCHAR
STARTCHAR Igrave
ENCODING 204
SWIDTH 375 0
DWIDTH 5 0
BBX 5 12 0 0
BITMAP
0700
0300
0000
0B80
6740
9740
DB00
0E00
0E00
1D00
2D00
2C00
ENDCHAR
STARTCHAR Iacute
ENCODING 205
SWIDTH 375 0
DWIDTH 5 0
BBX 6 12 0 0
BITMAP
00A0
00C0
0140
0B80
6740
9740
DB00
0E00
0E00
1D00
2D00
2C00
ENDCHAR
STARTCHAR Icircumflex
ENCODING 206
SWIDTH 375 0
DWIDTH 5 0
BBX 6 12 0 0
BITMAP
0080
0290
0410
0B80
6740
9740
DB00
0E00
0E00
1D00
2D00
2C00
ENDCHAR
STARTCHAR Idieresis
ENCODING 207
SWIDTH 375 0
DWIDTH 5 0
BBX 6 11 0 0
BITMAP
0A60
0000
0B80
6740
9740
DB00
0E00
0E00
1D00
2D00
2C00
ENDCHAR
STARTCHAR Eth
ENCODING 208
SWIDTH 663 0
DWIDTH 8 0
BBX 8 9 0 0
BITMAP
0AA4
765D
974E
DB0E
1F8E
0E1D
1D2C
2D38
2EE0
ENDCHAR
STARTCHAR Ntilde
ENCODING 209
SWIDTH 686 0
DWIDTH 8 0
BBX 9 11 0 0
BITMAP
00BE00
000400
1B8280
67C340
97D300
DAD700
1DE600
0CB900
18BD00
287C00
243800
ENDCHAR
STARTCHAR Ograve
ENCODING 210
SWIDTH 665 0
DWIDTH 8 0
BBX 8 12 0 0
BITMAP
01C0
00C0
0000
06A8
258E
A74A
9E0A
1D0E
2D1D
2C2C
2D74
0B90
ENDCHAR
STARTCHAR Oacute
ENCODING 211
SWIDTH 665 0
DWIDTH 8 0
BBX 8 12 0 0
BITMAP
0018
0024
0010
06A8
258E
A74A
9E0A
1D0E
2D1D
2C2C
2D74
0B90
ENDCHAR
STARTCHAR Ocircumflex
ENCODING 212
SWIDTH 665 0
DWIDTH 8 0
BBX 8 12 0 0
BITMAP
0024
00A4
0104
06A8
258E
A74A
9E0A
1D0E
2D1D
2C2C
2D74
0B90
ENDCHAR
STARTCHAR Otilde
ENCODING 213
SWIDTH 665 0
DWIDTH 8 0
BBX 8 11 0 0
BITMAP
00B9
0014
06A8
258E
A74A
9E0A
1D0E
2D1D
2C2C
2D74
0B90
ENDCHAR
STARTCHAR Odieresis
ENCODING 214
SWIDTH 665 0
DWIDTH 8 0
BBX 8 11 0 0
BITMAP
019C
0000
06A8
258E
A74A
9E0A
1D0E
2D1D
2C2C
2D74
0B90
ENDCHAR
STARTCHAR multiply
ENCODING 215
SWIDTH 414 0
DWIDTH 5 0
BBX 4 4 0 2
BITMAP
62
2E
2E
52
ENDCHAR
STARTCHAR Oslash
ENCODING 216
SWIDTH 658 0
DWIDTH 8 0
BBX 8 10 0 -1
BITMAP
0020
0AB4
766D
9A5E
5D8E
2C9D
2CAC
2DB4
1FD0
0200
ENDCHAR
STARTCHAR Ugrave
ENCODING 217
SWIDTH 716 0
DWIDTH 9 0
BBX 9 12 0 0
BITMAP
003400
002400
000000
0BC2C0
638380
D74380
CB0740
0B0B00
0E0F00
0D1E00
0E6C00
0BE400
ENDCHAR
STARTCHAR Uacute
ENCODING 218
SWIDTH 716 0
DWIDTH 9 0
BBX 9 12 0 0
BITMAP
000900
001800
001400
0BC2C0
638380
D74380
CB0740
0B0B00
0E0F00
0D1E00
0E6C00
0BE400
ENDCHAR
STARTCHAR Ucircumflex
ENCODING 219
SWIDTH 716 0
DWIDTH 9 0
BBX 9 12 0 0
BITMAP
000900
002A00
004100
0BC2C0
638380
D74380
CB0740
0B0B00
0E0F00
0D1E00
0E6C00
0BE400
ENDCHAR
STARTCHAR Udieresis
ENCODING 220
SWIDTH 716 0
DWIDTH 9 0
BBX 9 11 0 0
BITMAP
006300
000000
0BC2C0
638380
D74380
CB0740
0B0B00
0E0F00
0D1E00
0E6C00
0BE400
ENDCHAR
STARTCHAR Yacute
ENCODING 221
SWIDTH 620 0
DWIDTH 7 0
BBX 8 12 0 0
BITMAP
0007
0009
0004
0BC2
63C2
92D5
D1E8
00F4
00F0
00E0
01E0
02D0
ENDCHAR
STARTCHAR Thorn
ENCODING 222
SWIDTH 583 0
DWIDTH 7 0
BBX 7 9 0 0
BITMAP
0380
0BE0
2B6C
9B1C
DE1C
1E74
1F90
2C00
2C00
ENDCHAR
STARTCHAR germandbls
ENCODING 223
SWIDTH 480 0
DWIDTH 6 0
BBX 6 11 -1 -3
BITMAP
02E0
0B30
0E60
1D80
2CA0
2C70
3870
76D0
7400
B000
9000
ENDCHAR
STARTCHAR agrave
ENCODING 224
SWIDTH 526 0
DWIDTH 6 0
BBX 7 9 0 0
BITMAP
0700
0300
0000
1EE0
75D0
F1D0
E2C0
E7D4
BAE0
ENDCHAR
STARTCHAR aacute
ENCODING 225
SWIDTH 526 0
DWIDTH 6 0
BBX 7 9 0 0
BITMAP
01C0
0240
0100
1EE0
75D0
F1D0
E2C0
E7D4
BAE0
ENDCHAR
STARTCHAR acircumflex
ENCODING 226
SWIDTH 526 0
DWIDTH 6 0
BBX 7 9 0 0
BITMAP
0180
0680
0400
1EE0
75D0
F1D0
E2C0
E7D4
BAE0
ENDCHAR
STARTCHAR atilde
ENCODING 227
SWIDTH 526 0
DWIDTH 6 0
BBX 7 8 0 0
BITMAP
0BA0
0040
1EE0
75D0
F1D0
E2C0
E7D4
BAE0
ENDCHAR
STARTCHAR adieresis
ENCODING 228
SWIDTH 526 0
DWIDTH 6 0
BBX 7 8 0 0
BITMAP
09A0
0000
1EE0
75D0
F1D0
E2C0
E7D4
BAE0
ENDCHAR
STARTCHAR aring
ENCODING 229
SWIDTH 526 0
DWIDTH 6 0
BBX 7 8 0 0
BITMAP
0240
0240
1EE0
75D0
F1D0
E2C0
E7D4
BAE0
ENDCHAR
STARTCHAR ae
ENCODING 230
SWIDTH 650 0
DWIDTH 8 0
BBX 8 6 0 0
BITMAP
1BBD
02E6
6BD9
F3E4
E7C1
BAE8
ENDCHAR
STARTCHAR ccedilla
ENCODING 231
SWIDTH 384 0
DWIDTH 5 0
BBX 5 9 0 -3
BITMAP
1F40
7640
F000
E000
E140
BD00
0800
0A00
2400
ENDCHAR
STARTCHAR egrave
ENCODING 232
SWIDTH 384 0
DWIDTH 5 0
BBX 5 9 0 0
BITMAP
0D00
0900
0000
1F40
7640
F700
F900
E040
B900
ENDCHAR
STARTCHAR eacute
ENCODING 233
SWIDTH 384 0
DWIDTH 5 0
BBX 5 9 0 0
BITMAP
0180
0300
0100
1F40
7640
F700
F900
E040
B900
ENDCHAR
STARTCHAR ecircumflex
ENCODING 234
SWIDTH 384 0
DWIDTH 5 0
BBX 5 9 0 0
BITMAP
0240
0A80
1000
1F40
7640
F700
F900
E040
B900
ENDCHAR
STARTCHAR edieresis
ENCODING 235
SWIDTH 384 0
DWIDTH 5 0
BBX 5 8 0 0
BITMAP
19C0
0000
1F40
7640
F700
F900
E040
B900
ENDCHAR
STARTCHAR igrave
ENCODING 236
SWIDTH 267 0
DWIDTH 3 0
BBX 4 9 0 0
BITMAP
30
34
00
74
B4
B0
E0
E5
B8
ENDCHAR
STARTCHAR iacute
ENCODING 237
SWIDTH 267 0
DWIDTH 3 0
BBX 4 9 0 0
BITMAP
09
18
10
74
B4
B0
E0
E5
B8
ENDCHAR
STARTCHAR icircumflex
ENCODING 238
SWIDTH 267 0
DWIDTH 3 0
BBX 4 9 0 0
BITMAP
08
69
40
74
B4
B0
E0
E5
B8
ENDCHAR
STARTCHAR idieresis
ENCODING 239
SWIDTH 267 0
DWIDTH 3 0
BBX 4 8 0 0
BITMAP
9A
00
74
B4
B0
E0
E5
B8
ENDCHAR
STARTCHAR eth
ENCODING 240
SWIDTH 526 0
DWIDTH 6 0
BBX 7 9 0 0
BITMAP
0180
06E0
00E0
1EE0
75D0
F1D0
E2C0
E3C4
BAE0
ENDCHAR
STARTCHAR ntilde
ENCODING 241
SWIDTH 505 0
DWIDTH 6 0
BBX 8 8 -1 0
BITMAP
06E4
0000
1EE0
2DB0
2CB0
38E0
38E5
74B8
ENDCHAR
STARTCHAR ograve
ENCODING 242
SWIDTH 433 0
DWIDTH 5 0
BBX 8 9 -1 0
BITMAP
0240
0180
0000
0790
1DA5
3CA4
3890
78C0
2E40
ENDCHAR
STARTCHAR oacute
ENCODING 243
SWIDTH 439 0
DWIDTH 5 0
BBX 7 9 0 0
BITMAP
0180
0300
0100
1E40
7594
F290
E240
E300
B900
ENDCHAR
STARTCHAR ocircumflex
ENCODING 244
SWIDTH 433 0
DWIDTH 5 0
BBX 8 9 -1 0
BITMAP
0080
0290
0400
0790
1DA5
3CA4
3890
78C0
2E40
ENDCHAR
STARTCHAR otilde
ENCODING 245
SWIDTH 433 0
DWIDTH 5 0
BBX 8 8 -1 0
BITMAP
0BA0
0040
0790
1DA5
3CA4
3890
78C0
2E40
ENDCHAR
STARTCHAR odieresis
ENCODING 246
SWIDTH 433 0
DWIDTH 5 0
BBX 8 8 -1 0
BITMAP
0A60
0000
0790
1DA5
3CA4
3890
78C0
2E40
ENDCHAR
STARTCHAR divide
ENCODING 247
SWIDTH 415 0
DWIDTH 5 0
BBX 5 6 0 1
BITMAP
0A00
0A00
6A80
0000
1800
1C00
ENDCHAR
STARTCHAR oslash
ENCODING 248
SWIDTH 428 0
DWIDTH 5 0
BBX 7 7 -1 -1
BITMAP
07A4
1D60
3CE0
3A90
3DC0
3E40
4000
ENDCHAR
STARTCHAR ugrave
ENCODING 249
SWIDTH 505 0
DWIDTH 6 0
BBX 7 9 0 0
BITMAP
0A00
0600
0000
75D0
B6D0
B2C0
E380
E794
B6D0
ENDCHAR
STARTCHAR uacute
ENCODING 250
SWIDTH 505 0
DWIDTH 6 0
BBX 7 9 0 0
BITMAP
01C0
0240
0100
75D0
B6D0
B2C0
E380
E794
B6D0
ENDCHAR
STARTCHAR ucircumflex
ENCODING 251
SWIDTH 505 0
DWIDTH 6 0
BBX 7 9 0 0
BITMAP
0140
0A80
0000
75D0
B6D0
B2C0
E380
E794
B6D0
ENDCHAR
STARTCHAR udieresis
ENCODING 252
SWIDTH 505 0
DWIDTH 6 0
BBX 7 8 0 0
BITMAP
1CC0
0000
75D0
B6D0
B2C0
E380
E794
B6D0
ENDCHAR
STARTCHAR yacute
ENCODING 253
SWIDTH 505 0
DWIDTH 6 0
BBX 6 12 0 -3
BITMAP
01C0
0240
0100
75D0
B6D0
B2C0
E380
E790
BB90
2F00
5F00
7D00
ENDCHAR
STARTCHAR thorn
ENCODING 254
SWIDTH 473 0
DWIDTH 6 0
BBX 7 12 -1 -3
BITMAP
0600
0F00
0E00
1EE0
1D74
2C74
38B0
38E0
7B80
B000
B000
9000
ENDCHAR
STARTCHAR ydieresis
ENCODING 255
SWIDTH 505 0
DWIDTH 6 0
BBX 6 11 0 -3
BITMAP
19C0
0000
75D0
B6D0
B2C0
E380
E790
BB90
2F00
5F00
7D00
ENDCHAR
STARTCHAR Amacron
ENCODING 256
SWIDTH 668 0
DWIDTH 8 0
BBX 10 13 0 -2
BITMAP
001A90
000000
001B40
005B00
018E00
2B9E00
AA2D00
5D2C00
1C2C00
283800
387800
340000
140000
ENDCHAR
STARTCHAR amacron
ENCODING 257
SWIDTH 526 0
DWIDTH 6 0
BBX 7 8 0 0
BITMAP
0AA0
0000
1EE0
75D0
F1D0
E2C0
E7D4
BAE0
ENDCHAR
STARTCHAR Abreve
ENCODING 258
SWIDTH 668 0
DWIDTH 8 0
BBX 10 13 0 -2
BITMAP
001860
000A80
001B40
005B00
018E00
2B9E00
AA2D00
5D2C00
1C2C00
283800
387800
340000
140000
ENDCHAR
STARTCHAR abreve
ENCODING 259
SWIDTH 526 0
DWIDTH 6 0
BBX 7 9 0 0
BITMAP
0C30
0680
0000
1EE0
75D0
F1D0
E2C0
E7D4
BAE0
ENDCHAR
STARTCHAR Aogonek
ENCODING 260
SWIDTH 668 0
DWIDTH 8 0
BBX 9 11 0 -2
BITMAP
001B40
005B00
018E00
2B9E00
AA2D00
5D2C00
1C2C00
283800
387800
245000
006400
ENDCHAR
STARTCHAR aogonek
ENCODING 261
SWIDTH 526 0
DWIDTH 6 0
BBX 7 8 0 -2
BITMAP
1EE0
75D0
F1D0
E2C0
E3C4
BAD0
0180
0190
ENDCHAR
STARTCHAR Cacute
ENCODING 262
SWIDTH 497 0
DWIDTH 6 0
BBX 7 12 0 0
BITMAP
0030
00A0
0040
07A0
1E24
3C24
7800
B400
B400
B400
B410
2E80
ENDCHAR
STARTCHAR cacute
ENCODING 263
SWIDTH 384 0
DWIDTH 5 0
BBX 5 9 0 0
BITMAP
01C0
0240
0100
1F40
7640
F000
E000
E040
B900
ENDCHAR
STARTCHAR Ccircumflex
ENCODING 264
SWIDTH 497 0
DWIDTH 6 0
BBX 7 12 0 0
BITMAP
0090
02A0
0110
07A0
1E24
3C24
7800
B400
B400
B400
B410
2E80
ENDCHAR
STARTCHAR ccircumflex
ENCODING 265
SWIDTH 384 0
DWIDTH 5 0
BBX 5 9 0 0
BITMAP
0240
0A80
1000
1F40
7640
F000
E000
E040
B900
ENDCHAR
STARTCHAR Cdotaccent
ENCODING 266
SWIDTH 497 0
DWIDTH 6 0
BBX 7 12 0 0
BITMAP
0060
0070
0000
07A0
1E24
3C24
7800
B400
B400
B400
B410
2E80
ENDCHAR
STARTCHAR cdotaccent
ENCODING 267
SWIDTH 384 0
DWIDTH 5 0
BBX 5 9 0 0
BITMAP
0740
0640
0000
1F40
7640
F000
E000
E040
B900
ENDCHAR
STARTCHAR Ccaron
ENCODING 268
SWIDTH 497 0
DWIDTH 6 0
BBX 7 12 0 0
BITMAP
0154
00D0
0040
07A0
1E24
3C24
7800
B400
B400
B400
B410
2E80
ENDCHAR
STARTCHAR ccaron
ENCODING 269
SWIDTH 384 0
DWIDTH 5 0
BBX 6 9 0 0
BITMAP
0590
0740
0100
1F40
7640
F000
E000
E140
BD00
ENDCHAR
STARTCHAR Dcaron
ENCODING 270
SWIDTH 663 0
DWIDTH 8 0
BBX 8 12 0 0
BITMAP
0154
00E0
0040
0AA4
755D
974E
DB0E
4F0E
0E1D
1D2C
2D38
2EE0
ENDCHAR
STARTCHAR dcaron
ENCODING 271
SWIDTH 525 0
DWIDTH 6 0
BBX 8 9 0 0
BITMAP
0007
00B2
00F0
1EE0
75D0
F1D0
E2C0
E3C4
BAE0
ENDCHAR
STARTCHAR Dcroat
ENCODING 272
SWIDTH 663 0
DWIDTH 8 0
BBX 8 9 0 0
BITMAP
0AA4
765D
974E
DB0E
1F8E
0E1D
1D2C
2D38
2EE0
ENDCHAR
STARTCHAR dcroat
ENCODING 273
SWIDTH 525 0
DWIDTH 6 0
BBX 7 8 0 0
BITMAP
0070
02F8
1EE0
75E0
F1D0
E2C0
E3C4
BAE0
ENDCHAR
STARTCHAR Emacron
ENCODING 274
SWIDTH 459 0
DWIDTH 6 0
BBX 7 11 0 0
BITMAP
02A4
0000
0790
0D30
1C60
1D00
1E00
7800
F400
B410
7E40
ENDCHAR
STARTCHAR emacron
ENCODING 275
SWIDTH 384 0
DWIDTH 5 0
BBX 5 8 0 0
BITMAP
2A80
0000
1F40
7640
F700
F900
E040
B900
ENDCHAR
STARTCHAR Ebreve
ENCODING 276
SWIDTH 459 0
DWIDTH 6 0
BBX 7 12 0 0
BITMAP
0618
02A0
0000
0790
0D30
1C60
1D00
1E00
7800
F400
B410
7E40
ENDCHAR
STARTCHAR ebreve
ENCODING 277
SWIDTH 384 0
DWIDTH 5 0
BBX 5 9 0 0
BITMAP
30C0
1A40
0000
1F40
7640
F700
F900
E040
B900
ENDCHAR
STARTCHAR Edotaccent
ENCODING 278
SWIDTH 459 0
DWIDTH 6 0
BBX 6 12 0 0
BITMAP
0090
00E0
0000
0790
0D30
1C60
1D00
1E00
7800
F400
B410
7E40
ENDCHAR
STARTCHAR edotaccent
ENCODING 279
SWIDTH 384 0
DWIDTH 5 0
BBX 5 9 0 0
BITMAP
0740
0640
0000
1F40
7640
F700
F900
E040
B900
ENDCHAR
STARTCHAR Eogonek
ENCODING 280
SWIDTH 459 0
DWIDTH 6 0
BBX 6 11 0 -2
BITMAP
0B90
2C30
3860
1D00
2E00
B800
B400
B850
2F40
0200
0240
ENDCHAR
STARTCHAR eogonek
ENCODING 281
SWIDTH 384 0
DWIDTH 5 0
BBX 5 8 0 -2
BITMAP
1F40
7640
F700
F900
E040
BD00
1400
1900
ENDCHAR
STARTCHAR Ecaron
ENCODING 282
SWIDTH 459 0
DWIDTH 6 0
BBX 7 12 0 0
BITMAP
0164
0090
0000
0790
0D30
1C60
1D00
1E00
7800
F400
B410
7E40
ENDCHAR
STARTCHAR ecaron
ENCODING 283
SWIDTH 384 0
DWIDTH 5 0
BBX 6 9 0 0
BITMAP
0590
0740
0100
1F40
7640
F200
F800
E040
B900
ENDCHAR
STARTCHAR Gcircumflex
ENCODING 284
SWIDTH 578 0
DWIDTH 7 0
BBX 7 14 0 -2
BITMAP
0020
01A4
0100
06A4
2D18
7828
B400
B024
B074
74B0
2AA0
19D0
32C0
2A40
ENDCHAR
STARTCHAR gcircumflex
ENCODING 285
SWIDTH 507 0
DWIDTH 6 0
BBX 7 12 0 -3
BITMAP
0180
0680
0400
1EE0
75D0
F1D0
E2C0
E384
BBA0
1B40
2B00
2D00
ENDCHAR
STARTCHAR Gbreve
ENCODING 286
SWIDTH 578 0
DWIDTH 7 0
BBX 8 14 0 -2
BITMAP
0145
00A8
0000
06A4
2D18
7828
B400
B024
B074
74B0
2AA0
19D0
32C0
2A40
ENDCHAR
STARTCHAR gbreve
ENCODING 287
SWIDTH 507 0
DWIDTH 6 0
BBX 7 12 0 -3
BITMAP
0C30
0680
0000
1EE0
75D0
F1D0
E2C0
E384
BBA0
1B40
2B00
2D00
ENDCHAR
STARTCHAR Gdotaccent
ENCODING 288
SWIDTH 578 0
DWIDTH 7 0
BBX 7 14 0 -2
BITMAP
00A0
00A0
0000
06A4
2D18
7828
B400
B024
B074
74B0
2AA0
19D0
32C0
2A40
ENDCHAR
STARTCHAR gdotaccent
ENCODING 289
SWIDTH 507 0
DWIDTH 6 0
BBX 7 12 0 -3
BITMAP
0280
0280
0000
1EE0
75D0
F1D0
E2C0
E384
BBA0
1B40
2B00
2D00
ENDCHAR
STARTCHAR Gcommaaccent
ENCODING 290
SWIDTH 578 0
DWIDTH 7 0
BBX 7 12 0 -3
BITMAP
06A0
1E34
3C30
B400
B400
F034
F070
B4E0
2EE0
0500
0600
0400
ENDCHAR
STARTCHAR gcommaaccent
ENCODING 291
SWIDTH 507 0
DWIDTH 6 0
BBX 7 12 0 -3
BITMAP
0140
0240
0000
1EE0
75D0
F1D0
E2C0
E384
BBA0
1B40
2B00
2D00
ENDCHAR
STARTCHAR Hcircumflex
ENCODING 292
SWIDTH 665 0
DWIDTH 8 0
BBX 9 12 0 0
BITMAP
000800
002900
004100
0B8B40
3B8B00
A74E00
9B4E00
5BFD00
0E1C00
1E2C00
1D3800
2C7800
ENDCHAR
STARTCHAR hcircumflex
ENCODING 293
SWIDTH 505 0
DWIDTH 6 0
BBX 8 11 -1 0
BITMAP
0180
0680
0440
0B00
0E00
1EE0
1DB0
2CB0
38E0
38E1
74B4
ENDCHAR
STARTCHAR Hbar
ENCODING 294
SWIDTH 665 0
DWIDTH 8 0
BBX 9 9 0 0
BITMAP
0B8B40
278B00
ABAF40
9B0E00
5FAD00
0E1C00
1E2C00
1D3800
2C7800
ENDCHAR
STARTCHAR hbar
ENCODING 295
SWIDTH 505 0
DWIDTH 6 0
BBX 8 8 -1 0
BITMAP
0A00
2F80
1EE0
1DB0
2CB0
38E0
38E1
74B4
ENDCHAR
STARTCHAR Itilde
ENCODING 296
SWIDTH 375 0
DWIDTH 5 0
BBX 6 11 0 0
BITMAP
0BA0
0150
0B80
6740
9740
DB00
0E00
0E00
1D00
2D00
2C00
ENDCHAR
STARTCHAR itilde
ENCODING 297
SWIDTH 267 0
DWIDTH 3 0
BBX 4 8 0 0
BITMAP
79
00
74
B4
B0
E0
E5
B8
ENDCHAR
STARTCHAR Imacron
ENCODING 298
SWIDTH 375 0
DWIDTH 5 0
BBX 6 11 0 0
BITMAP
0AA0
0000
0B80
6740
9740
DB00
0E00
0E00
1D00
2D00
2C00
ENDCHAR
STARTCHAR imacron
ENCODING 299
SWIDTH 267 0
DWIDTH 3 0
BBX 4 8 0 0
BITMAP
69
00
74
B4
B0
E0
E5
B8
ENDCHAR
STARTCHAR Ibreve
ENCODING 300
SWIDTH 375 0
DWIDTH 5 0
BBX 7 11 0 0
BITMAP
0924
0690
0B80
6740
9740
DB00
0E00
0E00
1D00
2D00
2C00
ENDCHAR
STARTCHAR ibreve
ENCODING 301
SWIDTH 267 0
DWIDTH 3 0
BBX 4 9 0 0
BITMAP
92
28
00
74
B4
B0
E0
E5
B8
ENDCHAR
STARTCHAR Iogonek
ENCODING 302
SWIDTH 375 0
DWIDTH 5 0
BBX 5 15 0 -3
BITMAP
0900
0600
0000
0B80
6740
9740
DB00
0E00
0E00
1D00
2D00
2C00
2000
6000
2800
ENDCHAR
STARTCHAR iogonek
ENCODING 303
SWIDTH 267 0
DWIDTH 3 0
BBX 5 11 -1 -3
BITMAP
0A00
0A00
1D00
2D00
2C00
3800
3940
2E00
2000
6000
6800
ENDCHAR
STARTCHAR Idotaccent
ENCODING 304
SWIDTH 375 0
DWIDTH 5 0
BBX 5 12 0 0
BITMAP
0180
01C0
0000
0B80
6740
9740
DB00
0E00
0E00
1D00
2D00
2C00
ENDCHAR
STARTCHAR dotlessi
ENCODING 305
SWIDTH 267 0
DWIDTH 3 0
BBX 4 6 0 0
BITMAP
74
B4
B0
E0
E5
B8
ENDCHAR
STARTCHAR IJ
ENCODING 306
SWIDTH 663 0
DWIDTH 8 0
BBX 8 11 0 -2
BITMAP
0B8A
674E
975E
DB1D
0E2C
0E3C
1D38
2C74
2DB0
28E0
1A80
ENDCHAR
STARTCHAR ij
ENCODING 307
SWIDTH 507 0
DWIDTH 6 0
BBX 7 11 0 -3
BITMAP
28B0
28A0
74E0
B5D0
B2D0
E2C0
E394
B7D0
1B40
2B00
2D00
ENDCHAR
STARTCHAR Jcircumflex
ENCODING 308
SWIDTH 536 0
DWIDTH 6 0
BBX 8 14 0 -2
BITMAP
0008
0029
0041
00B8
0278
0A74
09B0
00B0
00E0
01D0
02D0
6AC0
9780
6A00
ENDCHAR
STARTCHAR jcircumflex
ENCODING 309
SWIDTH 240 0
DWIDTH 3 0
BBX 6 12 -3 -3
BITMAP
0060
01A0
0100
01D0
01D0
02C0
03C0
0390
0790
1F40
5B00
6D00
ENDCHAR
STARTCHAR Kcommaaccent
ENCODING 310
SWIDTH 601 0
DWIDTH 7 0
BBX 8 12 0 -3
BITMAP
0B8A
2758
9760
DB90
4FA0
0E38
1D74
2DB0
2CB0
0100
0240
0100
ENDCHAR
STARTCHAR kcommaaccent
ENCODING 311
SWIDTH 518 0
DWIDTH 6 0
BBX 8 12 -1 -3
BITMAP
0100
0F00
0E00
1D60
1E80
2EF0
38B0
38E5
74B8
0100
0200
0100
ENDCHAR
STARTCHAR kgreenlandic
ENCODING 312
SWIDTH 518 0
DWIDTH 6 0
BBX 8 6 -1 0
BITMAP
1D60
2E80
2EF0
38B0
38E5
74B8
ENDCHAR
STARTCHAR Lacute
ENCODING 313
SWIDTH 379 0
DWIDTH 5 0
BBX 8 15 0 -3
BITMAP
0050
0090
0040
0B80
6740
9740
9B00
0E00
0E00
1D00
2C00
2D00
0790
00BE
002D
ENDCHAR
STARTCHAR lacute
ENCODING 314
SWIDTH 267 0
DWIDTH 3 0
BBX 4 11 0 0
BITMAP
07
09
04
3C
38
74
B4
B0
E0
E5
B8
ENDCHAR
STARTCHAR Lcommaaccent
ENCODING 315
SWIDTH 379 0
DWIDTH 5 0
BBX 8 12 0 -3
BITMAP
0B80
6740
9740
9B00
0E00
0E00
1D00
2C00
2D00
1790
34BE
102D
ENDCHAR
STARTCHAR lcommaaccent
ENCODING 316
SWIDTH 267 0
DWIDTH 3 0
BBX 4 11 0 -3
BITMAP
2C
38
74
74
B0
F0
E5
B8
40
90
40
ENDCHAR
STARTCHAR Lcaron
ENCODING 317
SWIDTH 379 0
DWIDTH 5 0
BBX 8 15 0 -3
BITMAP
0104
01E0
0040
0B80
6740
9740
9B00
0E00
0E00
1D00
2C00
2D00
0790
00BE
002D
ENDCHAR
STARTCHAR lcaron
ENCODING 318
SWIDTH 267 0
DWIDTH 3 0
BBX 5 9 0 0
BITMAP
0180
2D80
3900
7400
7400
B000
E000
E500
B800
ENDCHAR
STARTCHAR Ldot
ENCODING 319
SWIDTH 605 0
DWIDTH 7 0
BBX 8 12 0 -3
BITMAP
0B80
2740
9740
DB00
4E00
0E24
1D38
2C00
2D00
0790
00BE
002D
ENDCHAR
STARTCHAR ldot
ENCODING 320
SWIDTH 353 0
DWIDTH 4 0
BBX 4 9 0 0
BITMAP
14
3C
38
74
B7
B6
F0
E0
B4
ENDCHAR
STARTCHAR Lslash
ENCODING 321
SWIDTH 392 0
DWIDTH 5 0
BBX 8 12 0 -3
BITMAP
0B80
6740
9750
9B80
1E00
2E00
1D00
2C00
2D00
0790
00BE
002D
ENDCHAR
STARTCHAR lslash
ENCODING 322
SWIDTH 286 0
DWIDTH 3 0
BBX 5 8 -1 0
BITMAP
0B00
0E00
1E80
1D00
7C00
3C00
3940
2E00
ENDCHAR
STARTCHAR Nacute
ENCODING 323
SWIDTH 702 0
DWIDTH 8 0
BBX 9 12 0 0
BITMAP
000700
000900
000400
1B8280
67C340
97D300
DAD700
1DE600
0CB900
18BD00
287C00
243800
ENDCHAR
STARTCHAR nacute
ENCODING 324
SWIDTH 505 0
DWIDTH 6 0
BBX 8 9 -1 0
BITMAP
0034
0060
0040
1EE0
2DB0
2CB0
38E0
38E5
74B8
ENDCHAR
STARTCHAR Ncommaaccent
ENCODING 325
SWIDTH 668 0
DWIDTH 8 0
BBX 9 12 0 -3
BITMAP
1B8280
67C340
97D300
DAD700
1DE600
0CB900
18BD00
287C00
243800
010000
020000
010000
ENDCHAR
STARTCHAR ncommaaccent
ENCODING 326
SWIDTH 505 0
DWIDTH 6 0
BBX 8 9 -1 -3
BITMAP
1EE0
2DB0
2CB0
38E0
38E1
74B4
0500
0600
0400
ENDCHAR
STARTCHAR Ncaron
ENCODING 327
SWIDTH 668 0
DWIDTH 8 0
BBX 9 12 0 0
BITMAP
001240
001D00
000400
1B8280
67C340
97D300
DAD700
1DE600
0CB900
18BD00
287C00
243800
ENDCHAR
STARTCHAR ncaron
ENCODING 328
SWIDTH 505 0
DWIDTH 6 0
BBX 8 9 -1 0
BITMAP
0264
01C0
0000
1EE0
2DB0
2CB0
38E0
38E1
74B4
ENDCHAR
STARTCHAR napostrophe
ENCODING 329
SWIDTH 505 0
DWIDTH 6 0
BBX 8 9 -1 0
BITMAP
1800
1800
1000
1EE0
2DB0
2CB0
38E0
38E1
74B4
ENDCHAR
STARTCHAR Eng
ENCODING 330
SWIDTH 723 0
DWIDTH 9 0
BBX 9 11 0 -2
BITMAP
0BD0C0
2AE1C0
73E180
63B240
167740
0A7B00
093E00
0C2D00
1C1C00
032800
02A000
ENDCHAR
STARTCHAR eng
ENCODING 331
SWIDTH 505 0
DWIDTH 6 0
BBX 6 9 -1 -3
BITMAP
1EE0
2DB0
2CB0
38E0
38E0
75D0
06C0
1380
1B40
ENDCHAR
STARTCHAR Omacron
ENCODING 332
SWIDTH 665 0
DWIDTH 8 0
BBX 8 11 0 0
BITMAP
01A8
0000
06A8
258E
A74A
9E0A
1D0E
2D1D
2C2C
2D74
0B90
ENDCHAR
STARTCHAR omacron
ENCODING 333
SWIDTH 433 0
DWIDTH 5 0
BBX 8 8 -1 0
BITMAP
0AA0
0000
0790
1DA5
3CA4
3890
78C0
2E40
ENDCHAR
STARTCHAR Obreve
ENCODING 334
SWIDTH 665 0
DWIDTH 8 0
BBX 8 12 0 0
BITMAP
0186
00A8
0000
06A8
258E
A74A
9E0A
1D0E
2D1D
2C2C
2D74
0B90
ENDCHAR
STARTCHAR obreve
ENCODING 335
SWIDTH 433 0
DWIDTH 5 0
BBX 8 9 -1 0
BITMAP
0924
0290
0000
0790
1DA5
3CA4
3890
78C0
2E40
ENDCHAR
STARTCHAR Ohungarumlaut
ENCODING 336
SWIDTH 665 0
DWIDTH 8 0
BBX 9 12 0 0
BITMAP
002640
006600
000000
06A800
258E00
A74A00
9E0A00
1D0E00
2D1D00
2C2C00
2D7400
0B9000
ENDCHAR
STARTCHAR ohungarumlaut
ENCODING 337
SWIDTH 433 0
DWIDTH 5 0
BBX 8 9 -1 0
BITMAP
01A8
0220
0000
0790
1DA5
3CA4
3890
78C0
2E40
ENDCHAR
STARTCHAR OE
ENCODING 338
SWIDTH 846 0
DWIDTH 10 0
BBX 11 9 0 0
BITMAP
06FEA4
2B8E00
AB0A00
9E0B00
2D0FD0
2D1D00
2C2C00
2C7940
0BFFC0
ENDCHAR
STARTCHAR oe
ENCODING 339
SWIDTH 663 0
DWIDTH 8 0
BBX 9 6 0 0
BITMAP
2E6E00
76F200
E2D500
E2D000
E3D140
B9B900
ENDCHAR
STARTCHAR Racute
ENCODING 340
SWIDTH 601 0
DWIDTH 7 0
BBX 7 12 0 0
BITMAP
0024
0060
0000
0AA4
365C
975C
DB24
4FF4
0E38
1D74
2DB0
2CB0
ENDCHAR
STARTCHAR racute
ENCODING 341
SWIDTH 376 0
DWIDTH 5 0
BBX 6 9 -1 0
BITMAP
0090
0180
0000
1ED0
2D90
2C00
3800
3800
7400
ENDCHAR
STARTCHAR Rcommaaccent
ENCODING 342
SWIDTH 601 0
DWIDTH 7 0
BBX 7 12 0 -3
BITMAP
0AA4
365C
975C
DB24
4FF4
0E38
1D74
2DB0
2CB0
0100
0300
0100
ENDCHAR
STARTCHAR rcommaaccent
ENCODING 343
SWIDTH 376 0
DWIDTH 5 0
BBX 6 9 -1 -3
BITMAP
1ED0
2D90
2C00
3800
3800
7400
0400
1800
1000
ENDCHAR
STARTCHAR Rcaron
ENCODING 344
SWIDTH 601 0
DWIDTH 7 0
BBX 7 12 0 0
BITMAP
0098
0060
0000
0AA4
365C
975C
DB24
4FF4
0E38
1D74
2DB0
2CB0
ENDCHAR
STARTCHAR rcaron
ENCODING 345
SWIDTH 376 0
DWIDTH 5 0
BBX 6 9 -1 0
BITMAP
0550
0340
0000
1ED0
2D90
2C00
3800
3800
7400
ENDCHAR
STARTCHAR Sacute
ENCODING 346
SWIDTH 570 0
DWIDTH 7 0
BBX 7 12 0 0
BITMAP
0034
0060
0000
06A0
0E28
0E24
0B40
02D0
28F0
70B0
70E0
2B80
ENDCHAR
STARTCHAR sacute
ENCODING 347
SWIDTH 382 0
DWIDTH 5 0
BBX 6 9 -1 0
BITMAP
00A0
00C0
0140
0780
0B80
1780
2380
63D0
2E40
ENDCHAR
STARTCHAR Scircumflex
ENCODING 348
SWIDTH 570 0
DWIDTH 7 0
BBX 7 12 0 0
BITMAP
0060
0194
0000
06A0
0E28
0E24
0B40
02D0
28F0
70B0
70E0
2B80
ENDCHAR
STARTCHAR scircumflex
ENCODING 349
SWIDTH 382 0
DWIDTH 5 0
BBX 6 9 -1 0
BITMAP
0180
0680
0440
0780
0B80
1780
2380
63D0
2E40
ENDCHAR
STARTCHAR Scedilla
ENCODING 350
SWIDTH 570 0
DWIDTH 7 0
BBX 7 12 0 -3
BITMAP
06A0
0E28
0E24
0B40
03D0
29F0
70B0
70F0
2B80
0600
0240
0A00
ENDCHAR
STARTCHAR scedilla
ENCODING 351
SWIDTH 382 0
DWIDTH 5 0
BBX 6 9 -1 -3
BITMAP
0780
0B80
1780
2380
7390
1640
1400
1D00
2900
ENDCHAR
STARTCHAR Scaron
ENCODING 352
SWIDTH 570 0
DWIDTH 7 0
BBX 8 12 0 0
BITMAP
0099
0060
0000
06A0
0E28
0E24
0B40
02D0
28F0
70B0
70E0
2B80
ENDCHAR
STARTCHAR scaron
ENCODING 353
SWIDTH 369 0
DWIDTH 4 0
BBX 6 9 -1 0
BITMAP
0550
0340
0100
0780
0B80
1780
2380
67D0
2E00
ENDCHAR
STARTCHAR uni0162
ENCODING 354
SWIDTH 481 0
DWIDTH 6 0
BBX 9 12 0 -3
BITMAP
1AE440
62EA00
92C000
D38000
078000
074000
0B0000
0B0000
0E0000
090000
074000
1A0000
ENDCHAR
STARTCHAR uni0163
ENCODING 355
SWIDTH 267 0
DWIDTH 3 0
BBX 5 11 -1 -3
BITMAP
0A00
0E00
2F00
1D00
2C00
3800
3940
2E00
2400
1D00
6800
ENDCHAR
STARTCHAR Tcaron
ENCODING 356
SWIDTH 481 0
DWIDTH 6 0
BBX 9 12 0 0
BITMAP
009800
00A000
004000
1AE440
62EA00
92C000
D38000
078000
074000
0B0000
0B0000
0E0000
ENDCHAR
STARTCHAR tcaron
ENCODING 357
SWIDTH 267 0
DWIDTH 3 0
BBX 5 9 0 0
BITMAP
0180
2880
3800
BC00
7400
B000
E000
E500
B800
ENDCHAR
STARTCHAR Tbar
ENCODING 358
SWIDTH 481 0
DWIDTH 6 0
BBX 9 9 0 0
BITMAP
1AE440
62DA00
92C000
D38000
038000
2FE400
0B4000
0B0000
0E0000
ENDCHAR
STARTCHAR tbar
ENCODING 359
SWIDTH 267 0
DWIDTH 3 0
BBX 4 8 0 0
BITMAP
28
38
BC
F8
B0
E0
E5
B8
ENDCHAR
STARTCHAR Utilde
ENCODING 360
SWIDTH 716 0
DWIDTH 9 0
BBX 9 11 0 0
BITMAP
007E40
000500
0BC2C0
638380
D74380
CB0740
0B0B00
0E0F00
0D1E00
0E6C00
0BE400
ENDCHAR
STARTCHAR utilde
ENCODING 361
SWIDTH 505 0
DWIDTH 6 0
BBX 7 8 0 0
BITMAP
1B90
0000
75D0
B6D0
B2C0
E380
E794
B6D0
ENDCHAR
STARTCHAR Umacron
ENCODING 362
SWIDTH 716 0
DWIDTH 9 0
BBX 9 11 0 0
BITMAP
006A40
000000
0BC2C0
638380
D74380
CB0740
0B0B00
0E0F00
0D1E00
0E6C00
0BE400
ENDCHAR
STARTCHAR umacron
ENCODING 363
SWIDTH 505 0
DWIDTH 6 0
BBX 7 8 0 0
BITMAP
1A90
0000
75D0
B6D0
B2C0
E380
E794
B6D0
ENDCHAR
STARTCHAR Ubreve
ENCODING 364
SWIDTH 716 0
DWIDTH 9 0
BBX 9 12 0 0
BITMAP
006180
002A00
000000
0BC2C0
638380
D74380
CB0740
0B0B00
0E0F00
0D1E00
0E6C00
0BE400
ENDCHAR
STARTCHAR ubreve
ENCODING 365
SWIDTH 505 0
DWIDTH 6 0
BBX 7 9 0 0
BITMAP
28A0
0A40
0000
75D0
B6D0
B2C0
E380
E794
B6D0
ENDCHAR
STARTCHAR Uring
ENCODING 366
SWIDTH 716 0
DWIDTH 9 0
BBX 9 12 0 0
BITMAP
001800
002500
001800
0BC2C0
638380
D74380
CB0740
0B0B00
0E0F00
0D1E00
0E6C00
0BE400
ENDCHAR
STARTCHAR uring
ENCODING 367
SWIDTH 505 0
DWIDTH 6 0
BBX 7 8 0 0
BITMAP
0600
0600
75D0
B6D0
B2C0
E380
E794
B6D0
ENDCHAR
STARTCHAR Uhungarumlaut
ENCODING 368
SWIDTH 716 0
DWIDTH 9 0
BBX 9 12 0 0
BITMAP
000DC0
002640
000000
0BC2C0
638380
D74380
CB0740
0B0B00
0E0F00
0D1E00
0E6C00
0BE400
ENDCHAR
STARTCHAR uhungarumlaut
ENCODING 369
SWIDTH 505 0
DWIDTH 6 0
BBX 7 9 0 0
BITMAP
0660
0880
0000
75D0
B6D0
B2C0
E380
E794
B6D0
ENDCHAR
STARTCHAR Uogonek
ENCODING 370
SWIDTH 716 0
DWIDTH 9 0
BBX 9 15 0 -3
BITMAP
003400
002400
000000
0BC2C0
638380
D74380
CB0740
4B0B00
0E0B00
0D0E00
0D1C00
0BA400
020000
030000
029000
ENDCHAR
STARTCHAR uogonek
ENCODING 371
SWIDTH 505 0
DWIDTH 6 0
BBX 7 9 0 -3
BITMAP
75D0
B6D0
B2C0
E380
E794
B6E0
0240
0300
0290
ENDCHAR
STARTCHAR Wcircumflex
ENCODING 372
SWIDTH 962 0
DWIDTH 12 0
BBX 13 12 0 0
BITMAP
00009000
0002A000
00051000
0B82C240
6383C200
9387C500
D38BC800
038AC800
03D6D400
03E2E000
03D2E000
03C2D000
ENDCHAR
STARTCHAR wcircumflex
ENCODING 373
SWIDTH 661 0
DWIDTH 8 0
BBX 8 9 0 0
BITMAP
0060
01A0
0110
75D6
B6D2
B2C6
E389
E798
B6E0
ENDCHAR
STARTCHAR Ycircumflex
ENCODING 374
SWIDTH 620 0
DWIDTH 7 0
BBX 8 12 0 0
BITMAP
0008
0029
0041
0BC2
63C2
92D5
D1E8
00F4
00F0
00E0
01E0
02D0
ENDCHAR
STARTCHAR ycircumflex
ENCODING 375
SWIDTH 505 0
DWIDTH 6 0
BBX 6 12 0 -3
BITMAP
0240
0A80
0000
75D0
B6D0
B2C0
E380
E790
BB90
2F00
5F00
7D00
ENDCHAR
STARTCHAR Ydieresis
ENCODING 376
SWIDTH 620 0
DWIDTH 7 0
BBX 8 11 0 0
BITMAP
0063
0000
0BC2
63C2
92D5
D1E8
00F4
00F0
00E0
01E0
02D0
ENDCHAR
STARTCHAR Zacute
ENCODING 377
SWIDTH 542 0
DWIDTH 7 0
BBX 7 12 0 0
BITMAP
0024
0060
0050
2AF4
34F0
02D0
03C0
0B40
0F00
2D00
3C70
BEA0
ENDCHAR
STARTCHAR zacute
ENCODING 378
SWIDTH 428 0
DWIDTH 5 0
BBX 5 9 0 0
BITMAP
0180
0240
0100
2BC0
6740
0E00
2D00
3940
BA40
ENDCHAR
STARTCHAR Zdotaccent
ENCODING 379
SWIDTH 530 0
DWIDTH 6 0
BBX 7 11 0 0
BITMAP
01C0
0000
2AF4
34F0
02D0
03C0
0B40
0F00
2D00
3C70
BEA0
ENDCHAR
STARTCHAR zdotaccent
ENCODING 380
SWIDTH 428 0
DWIDTH 5 0
BBX 5 8 0 0
BITMAP
0700
0000
2BC0
6740
0E00
2D00
3940
BA40
ENDCHAR
STARTCHAR Zcaron
ENCODING 381
SWIDTH 542 0
DWIDTH 7 0
BBX 7 12 0 0
BITMAP
0158
00E0
0040
2AF4
34F0
02D0
03C0
0B40
0F00
2D00
3C70
BEA0
ENDCHAR
STARTCHAR zcaron
ENCODING 382
SWIDTH 428 0
DWIDTH 5 0
BBX 6 9 0 0
BITMAP
0590
0740
0000
2BC0
6740
0E00
2D00
3940
BA40
ENDCHAR
STARTCHAR longs
ENCODING 383
SWIDTH 267 0
DWIDTH 3 0
BBX 8 12 -3 -3
BITMAP
0079
00B1
00E0
02D0
01D0
02C0
0380
0380
0740
2B00
5B00
6D00
ENDCHAR
STARTCHAR uni018F
ENCODING 399
SWIDTH 544 0
DWIDTH 7 0
BBX 7 9 0 0
BITMAP
1BD0
25F0
00B4
00B4
06F4
28F0
B1E0
A280
7A00
ENDCHAR
STARTCHAR florin
ENCODING 402
SWIDTH 267 0
DWIDTH 3 0
BBX 8 12 -3 -3
BITMAP
001F
0077
00B0
02F8
01D0
02D0
03C0
0380
0740
0B00
9D00
A800
ENDCHAR
STARTCHAR Ohorn
ENCODING 416
SWIDTH 665 0
DWIDTH 8 0
BBX 9 11 0 0
BITMAP
000140
000180
06AA40
258E00
A74A00
9E0B00
1D0E00
2D1D00
2C2C00
2D7400
0B9000
ENDCHAR
STARTCHAR ohorn
ENCODING 417
SWIDTH 439 0
DWIDTH 5 0
BBX 6 8 0 0
BITMAP
0010
0060
1E90
7580
F180
E240
E300
B900
ENDCHAR
STARTCHAR Uhorn
ENCODING 431
SWIDTH 716 0
DWIDTH 9 0
BBX 11 11 0 0
BITMAP
000024
000034
0BC2D0
638380
D74380
CB0740
0B0B00
0E0F00
0D1E00
0E6C00
0BE400
ENDCHAR
STARTCHAR uhorn
ENCODING 432
SWIDTH 505 0
DWIDTH 6 0
BBX 7 8 0 0
BITMAP
0014
0024
75D0
B6D0
B2C0
E380
E794
B6D0
ENDCHAR
STARTCHAR uni01B7
ENCODING 439
SWIDTH 555 0
DWIDTH 7 0
BBX 7 9 0 0
BITMAP
1EF8
24E0
02C0
0780
06E0
00F0
50F0
A1E0
6B40
ENDCHAR
STARTCHAR uni01CD
ENCODING 461
SWIDTH 668 0
DWIDTH 8 0
BBX 10 14 0 -2
BITMAP
000160
000280
000100
001B40
005B00
018E00
2B9E00
AA2D00
5D2C00
1C2C00
283800
387800
340000
140000
ENDCHAR
STARTCHAR uni01CE
ENCODING 462
SWIDTH 526 0
DWIDTH 6 0
BBX 7 9 0 0
BITMAP
0260
0280
0000
1EE0
75D0
F1D0
E2C0
E7D4
BAE0
ENDCHAR
STARTCHAR uni01CF
ENCODING 463
SWIDTH 375 0
DWIDTH 5 0
BBX 7 12 0 0
BITMAP
0224
01D0
0040
0B80
6740
9740
DB00
0E00
0E00
1D00
2D00
2C00
ENDCHAR
STARTCHAR uni01D0
ENCODING 464
SWIDTH 267 0
DWIDTH 3 0
BBX 4 9 0 0
BITMAP
26
28
00
74
B4
B0
E0
E5
B8
ENDCHAR
STARTCHAR uni01D1
ENCODING 465
SWIDTH 665 0
DWIDTH 8 0
BBX 8 12 0 0
BITMAP
0026
0028
0010
06A8
258E
A74A
9E0A
1D0E
2D1D
2C2C
2D74
0B90
ENDCHAR
STARTCHAR uni01D2
ENCODING 466
SWIDTH 433 0
DWIDTH 5 0
BBX 8 9 -1 0
BITMAP
0264
01C0
0000
0790
1DA5
3CA4
3890
79C0
2E40
ENDCHAR
STARTCHAR uni01D3
ENCODING 467
SWIDTH 716 0
DWIDTH 9 0
BBX 9 12 0 0
BITMAP
001540
000E00
000400
0BC2C0
638380
D74380
CB0740
0B0B00
0E0F00
0D1E00
0E6C00
0BE400
ENDCHAR
STARTCHAR uni01D4
ENCODING 468
SWIDTH 505 0
DWIDTH 6 0
BBX 7 9 0 0
BITMAP
0590
0340
0000
75D0
B6D0
B2C0
E380
E794
B6D0
ENDCHAR
STARTCHAR uni01D5
ENCODING 469
SWIDTH 716 0
DWIDTH 9 0
BBX 9 12 0 0
BITMAP
002A40
006240
000000
0BC2C0
638380
D74380
CB0740
0B0B00
0E0F00
0D1E00
0E6C00
0BE400
ENDCHAR
STARTCHAR uni01D6
ENCODING 470
SWIDTH 505 0
DWIDTH 6 0
BBX 7 10 0 0
BITMAP
0AA0
0000
1CC0
0000
75D0
B6D0
B2C0
E380
E794
B6D0
ENDCHAR
STARTCHAR uni01D7
ENCODING 471
SWIDTH 716 0
DWIDTH 9 0
BBX 9 12 0 0
BITMAP
000A00
00DDC0
000000
0BC2C0
638380
D74380
CB0740
0B0B00
0E0F00
0D1E00
0E6C00
0BE400
ENDCHAR
STARTCHAR uni01D8
ENCODING 472
SWIDTH 505 0
DWIDTH 6 0
BBX 7 11 0 0
BITMAP
00C0
0240
0000
1CC0
0000
75D0
B6D0
B2C0
E380
E794
B6D0
ENDCHAR
STARTCHAR uni01D9
ENCODING 473
SWIDTH 716 0
DWIDTH 9 0
BBX 9 12 0 0
BITMAP
001100
00EDC0
000000
0BC2C0
638380
D74380
CB0740
0B0B00
0E0F00
0D1E00
0E6C00
0BE400
ENDCHAR
STARTCHAR uni01DA
ENCODING 474
SWIDTH 505 0
DWIDTH 6 0
BBX 7 11 0 0
BITMAP
0560
0380
0100
1CC0
0000
75D0
B6D0
B2C0
E380
E794
B6D0
ENDCHAR
STARTCHAR uni01DB
ENCODING 475
SWIDTH 716 0
DWIDTH 9 0
BBX 9 12 0 0
BITMAP
001C00
00DDC0
000000
0BC2C0
638380
D74380
CB0740
0B0B00
0E0F00
0D1E00
0E6C00
0BE400
ENDCHAR
STARTCHAR uni01DC
ENCODING 476
SWIDTH 505 0
DWIDTH 6 0
BBX 7 11 0 0
BITMAP
0A00
0600
0000
1CC0
0000
75D0
B6D0
B2C0
E380
E794
B6D0
ENDCHAR
STARTCHAR uni01E4
ENCODING 484
SWIDTH 601 0
DWIDTH 7 0
BBX 7 11 0 -2
BITMAP
06A4
2D18
7814
B414
B1B8
B0B0
74F0
2AA0
19D0
32C0
2A00
ENDCHAR
STARTCHAR uni01E5
ENCODING 485
SWIDTH 507 0
DWIDTH 6 0
BBX 7 9 0 -3
BITMAP
1EE0
75D0
F1D0
E2C0
E384
BBA0
1B80
7F80
2E00
ENDCHAR
STARTCHAR Gcaron
ENCODING 486
SWIDTH 578 0
DWIDTH 7 0
BBX 8 14 0 -2
BITMAP
0089
0074
0010
06A4
2D18
7828
B400
B024
B074
74B0
2AA0
19D0
32C0
2A40
ENDCHAR
STARTCHAR gcaron
ENCODING 487
SWIDTH 507 0
DWIDTH 6 0
BBX 7 12 0 -3
BITMAP
0260
0280
0000
1EE0
75D0
F1D0
E2C0
E384
BBA0
1B40
2B00
2D00
ENDCHAR
STARTCHAR uni01E8
ENCODING 488
SWIDTH 601 0
DWIDTH 7 0
BBX 8 12 0 0
BITMAP
0026
0018
0000
0B8A
2758
9760
DB90
4FA0
0E38
1D74
2DB0
2CB0
ENDCHAR
STARTCHAR uni01E9
ENCODING 489
SWIDTH 518 0
DWIDTH 6 0
BBX 8 11 -1 0
BITMAP
0098
0060
0100
0F00
0E00
1D60
1E80
2EF0
38B0
38E5
74B8
ENDCHAR
STARTCHAR uni01EA
ENCODING 490
SWIDTH 665 0
DWIDTH 8 0
BBX 8 15 0 -3
BITMAP
01C0
00C0
0000
06A8
258E
A74A
9E0A
1D0E
2D1D
2C2C
2D74
0B90
0900
0C00
0A40
ENDCHAR
STARTCHAR uni01EB
ENCODING 491
SWIDTH 433 0
DWIDTH 5 0
BBX 8 9 -1 -3
BITMAP
0790
1DA5
3CA4
3890
78C0
2E40
1400
2400
1900
ENDCHAR
STARTCHAR uni01EE
ENCODING 494
SWIDTH 525 0
DWIDTH 6 0
BBX 7 12 0 0
BITMAP
0164
0090
0000
1EF8
24E0
02C0
0780
06E0
00F0
50F0
A1E0
6B40
ENDCHAR
STARTCHAR uni01EF
ENCODING 495
SWIDTH 600 0
DWIDTH 7 0
BBX 6 12 0 -3
BITMAP
0990
0600
0000
6B80
5B00
1D00
2C00
2C10
1E80
2E00
9D00
B800
ENDCHAR
STARTCHAR uni01F4
ENCODING 500
SWIDTH 578 0
DWIDTH 7 0
BBX 7 14 0 -2
BITMAP
0028
0030
0010
06A4
2D18
7828
B400
B024
B074
74B0
2AA0
19D0
32C0
2A40
ENDCHAR
STARTCHAR uni01F5
ENCODING 501
SWIDTH 507 0
DWIDTH 6 0
BBX 7 12 0 -3
BITMAP
01C0
0240
0100
1EE0
75D0
F1D0
E2C0
E384
BBA0
1B40
2B00
2D00
ENDCHAR
STARTCHAR Aringacute
ENCODING 506
SWIDTH 668 0
DWIDTH 8 0
BBX 9 14 0 -2
BITMAP
0000C0
000240
000640
001B40
005B00
018E00
2B9E00
AA2D00
5D2C00
1C2C00
283800
387800
340000
140000
ENDCHAR
STARTCHAR aringacute
ENCODING 507
SWIDTH 526 0
DWIDTH 6 0
BBX 7 10 0 0
BITMAP
0040
0180
0140
0240
1EE0
75D0
F1D0
E2C0
E7D4
BAE0
ENDCHAR
STARTCHAR AEacute
ENCODING 508
SWIDTH 764 0
DWIDTH 9 0
BBX 11 14 0 -2
BITMAP
0000A0
000080
000040
001B44
005BA4
018F00
2B9E00
AA2FD0
9D2D00
1C2C00
283800
387E90
340000
140000
ENDCHAR
STARTCHAR aeacute
ENCODING 509
SWIDTH 650 0
DWIDTH 8 0
BBX 8 9 0 0
BITMAP
0028
0030
0010
1BBD
02E6
6BD9
F3E4
E7C1
BAE8
ENDCHAR
STARTCHAR Oslashacute
ENCODING 510
SWIDTH 658 0
DWIDTH 8 0
BBX 8 13 0 -1
BITMAP
000D
0018
0010
0020
0AB4
766D
9A5E
5D8E
2C9D
2CAC
2DB4
1FD0
0200
ENDCHAR
STARTCHAR oslashacute
ENCODING 511
SWIDTH 428 0
DWIDTH 5 0
BBX 7 10 -1 -1
BITMAP
0070
0090
0040
07A4
1D60
3CE0
3A90
3DC0
3E40
4000
ENDCHAR
STARTCHAR uni0200
ENCODING 512
SWIDTH 668 0
DWIDTH 8 0
BBX 9 14 0 -2
BITMAP
006600
002640
000000
001B40
005B00
018E00
2B9E00
AA2D00
5D2C00
1C2C00
283800
387800
340000
140000
ENDCHAR
STARTCHAR uni0201
ENCODING 513
SWIDTH 526 0
DWIDTH 6 0
BBX 7 9 0 0
BITMAP
2640
0880
0000
1EE0
75D0
F1D0
E2C0
E7D4
BAE0
ENDCHAR
STARTCHAR uni0202
ENCODING 514
SWIDTH 668 0
DWIDTH 8 0
BBX 10 13 0 -2
BITMAP
000690
001860
001B40
005B00
018E00
2B9E00
AA2D00
5D2C00
1C2C00
283800
387800
340000
140000
ENDCHAR
STARTCHAR uni0203
ENCODING 515
SWIDTH 526 0
DWIDTH 6 0
BBX 7 8 0 0
BITMAP
0AD0
1860
1EE0
75D0
F1D0
E2C0
E7D4
BAE0
ENDCHAR
STARTCHAR uni0204
ENCODING 516
SWIDTH 459 0
DWIDTH 6 0
BBX 6 12 0 0
BITMAP
1980
0990
0000
0790
0D30
1C60
1D00
1E00
7800
F400
B410
7E40
ENDCHAR
STARTCHAR uni0205
ENCODING 517
SWIDTH 384 0
DWIDTH 5 0
BBX 5 9 0 0
BITMAP
AA00
2200
0000
1F40
7640
F700
F900
E140
BD00
ENDCHAR
STARTCHAR uni0206
ENCODING 518
SWIDTH 459 0
DWIDTH 6 0
BBX 7 12 0 0
BITMAP
01A4
0618
0000
0790
0D30
1C60
1D00
1E00
7800
F400
B410
7E40
ENDCHAR
STARTCHAR uni0207
ENCODING 519
SWIDTH 384 0
DWIDTH 5 0
BBX 5 8 0 0
BITMAP
1B40
6180
1F40
7640
F700
F900
E040
B900
ENDCHAR
STARTCHAR uni0208
ENCODING 520
SWIDTH 375 0
DWIDTH 5 0
BBX 5 12 0 0
BITMAP
2740
0980
0000
0780
6740
9B40
9B00
0E00
0E00
1D00
2D00
2C00
ENDCHAR
STARTCHAR uni0209
ENCODING 521
SWIDTH 267 0
DWIDTH 3 0
BBX 5 9 -1 0
BITMAP
9900
2200
0000
1D00
2D00
2C00
3800
3940
2E00
ENDCHAR
STARTCHAR uni020A
ENCODING 522
SWIDTH 375 0
DWIDTH 5 0
BBX 6 11 0 0
BITMAP
0690
1860
0B80
6740
9740
DB00
0E00
0E00
1D00
2D00
2C00
ENDCHAR
STARTCHAR uni020B
ENCODING 523
SWIDTH 267 0
DWIDTH 3 0
BBX 4 8 0 0
BITMAP
69
85
74
B4
B0
E0
E5
B8
ENDCHAR
STARTCHAR uni020C
ENCODING 524
SWIDTH 665 0
DWIDTH 8 0
BBX 8 12 0 0
BITMAP
0660
0264
0000
06A8
258E
A74A
9E0A
1D0E
2D1D
2C2C
2D74
0B90
ENDCHAR
STARTCHAR uni020D
ENCODING 525
SWIDTH 433 0
DWIDTH 5 0
BBX 8 9 -1 0
BITMAP
2A80
0880
0000
0790
1DA5
3CA4
3890
79C0
2E40
ENDCHAR
STARTCHAR uni020E
ENCODING 526
SWIDTH 665 0
DWIDTH 8 0
BBX 8 12 0 0
BITMAP
0069
0186
0000
06A8
258E
A74A
9E0A
1D0E
2D1D
2C2C
2D74
0B90
ENDCHAR
STARTCHAR uni020F
ENCODING 527
SWIDTH 433 0
DWIDTH 5 0
BBX 8 8 -1 0
BITMAP
06A0
0820
0790
1DA5
3CA4
3890
78C0
2E40
ENDCHAR
STARTCHAR uni0210
ENCODING 528
SWIDTH 601 0
DWIDTH 7 0
BBX 7 12 0 0
BITMAP
1D80
0550
0000
0AA4
365C
975C
DB24
4FF4
0E38
1D74
2DB0
2CB0
ENDCHAR
STARTCHAR uni0211
ENCODING 529
SWIDTH 376 0
DWIDTH 5 0
BBX 6 9 -1 0
BITMAP
3700
1980
0000
1ED0
2D90
2C00
3800
3800
7400
ENDCHAR
STARTCHAR uni0212
ENCODING 530
SWIDTH 601 0
DWIDTH 7 0
BBX 7 12 0 0
BITMAP
01A4
0618
0000
0AA4
365C
975C
DB24
4FF4
0E38
1D74
2DB0
2CB0
ENDCHAR
STARTCHAR uni0213
ENCODING 531
SWIDTH 376 0
DWIDTH 5 0
BBX 6 8 -1 0
BITMAP
06D0
1820
1ED0
2D90
2C00
3800
3800
7400
ENDCHAR
STARTCHAR uni0214
ENCODING 532
SWIDTH 716 0
DWIDTH 9 0
BBX 9 12 0 0
BITMAP
019800
009900
000000
0BC2C0
638380
D74380
CB0740
0B0B00
0E0F00
0D1E00
0E6C00
0BE400
ENDCHAR
STARTCHAR uni0215
ENCODING 533
SWIDTH 505 0
DWIDTH 6 0
BBX 7 9 0 0
BITMAP
6600
2640
0000
75D0
B6D0
B2C0
E380
E794
B6D0
ENDCHAR
STARTCHAR uni0216
ENCODING 534
SWIDTH 716 0
DWIDTH 9 0
BBX 9 12 0 0
BITMAP
002A00
009240
000000
0BC2C0
638380
D74380
CB0740
0B0B00
0E0F00
0D1E00
0E6C00
0BE400
ENDCHAR
STARTCHAR uni0217
ENCODING 535
SWIDTH 505 0
DWIDTH 6 0
BBX 7 8 0 0
BITMAP
1A80
2490
75D0
B6D0
B2C0
E380
E794
B6D0
ENDCHAR
STARTCHAR Scommaaccent
ENCODING 536
SWIDTH 570 0
DWIDTH 7 0
BBX 7 12 0 -3
BITMAP
06A0
0E28
0E24
0B40
02D0
28F0
70B0
70E0
2B80
0400
0800
0400
ENDCHAR
STARTCHAR scommaaccent
ENCODING 537
SWIDTH 382 0
DWIDTH 5 0
BBX 6 8 -1 -2
BITMAP
0780
0B80
1780
2380
63D0
2E40
0400
1800
ENDCHAR
STARTCHAR uni021A
ENCODING 538
SWIDTH 481 0
DWIDTH 6 0
BBX 9 12 0 -3
BITMAP
1AE440
62EA00
92C000
D38000
078000
074000
0B0000
0B0000
0E0000
040000
080000
040000
ENDCHAR
STARTCHAR uni021B
ENCODING 539
SWIDTH 267 0
DWIDTH 3 0
BBX 4 11 0 -3
BITMAP
28
38
BC
74
B0
E0
E5
B8
40
90
40
ENDCHAR
STARTCHAR uni021E
ENCODING 542
SWIDTH 665 0
DWIDTH 8 0
BBX 9 12 0 0
BITMAP
002600
001800
000000
0B8B40
3B8B00
A74E00
9B4E00
5BFD00
0E1C00
1E2C00
1D3800
2C7800
ENDCHAR
STARTCHAR uni021F
ENCODING 543
SWIDTH 600 0
DWIDTH 7 0
BBX 8 11 -1 0
BITMAP
0059
0020
0100
0F00
0E00
1EE0
1DB0
2CB0
38E0
38E1
74B4
ENDCHAR
STARTCHAR uni0237
ENCODING 567
SWIDTH 240 0
DWIDTH 3 0
BBX 6 9 -3 -3
BITMAP
01D0
01D0
02C0
03C0
0390
0790
1F40
5B00
6D00
ENDCHAR
STARTCHAR uni0259
ENCODING 601
SWIDTH 404 0
DWIDTH 5 0
BBX 5 6 0 0
BITMAP
6E00
0780
1B80
A740
CE00
B800
ENDCHAR
STARTCHAR uni0292
ENCODING 658
SWIDTH 442 0
DWIDTH 5 0
BBX 6 9 0 -3
BITMAP
6B80
5B00
1D00
2C00
2C10
1E80
2E00
9D00
B800
ENDCHAR
STARTCHAR uni02BB
ENCODING 699
SWIDTH 241 0
DWIDTH 3 0
BBX 2 3 1 6
BITMAP
10
60
70
ENDCHAR
STARTCHAR uni02BC
ENCODING 700
SWIDTH 228 0
DWIDTH 3 0
BBX 1 3 2 6
BITMAP
C0
80
40
ENDCHAR
STARTCHAR circumflex
ENCODING 710
SWIDTH 293 0
DWIDTH 4 0
BBX 4 2 0 7
BITMAP
18
65
ENDCHAR
STARTCHAR caron
ENCODING 711
SWIDTH 294 0
DWIDTH 4 0
BBX 4 2 1 7
BITMAP
99
60
ENDCHAR
STARTCHAR uni02C9
ENCODING 713
SWIDTH 421 0
DWIDTH 5 0
BBX 5 1 1 7
BITMAP
6A40
ENDCHAR
STARTCHAR uni02CA
ENCODING 714
SWIDTH 256 0
DWIDTH 3 0
BBX 3 2 1 7
BITMAP
24
50
ENDCHAR
STARTCHAR uni02CB
ENCODING 715
SWIDTH 274 0
DWIDTH 3 0
BBX 2 2 2 7
BITMAP
D0
50
ENDCHAR
STARTCHAR breve
ENCODING 728
SWIDTH 431 0
DWIDTH 5 0
BBX 4 2 1 6
BITMAP
C3
69
ENDCHAR
STARTCHAR dotaccent
ENCODING 729
SWIDTH 250 0
DWIDTH 3 0
BBX 3 2 0 7
BITMAP
24
74
ENDCHAR
STARTCHAR ring
ENCODING 730
SWIDTH 156 0
DWIDTH 2 0
BBX 2 2 0 6
BITMAP
90
90
ENDCHAR
STARTCHAR ogonek
ENCODING 731
SWIDTH 291 0
DWIDTH 3 0
BBX 3 3 0 -3
BITMAP
10
60
68
ENDCHAR
STARTCHAR tilde
ENCODING 732
SWIDTH 403 0
DWIDTH 5 0
BBX 4 2 1 7
BITMAP
54
AE
ENDCHAR
STARTCHAR hungarumlaut
ENCODING 733
SWIDTH 436 0
DWIDTH 5 0
BBX 4 2 1 7
BITMAP
76
88
ENDCHAR
STARTCHAR gravecomb
ENCODING 768
SWIDTH 0 0
DWIDTH 0 0
BBX 2 2 -2 7
BITMAP
D0
50
ENDCHAR
STARTCHAR acutecomb
ENCODING 769
SWIDTH 0 0
DWIDTH 0 0
BBX 2 2 -2 7
BITMAP
A0
80
ENDCHAR
STARTCHAR uni0302
ENCODING 770
SWIDTH 0 0
DWIDTH 0 0
BBX 3 2 -3 7
BITMAP
18
98
ENDCHAR
STARTCHAR tildecomb
ENCODING 771
SWIDTH 0 0
DWIDTH 0 0
BBX 4 2 -4 7
BITMAP
54
AE
ENDCHAR
STARTCHAR uni0304
ENCODING 772
SWIDTH 0 0
DWIDTH 0 0
BBX 5 1 -4 7
BITMAP
6A40
ENDCHAR
STARTCHAR uni0306
ENCODING 774
SWIDTH 0 0
DWIDTH 0 0
BBX 5 2 -4 6
BITMAP
9240
6900
ENDCHAR
STARTCHAR uni0307
ENCODING 775
SWIDTH 0 0
DWIDTH 0 0
BBX 3 2 -2 7
BITMAP
64
74
ENDCHAR
STARTCHAR uni0308
ENCODING 776
SWIDTH 0 0
DWIDTH 0 0
BBX 4 1 -3 7
BITMAP
CD
ENDCHAR
STARTCHAR hookabovecomb
ENCODING 777
SWIDTH 0 0
DWIDTH 0 0
BBX 3 3 -3 7
BITMAP
64
18
50
ENDCHAR
STARTCHAR uni030A
ENCODING 778
SWIDTH 0 0
DWIDTH 0 0
BBX 2 2 -2 6
BITMAP
60
60
ENDCHAR
STARTCHAR uni030B
ENCODING 779
SWIDTH 0 0
DWIDTH 0 0
BBX 5 2 -4 7
BITMAP
2740
5500
ENDCHAR
STARTCHAR uni030C
ENCODING 780
SWIDTH 0 0
DWIDTH 0 0
BBX 4 2 -3 7
BITMAP
99
60
ENDCHAR
STARTCHAR uni030F
ENCODING 783
SWIDTH 0 0
DWIDTH 0 0
BBX 4 2 -4 7
BITMAP
A9
22
ENDCHAR
STARTCHAR uni0311
ENCODING 785
SWIDTH 0 0
DWIDTH 0 0
BBX 4 2 -4 6
BITMAP
6A
82
ENDCHAR
STARTCHAR uni031B
ENCODING 795
SWIDTH 0 0
DWIDTH 0 0
BBX 3 3 -2 5
BITMAP
24
20
50
ENDCHAR
STARTCHAR dotbelowcomb
ENCODING 803
SWIDTH 0 0
DWIDTH 0 0
BBX 2 2 -2 -3
BITMAP
90
E0
ENDCHAR
STARTCHAR uni0324
ENCODING 804
SWIDTH 0 0
DWIDTH 0 0
BBX 4 1 -5 -2
BITMAP
CD
ENDCHAR
STARTCHAR uni0326
ENCODING 806
SWIDTH 0 0
DWIDTH 0 0
BBX 2 2 -3 -3
BITMAP
90
80
ENDCHAR
STARTCHAR uni0327
ENCODING 807
SWIDTH 0 0
DWIDTH 0 0
BBX 3 3 -4 -3
BITMAP
50
A4
60
ENDCHAR
STARTCHAR uni0328
ENCODING 808
SWIDTH 0 0
DWIDTH 0 0
BBX 3 3 -5 -3
BITMAP
10
60
28
ENDCHAR
STARTCHAR uni032E
ENCODING 814
SWIDTH 0 0
DWIDTH 0 0
BBX 4 2 -5 -2
BITMAP
85
64
ENDCHAR
STARTCHAR uni0331
ENCODING 817
SWIDTH 0 0
DWIDTH 0 0
BBX 5 1 -6 -2
BITMAP
6A40
ENDCHAR
STARTCHAR uni0335
ENCODING 821
SWIDTH 0 0
DWIDTH 0 0
BBX 5 1 -5 3
BITMAP
6A40
ENDCHAR
STARTCHAR uni0394
ENCODING 916
SWIDTH 619 0
DWIDTH 7 0
BBX 8 9 0 0
BITMAP
0070
00F4
0264
0728
0918
181C
301C
A00D
BFFD
ENDCHAR
STARTCHAR uni03A9
ENCODING 937
SWIDTH 745 0
DWIDTH 9 0
BBX 9 9 0 0
BITMAP
01B900
074700
1C0240
240240
340240
300600
240900
082400
BD7E00
ENDCHAR
STARTCHAR uni03BC
ENCODING 956
SWIDTH 505 0
DWIDTH 6 0
BBX 8 8 -1 -2
BITMAP
1D74
1DB4
2CB0
3CE0
39E5
7EF8
B400
A000
ENDCHAR
STARTCHAR pi
ENCODING 960
SWIDTH 530 0
DWIDTH 6 0
BBX 7 6 0 0
BITMAP
FFF4
30C0
6180
9240
9240
8240
ENDCHAR
STARTCHAR uni0400
ENCODING 1024
SWIDTH 459 0
DWIDTH 6 0
BBX 6 12 0 0
BITMAP
0280
0080
0000
0790
0D30
1C60
1D00
1E00
7800
F400
B410
7E40
ENDCHAR
STARTCHAR uni0401
ENCODING 1025
SWIDTH 459 0
DWIDTH 6 0
BBX 7 11 0 0
BITMAP
0334
0000
0790
0D30
1C60
1D00
1E00
7800
F400
B410
7E40
ENDCHAR
STARTCHAR uni0402
ENCODING 1026
SWIDTH 725 0
DWIDTH 9 0
BBX 9 11 0 -2
BITMAP
1AEA40
62D000
92C000
93C000
53ED00
078E00
0B4E00
0B1D00
0E2C00
003800
019000
ENDCHAR
STARTCHAR uni0403
ENCODING 1027
SWIDTH 400 0
DWIDTH 5 0
BBX 8 12 0 0
BITMAP
000C
0024
0000
17A9
6740
9740
5B00
0E00
0E00
1D00
1D00
2C00
ENDCHAR
STARTCHAR uni0404
ENCODING 1028
SWIDTH 497 0
DWIDTH 6 0
BBX 7 9 0 0
BITMAP
07A0
1E24
3C10
7E80
B400
B400
B400
B810
2E40
ENDCHAR
STARTCHAR uni0405
ENCODING 1029
SWIDTH 570 0
DWIDTH 7 0
BBX 7 9 0 0
BITMAP
06A0
0E28
0E24
0B40
02D0
28F0
70B0
70E0
2B80
ENDCHAR
STARTCHAR uni0406
ENCODING 1030
SWIDTH 374 0
DWIDTH 4 0
BBX 5 9 0 0
BITMAP
0B80
2780
9740
9B00
0F00
0E00
1D00
1D00
2C00
ENDCHAR
STARTCHAR uni0407
ENCODING 1031
SWIDTH 375 0
DWIDTH 5 0
BBX 6 11 0 0
BITMAP
0A60
0000
0B80
6740
9740
DB00
0E00
0E00
1D00
2D00
2C00
ENDCHAR
STARTCHAR uni0408
ENCODING 1032
SWIDTH 536 0
DWIDTH 6 0
BBX 7 11 0 -2
BITMAP
00B8
0278
0A74
09B0
00B0
00E0
01D0
02D0
6AC0
9780
6A00
ENDCHAR
STARTCHAR uni0409
ENCODING 1033
SWIDTH 817 0
DWIDTH 10 0
BBX 11 10 -1 -1
BITMAP
001E00
009E00
019D00
071D00
092EA0
1C3C74
283874
3474B0
74B6D0
300000
ENDCHAR
STARTCHAR uni040A
ENCODING 1034
SWIDTH 931 0
DWIDTH 11 0
BBX 11 9 0 0
BITMAP
0B8B40
278B00
A74F00
9B4E00
5BAEA0
0E1D38
1E2C38
1D3874
2C7AE0
ENDCHAR
STARTCHAR uni040B
ENCODING 1035
SWIDTH 745 0
DWIDTH 9 0
BBX 9 9 0 0
BITMAP
1AEA40
62D000
92C000
53E900
038E00
074E00
0B0E00
0B1D00
0E1E00
ENDCHAR
STARTCHAR uni040C
ENCODING 1036
SWIDTH 635 0
DWIDTH 8 0
BBX 8 12 0 0
BITMAP
000C
0024
0000
0B8B
27AA
A7A0
9B80
5BA4
0E38
1D74
1D70
2C70
ENDCHAR
STARTCHAR uni040D
ENCODING 1037
SWIDTH 705 0
DWIDTH 8 0
BBX 9 12 0 0
BITMAP
003000
002400
000000
0B8780
278B40
975F40
9B3B00
0F6F00
0ECE00
1F5D00
1E2D00
2D2C00
ENDCHAR
STARTCHAR uni040E
ENCODING 1038
SWIDTH 644 0
DWIDTH 8 0
BBX 9 11 0 0
BITMAP
00A200
006900
0BC140
22D200
91D600
91E800
00F800
00B400
006000
065000
078000
ENDCHAR
STARTCHAR uni040F
ENCODING 1039
SWIDTH 665 0
DWIDTH 8 0
BBX 9 13 0 -4
BITMAP
0B8B40
278B00
974E00
9B0E00
0F1D00
0E2C00
1D2C00
1D3800
2FF800
020000
074000
038000
020000
ENDCHAR
STARTCHAR uni0410
ENCODING 1040
SWIDTH 668 0
DWIDTH 8 0
BBX 9 11 0 -2
BITMAP
001B40
005B00
018E00
2B9E00
AA2D00
5D2C00
1C2C00
283800
387800
340000
140000
ENDCHAR
STARTCHAR uni0411
ENCODING 1041
SWIDTH 638 0
DWIDTH 8 0
BBX 8 9 0 0
BITMAP
17A9
5740
9B00
DF00
5FA4
1E2C
1D2C
2C38
3DA0
ENDCHAR
STARTCHAR uni0412
ENCODING 1042
SWIDTH 641 0
DWIDTH 8 0
BBX 8 9 0 0
BITMAP
0AB4
765C
9768
9BF8
0A2C
0E1D
1D1C
1D28
2DA0
ENDCHAR
STARTCHAR uni0413
ENCODING 1043
SWIDTH 400 0
DWIDTH 5 0
BBX 8 9 0 0
BITMAP
17A9
6740
9740
5B00
0E00
0E00
1D00
1D00
2C00
ENDCHAR
STARTCHAR uni0414
ENCODING 1044
SWIDTH 669 0
DWIDTH 8 0
BBX 9 9 -1 0
BITMAP
02A900
1D9740
25D380
26C380
03C380
038340
2F4700
5B4E00
2EB800
ENDCHAR
STARTCHAR uni0415
ENCODING 1045
SWIDTH 459 0
DWIDTH 6 0
BBX 6 9 0 0
BITMAP
0790
0D30
1C60
1D00
1E00
7800
F400
B410
7E40
ENDCHAR
STARTCHAR uni0416
ENCODING 1046
SWIDTH 777 0
DWIDTH 9 0
BBX 10 9 0 0
BITMAP
2D25E0
2A77A0
02B900
02F800
1EFF00
39D740
75D700
B2CB00
E38B00
ENDCHAR
STARTCHAR uni0417
ENCODING 1047
SWIDTH 525 0
DWIDTH 6 0
BBX 6 9 0 0
BITMAP
0AD0
10F0
01E0
0B80
02D0
01E0
91E0
C2C0
AA40
ENDCHAR
STARTCHAR uni0418
ENCODING 1048
SWIDTH 705 0
DWIDTH 8 0
BBX 9 9 0 0
BITMAP
0B8780
278B40
975F40
9B3B00
0F6F00
0ECE00
1F5D00
1E2D00
2D2C00
ENDCHAR
STARTCHAR uni0419
ENCODING 1049
SWIDTH 705 0
DWIDTH 8 0
BBX 9 11 0 0
BITMAP
00A200
006800
0B8780
278B40
975F40
9B3B00
0F6F00
0ECE00
1F5D00
1E2D00
2D2C00
ENDCHAR
STARTCHAR uni041A
ENCODING 1050
SWIDTH 635 0
DWIDTH 8 0
BBX 8 9 0 0
BITMAP
0B8B
27AA
A7A0
9B80
5BA4
0E38
1D74
1D70
2C70
ENDCHAR
STARTCHAR uni041B
ENCODING 1051
SWIDTH 549 0
DWIDTH 7 0
BBX 8 11 -1 -2
BITMAP
001E
009E
019D
032D
0A2C
1C38
2838
3474
74B0
7000
1000
ENDCHAR
STARTCHAR uni041C
ENCODING 1052
SWIDTH 787 0
DWIDTH 9 0
BBX 9 9 1 0
BITMAP
1B8780
674B40
CB4F40
DF6F00
2B7B00
37AF00
67DE00
978E00
C75D00
ENDCHAR
STARTCHAR uni041D
ENCODING 1053
SWIDTH 665 0
DWIDTH 8 0
BBX 9 9 0 0
BITMAP
0B8B40
3B8B00
A74E00
9B4E00
5BFD00
0E1C00
1E2C00
1D3800
2C7800
ENDCHAR
STARTCHAR uni041E
ENCODING 1054
SWIDTH 665 0
DWIDTH 8 0
BBX 8 9 0 0
BITMAP
06A8
258E
A74A
9E0A
1D0E
2D1D
2C2C
2D74
0B90
ENDCHAR
STARTCHAR uni041F
ENCODING 1055
SWIDTH 688 0
DWIDTH 8 0
BBX 10 9 0 0
BITMAP
1BE410
7BAF80
974F00
9B0E00
4B1D00
0E2D00
1D2C00
1D3800
2C7800
ENDCHAR
STARTCHAR uni0420
ENCODING 1056
SWIDTH 573 0
DWIDTH 7 0
BBX 7 9 0 0
BITMAP
0AA4
765C
975C
DB1C
0F34
0E40
1D00
2D00
2C00
ENDCHAR
STARTCHAR uni0421
ENCODING 1057
SWIDTH 497 0
DWIDTH 6 0
BBX 7 9 0 0
BITMAP
07A0
1E24
3C24
7800
B400
B400
B400
B410
2E80
ENDCHAR
STARTCHAR uni0422
ENCODING 1058
SWIDTH 481 0
DWIDTH 6 0
BBX 9 9 0 0
BITMAP
1AE440
62EA00
92C000
D38000
078000
074000
0B0000
0B0000
0E0000
ENDCHAR
STARTCHAR uni0423
ENCODING 1059
SWIDTH 644 0
DWIDTH 8 0
BBX 9 9 0 0
BITMAP
0BC140
22D200
91D600
91E800
00F800
00B400
006000
065000
078000
ENDCHAR
STARTCHAR uni0424
ENCODING 1060
SWIDTH 786 0
DWIDTH 9 0
BBX 9 10 0 0
BITMAP
06A400
187400
04B400
19F740
74E2C0
B1E2C0
B1D380
76CB40
1BE900
038000
ENDCHAR
STARTCHAR uni0425
ENCODING 1061
SWIDTH 620 0
DWIDTH 7 0
BBX 8 9 0 0
BITMAP
0BC9
63D8
92F0
D1E0
01E0
01F0
02B0
09B4
0878
ENDCHAR
STARTCHAR uni0426
ENCODING 1062
SWIDTH 692 0
DWIDTH 8 0
BBX 9 11 0 -2
BITMAP
0B8B40
678B00
974E00
9B0E00
0F1D00
0E2C00
1D2C00
1D3800
2FB800
01BA40
001F00
ENDCHAR
STARTCHAR uni0427
ENCODING 1063
SWIDTH 695 0
DWIDTH 8 0
BBX 9 9 0 0
BITMAP
0B8380
278740
A74B00
9B4B00
574E00
001E00
001D00
002C00
003C00
ENDCHAR
STARTCHAR uni0428
ENCODING 1064
SWIDTH 906 0
DWIDTH 11 0
BBX 11 9 0 0
BITMAP
0B8F2C
278E3C
975D38
9B2D74
0F2C74
0E38B0
1D38F0
1D74E0
2FFFD0
ENDCHAR
STARTCHAR uni0429
ENCODING 1065
SWIDTH 934 0
DWIDTH 11 0
BBX 12 11 0 -2
BITMAP
0B8F2C
278E3C
975D38
9B2D74
0F2C74
0E38B0
1D38F0
1D74E0
2FF5D0
006FE9
0001BC
ENDCHAR
STARTCHAR uni042A
ENCODING 1066
SWIDTH 714 0
DWIDTH 9 0
BBX 8 9 0 0
BITMAP
0AE0
21D0
92D0
92C0
53E9
078B
074B
0B4A
0B68
ENDCHAR
STARTCHAR uni042B
ENCODING 1067
SWIDTH 909 0
DWIDTH 11 0
BBX 11 9 0 0
BITMAP
0B802C
27802C
A74038
9B4078
5BA474
0E2CB0
1E1DF0
1D2CE0
2DA5D0
ENDCHAR
STARTCHAR uni042C
ENCODING 1068
SWIDTH 640 0
DWIDTH 8 0
BBX 8 9 0 0
BITMAP
0B80
2780
A740
9B40
5BA4
0E2C
1E1D
1D2C
2DA4
ENDCHAR
STARTCHAR uni042D
ENCODING 1069
SWIDTH 544 0
DWIDTH 7 0
BBX 7 9 0 0
BITMAP
0AD0
10B4
00B4
0AF4
00F4
00F0
91E0
C3C0
AA00
ENDCHAR
STARTCHAR uni042E
ENCODING 1070
SWIDTH 946 0
DWIDTH 11 0
BBX 12 9 0 0
BITMAP
0B86A4
27862C
A74E1D
9B5D1D
5BF82C
0E3838
1E7474
1D78A0
2C2F80
ENDCHAR
STARTCHAR uni042F
ENCODING 1071
SWIDTH 630 0
DWIDTH 8 0
BBX 9 9 0 0
BITMAP
06A900
1D6740
28B200
1CF000
1FE000
39D000
72D000
B2C000
E38000
ENDCHAR
STARTCHAR uni0430
ENCODING 1072
SWIDTH 526 0
DWIDTH 6 0
BBX 7 6 0 0
BITMAP
1EE0
75D0
F1D0
E2C0
E7D4
BAE0
ENDCHAR
STARTCHAR uni0431
ENCODING 1073
SWIDTH 430 0
DWIDTH 5 0
BBX 7 9 0 0
BITMAP
0BF8
0FF0
0600
1B40
7580
F180
E240
E300
B900
ENDCHAR
STARTCHAR uni0432
ENCODING 1074
SWIDTH 449 0
DWIDTH 5 0
BBX 7 9 0 0
BITMAP
0B40
1C80
3880
7580
B240
E7A4
E180
E240
7A00
ENDCHAR
STARTCHAR uni0433
ENCODING 1075
SWIDTH 375 0
DWIDTH 5 0
BBX 6 6 -1 0
BITMAP
0B80
22C0
0B80
2E00
7810
2E40
ENDCHAR
STARTCHAR uni0434
ENCODING 1076
SWIDTH 507 0
DWIDTH 6 0
BBX 7 9 0 -3
BITMAP
1EE0
75D0
F1D0
E2C0
E384
BBA0
1B40
2B00
2D00
ENDCHAR
STARTCHAR uni0435
ENCODING 1077
SWIDTH 384 0
DWIDTH 5 0
BBX 5 6 0 0
BITMAP
1F40
7640
F700
F900
E040
B900
ENDCHAR
STARTCHAR uni0436
ENCODING 1078
SWIDTH 882 0
DWIDTH 11 0
BBX 12 6 -1 0
BITMAP
1B5D7D
129DE4
02FEC0
137AC0
6739C1
6974A4
ENDCHAR
STARTCHAR uni0437
ENCODING 1079
SWIDTH 498 0
DWIDTH 6 0
BBX 7 9 0 -3
BITMAP
1B40
52C0
82C0
4740
1E14
0B50
1B40
6B00
2D00
ENDCHAR
STARTCHAR uni0438
ENCODING 1080
SWIDTH 505 0
DWIDTH 6 0
BBX 7 6 0 0
BITMAP
75D0
B6D0
B2C0
E380
E794
B6D0
ENDCHAR
STARTCHAR uni0439
ENCODING 1081
SWIDTH 505 0
DWIDTH 6 0
BBX 7 8 0 0
BITMAP
1C50
0A40
75D0
B6D0
B2C0
E380
E794
B6D0
ENDCHAR
STARTCHAR uni043A
ENCODING 1082
SWIDTH 501 0
DWIDTH 6 0
BBX 8 6 -1 0
BITMAP
1D68
1D40
2FD0
3CE0
38E5
74B4
ENDCHAR
STARTCHAR uni043B
ENCODING 1083
SWIDTH 558 0
DWIDTH 7 0
BBX 8 6 -1 0
BITMAP
00BC
0168
0238
0274
6575
6879
ENDCHAR
STARTCHAR uni043C
ENCODING 1084
SWIDTH 827 0
DWIDTH 10 0
BBX 11 6 -1 0
BITMAP
00B0B4
01B1F0
0272E0
0275E0
6579E8
2874B4
ENDCHAR
STARTCHAR uni043D
ENCODING 1085
SWIDTH 507 0
DWIDTH 6 0
BBX 8 6 -1 0
BITMAP
1D74
2D74
2EF0
38E0
38E5
74B4
ENDCHAR
STARTCHAR uni043E
ENCODING 1086
SWIDTH 439 0
DWIDTH 5 0
BBX 7 6 0 0
BITMAP
1E40
7594
F290
E240
E300
B900
ENDCHAR
STARTCHAR uni043F
ENCODING 1087
SWIDTH 505 0
DWIDTH 6 0
BBX 8 6 -1 0
BITMAP
1EE0
2DB0
2CB0
38E0
38E1
74B4
ENDCHAR
STARTCHAR uni0440
ENCODING 1088
SWIDTH 468 0
DWIDTH 6 0
BBX 7 10 -1 -3
BITMAP
0900
1EE0
2D74
2C74
38B0
39E0
7F80
B000
B000
9000
ENDCHAR
STARTCHAR uni0441
ENCODING 1089
SWIDTH 384 0
DWIDTH 5 0
BBX 5 6 0 0
BITMAP
1F40
7640
F000
E000
E040
B900
ENDCHAR
STARTCHAR uni0442
ENCODING 1090
SWIDTH 752 0
DWIDTH 9 0
BBX 11 6 -1 0
BITMAP
1EEB80
2DB6C0
2CB2C0
38E380
39E394
75D2D0
ENDCHAR
STARTCHAR uni0443
ENCODING 1091
SWIDTH 486 0
DWIDTH 6 0
BBX 6 9 0 -3
BITMAP
75D0
B6D0
B2C0
E380
E790
BB90
2F00
5F00
7D00
ENDCHAR
STARTCHAR uni0444
ENCODING 1092
SWIDTH 738 0
DWIDTH 9 0
BBX 9 12 0 -3
BITMAP
001000
00B000
00E000
1EEA00
75D740
F1C740
E2CB00
E38E00
BBF800
074000
0B0000
090000
ENDCHAR
STARTCHAR uni0445
ENCODING 1093
SWIDTH 522 0
DWIDTH 6 0
BBX 7 6 0 0
BITMAP
1E60
1B60
47C0
4740
1B84
62E0
ENDCHAR
STARTCHAR uni0446
ENCODING 1094
SWIDTH 535 0
DWIDTH 6 0
BBX 6 9 0 -3
BITMAP
75D0
B6D0
B2C0
E380
E780
B6E0
0050
1FC0
2A40
ENDCHAR
STARTCHAR uni0447
ENCODING 1095
SWIDTH 505 0
DWIDTH 6 0
BBX 7 6 0 0
BITMAP
75D0
B6D0
B7C0
7B84
03A4
02D0
ENDCHAR
STARTCHAR uni0448
ENCODING 1096
SWIDTH 752 0
DWIDTH 9 0
BBX 10 6 0 0
BITMAP
75D740
B6DB00
B2CB00
E38E00
E7AE50
B6DB40
ENDCHAR
STARTCHAR uni0449
ENCODING 1097
SWIDTH 782 0
DWIDTH 9 0
BBX 9 9 0 -3
BITMAP
75D740
B6DB00
B2CB00
E38E00
E7AE00
B6DB80
000140
00BF00
00A900
ENDCHAR
STARTCHAR uni044A
ENCODING 1098
SWIDTH 448 0
DWIDTH 5 0
BBX 5 6 0 0
BITMAP
AD00
E800
7B40
B2C0
E380
BA00
ENDCHAR
STARTCHAR uni044B
ENCODING 1099
SWIDTH 655 0
DWIDTH 8 0
BBX 8 6 0 0
BITMAP
741D
B07C
B768
E278
E77A
BD3D
ENDCHAR
STARTCHAR uni044C
ENCODING 1100
SWIDTH 448 0
DWIDTH 5 0
BBX 5 6 0 0
BITMAP
7400
7500
BB80
E2C0
E740
BE00
ENDCHAR
STARTCHAR uni044D
ENCODING 1101
SWIDTH 413 0
DWIDTH 5 0
BBX 6 6 -1 0
BITMAP
1B80
11D0
0BD0
02C0
9380
6A00
ENDCHAR
STARTCHAR uni044E
ENCODING 1102
SWIDTH 675 0
DWIDTH 8 0
BBX 11 6 -1 0
BITMAP
1D2E00
2DB694
2EE280
39E240
39D600
74B800
ENDCHAR
STARTCHAR uni044F
ENCODING 1103
SWIDTH 527 0
DWIDTH 6 0
BBX 8 6 -1 0
BITMAP
06B8
0D34
0D74
0BF0
66B1
78B8
ENDCHAR
STARTCHAR uni0450
ENCODING 1104
SWIDTH 384 0
DWIDTH 5 0
BBX 5 9 0 0
BITMAP
0D00
0500
0000
1F40
7640
F700
F900
E040
B900
ENDCHAR
STARTCHAR uni0451
ENCODING 1105
SWIDTH 384 0
DWIDTH 5 0
BBX 5 8 0 0
BITMAP
19C0
0000
1F40
7640
F700
F900
E040
B900
ENDCHAR
STARTCHAR uni0452
ENCODING 1106
SWIDTH 491 0
DWIDTH 6 0
BBX 7 12 -1 -3
BITMAP
0600
0E00
2F80
1D00
2EA0
2CB0
38E0
38E4
75E4
07C0
1680
1B40
ENDCHAR
STARTCHAR uni0453
ENCODING 1107
SWIDTH 375 0
DWIDTH 5 0
BBX 6 9 -1 0
BITMAP
0090
0180
0000
0B80
22C0
0B80
2E00
7810
2E40
ENDCHAR
STARTCHAR uni0454
ENCODING 1108
SWIDTH 384 0
DWIDTH 5 0
BBX 5 6 0 0
BITMAP
1F40
7540
F900
E000
E040
B900
ENDCHAR
STARTCHAR uni0455
ENCODING 1109
SWIDTH 382 0
DWIDTH 5 0
BBX 6 6 -1 0
BITMAP
0780
0B80
1780
2380
63D0
2E40
ENDCHAR
STARTCHAR uni0456
ENCODING 1110
SWIDTH 267 0
DWIDTH 3 0
BBX 4 8 0 0
BITMAP
28
28
74
B4
B0
E0
E5
B8
ENDCHAR
STARTCHAR uni0457
ENCODING 1111
SWIDTH 267 0
DWIDTH 3 0
BBX 4 8 0 0
BITMAP
96
00
74
B4
B0
E0
E5
B8
ENDCHAR
STARTCHAR uni0458
ENCODING 1112
SWIDTH 240 0
DWIDTH 3 0
BBX 6 11 -3 -3
BITMAP
00A0
00A0
01D0
01D0
02C0
03C0
0390
0790
1F40
5B00
6D00
ENDCHAR
STARTCHAR uni0459
ENCODING 1113
SWIDTH 745 0
DWIDTH 9 0
BBX 10 6 -1 0
BITMAP
00BC00
026D00
023ED0
0275D0
6575C0
682E40
ENDCHAR
STARTCHAR uni045A
ENCODING 1114
SWIDTH 694 0
DWIDTH 8 0
BBX 9 6 -1 0
BITMAP
1D7400
2D7900
2EF780
38E280
38E340
74B900
ENDCHAR
STARTCHAR uni045B
ENCODING 1115
SWIDTH 505 0
DWIDTH 6 0
BBX 8 9 -1 0
BITMAP
0600
0E00
2F80
1D00
2EA0
2CB0
38E0
38E1
74B4
ENDCHAR
STARTCHAR uni045C
ENCODING 1116
SWIDTH 501 0
DWIDTH 6 0
BBX 8 9 -1 0
BITMAP
0030
0090
0000
1D68
1D40
2FD0
3CE0
38E5
74B4
ENDCHAR
STARTCHAR uni045D
ENCODING 1117
SWIDTH 505 0
DWIDTH 6 0
BBX 7 9 0 0
BITMAP
0900
0600
0000
75D0
B6D0
B2C0
E380
E794
B6D0
ENDCHAR
STARTCHAR uni045E
ENCODING 1118
SWIDTH 486 0
DWIDTH 6 0
BBX 6 11 0 -3
BITMAP
1C50
0A40
75D0
B6D0
B2C0
E380
E790
BB90
2F00
5F00
7D00
ENDCHAR
STARTCHAR uni045F
ENCODING 1119
SWIDTH 505 0
DWIDTH 6 0
BBX 7 9 0 -3
BITMAP
75D0
B6D0
B2C0
E380
E794
B6D0
0800
0D00
0400
ENDCHAR
STARTCHAR uni0462
ENCODING 1122
SWIDTH 659 0
DWIDTH 8 0
BBX 8 9 0 0
BITMAP
0780
2F81
9BA8
DF00
5FA4
1E2C
1D2C
2C28
3DA0
ENDCHAR
STARTCHAR uni0463
ENCODING 1123
SWIDTH 692 0
DWIDTH 8 0
BBX 9 6 -1 0
BITMAP
1EE000
2DB000
2CBA40
38E280
38E380
74BA00
ENDCHAR
STARTCHAR uni046A
ENCODING 1130
SWIDTH 834 0
DWIDTH 10 0
BBX 10 9 0 0
BITMAP
06FAD0
29E080
70F200
60B900
16BE80
0D75D0
1CB6C0
2CB2C0
38E280
ENDCHAR
STARTCHAR uni046B
ENCODING 1131
SWIDTH 750 0
DWIDTH 9 0
BBX 7 6 1 0
BITMAP
6FB4
CB10
6BA4
B768
A778
DB34
ENDCHAR
STARTCHAR uni0472
ENCODING 1138
SWIDTH 665 0
DWIDTH 8 0
BBX 8 9 0 0
BITMAP
06A8
258E
A74A
9E0A
1EAE
2D1D
2C2C
2C74
0B90
ENDCHAR
STARTCHAR uni0473
ENCODING 1139
SWIDTH 439 0
DWIDTH 5 0
BBX 7 6 0 0
BITMAP
1E40
7594
F690
FB40
E700
BD00
ENDCHAR
STARTCHAR uni0474
ENCODING 1140
SWIDTH 668 0
DWIDTH 8 0
BBX 9 9 0 0
BITMAP
0B8280
638A00
938D00
D39800
03A400
03E000
03E000
03D000
03C000
ENDCHAR
STARTCHAR uni0475
ENCODING 1141
SWIDTH 414 0
DWIDTH 5 0
BBX 5 6 0 0
BITMAP
7580
B480
B180
E240
E600
B800
ENDCHAR
STARTCHAR uni0490
ENCODING 1168
SWIDTH 431 0
DWIDTH 5 0
BBX 8 10 0 0
BITMAP
0006
1BFD
6740
9B00
9B00
0E00
1E00
1D00
2C00
2C00
ENDCHAR
STARTCHAR uni0491
ENCODING 1169
SWIDTH 342 0
DWIDTH 4 0
BBX 6 7 -1 0
BITMAP
0090
1F80
2D00
2C00
3800
3800
7400
ENDCHAR
STARTCHAR uni0492
ENCODING 1170
SWIDTH 400 0
DWIDTH 5 0
BBX 8 9 0 0
BITMAP
17E9
6740
9740
9B00
5B00
2F80
1E00
1D00
2C00
ENDCHAR
STARTCHAR uni0493
ENCODING 1171
SWIDTH 375 0
DWIDTH 5 0
BBX 6 6 -1 0
BITMAP
1B80
13C0
2F90
3C00
7850
2E40
ENDCHAR
STARTCHAR uni0494
ENCODING 1172
SWIDTH 665 0
DWIDTH 8 0
BBX 8 9 0 0
BITMAP
17E9
6740
9740
9B40
5FB8
0E1D
1E1D
1D2C
2DA0
ENDCHAR
STARTCHAR uni0495
ENCODING 1173
SWIDTH 486 0
DWIDTH 6 0
BBX 7 9 -1 -3
BITMAP
1EA0
1C00
2ED0
3DE0
38D4
75E4
0BC0
1680
1B40
ENDCHAR
STARTCHAR uni0496
ENCODING 1174
SWIDTH 777 0
DWIDTH 9 0
BBX 10 12 0 -3
BITMAP
2D25E0
2A77A0
02B900
02F800
1EFF00
39D740
75D700
B2CB00
E38B00
000900
000E00
000700
ENDCHAR
STARTCHAR uni0497
ENCODING 1175
SWIDTH 882 0
DWIDTH 11 0
BBX 12 9 -1 -3
BITMAP
1B5D7D
129DE4
02FEC0
137AC0
6739C1
6974F4
000060
0000B0
000010
ENDCHAR
STARTCHAR uni0498
ENCODING 1176
SWIDTH 525 0
DWIDTH 6 0
BBX 6 13 0 -4
BITMAP
0AD0
10F0
01E0
0B80
02D0
01E0
91E0
C2C0
AA00
1C00
1D00
0900
0400
ENDCHAR
STARTCHAR uni0499
ENCODING 1177
SWIDTH 498 0
DWIDTH 6 0
BBX 7 12 0 -6
BITMAP
1B40
52C0
82C0
4740
1E14
0B50
1B40
5B00
3D00
2400
3800
1000
ENDCHAR
STARTCHAR uni049A
ENCODING 1178
SWIDTH 635 0
DWIDTH 8 0
BBX 8 13 0 -4
BITMAP
0B8B
27AA
A7A0
9B80
5BA4
0E38
1D74
1D70
2CB0
0060
0074
0034
0010
ENDCHAR
STARTCHAR uni049B
ENCODING 1179
SWIDTH 501 0
DWIDTH 6 0
BBX 8 9 -1 -3
BITMAP
1D68
1D40
2FD0
3CE0
38E5
74B4
0060
00B0
0010
ENDCHAR
STARTCHAR uni049C
ENCODING 1180
SWIDTH 721 0
DWIDTH 9 0
BBX 9 9 0 0
BITMAP
0B82C0
774E80
97A800
9BF000
0A6C00
0E2C00
1D2C00
1D3800
2C3800
ENDCHAR
STARTCHAR uni049D
ENCODING 1181
SWIDTH 551 0
DWIDTH 7 0
BBX 8 6 -1 0
BITMAP
1D1D
1E80
2EF0
3E74
3976
747D
ENDCHAR
STARTCHAR uni04A0
ENCODING 1184
SWIDTH 691 0
DWIDTH 8 0
BBX 9 9 0 0
BITMAP
1AD780
62D980
92E000
D3E000
47F800
075D00
0B6C00
0B2800
0E2800
ENDCHAR
STARTCHAR uni04A1
ENCODING 1185
SWIDTH 676 0
DWIDTH 8 0
BBX 9 6 0 0
BITMAP
6B4A00
D76600
CBE400
0B7800
0E3940
1D2E00
ENDCHAR
STARTCHAR uni04A2
ENCODING 1186
SWIDTH 665 0
DWIDTH 8 0
BBX 9 11 0 -2
BITMAP
0B8B40
278B00
A74E00
9B4E00
5BFD00
0E1C00
1E2C00
1D3800
2C7800
001F40
000B00
ENDCHAR
STARTCHAR uni04A3
ENCODING 1187
SWIDTH 507 0
DWIDTH 6 0
BBX 8 9 -1 -3
BITMAP
1D74
2D74
2EF0
38E0
38E5
74B4
0060
00B0
0010
ENDCHAR
STARTCHAR uni04A4
ENCODING 1188
SWIDTH 689 0
DWIDTH 8 0
BBX 11 9 0 0
BITMAP
0787A8
278B00
974E00
9B4D00
5FFD00
0E1C00
1E2C00
1D3800
2C7800
ENDCHAR
STARTCHAR uni04A5
ENCODING 1189
SWIDTH 681 0
DWIDTH 8 0
BBX 9 6 -1 0
BITMAP
1D7A80
2D7000
2EF000
38E000
38E500
74B400
ENDCHAR
STARTCHAR uni04AA
ENCODING 1194
SWIDTH 497 0
DWIDTH 6 0
BBX 7 13 0 -4
BITMAP
07A0
1E24
3C24
7800
B400
B400
B400
B410
7E90
0D00
0E00
0700
0100
ENDCHAR
STARTCHAR uni04AB
ENCODING 1195
SWIDTH 384 0
DWIDTH 5 0
BBX 5 9 0 -3
BITMAP
1F40
7640
F000
E000
E140
BD00
2000
3800
1000
ENDCHAR
STARTCHAR uni04AE
ENCODING 1198
SWIDTH 620 0
DWIDTH 7 0
BBX 8 9 0 0
BITMAP
0BC2
63C2
92D5
D1E8
00F4
00F0
00E0
01E0
02D0
ENDCHAR
STARTCHAR uni04AF
ENCODING 1199
SWIDTH 480 0
DWIDTH 6 0
BBX 6 9 0 -3
BITMAP
7490
7850
3880
3980
3E00
2D00
3800
7800
5000
ENDCHAR
STARTCHAR uni04B0
ENCODING 1200
SWIDTH 620 0
DWIDTH 7 0
BBX 8 9 0 0
BITMAP
0BC2
63C2
92D5
D1E8
00F4
02F8
00E0
01E0
02D0
ENDCHAR
STARTCHAR uni04B1
ENCODING 1201
SWIDTH 480 0
DWIDTH 6 0
BBX 6 9 0 -3
BITMAP
7490
7850
3880
3980
3E00
BE00
3800
7800
5000
ENDCHAR
STARTCHAR uni04B6
ENCODING 1206
SWIDTH 695 0
DWIDTH 8 0
BBX 9 11 0 -2
BITMAP
0B8380
278740
A74B00
9B4B00
574E00
001E00
001D00
002C00
003C00
000B80
000740
ENDCHAR
STARTCHAR uni04B7
ENCODING 1207
SWIDTH 505 0
DWIDTH 6 0
BBX 7 9 0 -3
BITMAP
75D0
B6D0
B7C0
7B84
0394
02D0
0180
02C0
0040
ENDCHAR
STARTCHAR uni04B8
ENCODING 1208
SWIDTH 715 0
DWIDTH 9 0
BBX 9 9 0 0
BITMAP
0B8380
378380
974740
9B0B40
07AF00
004E00
001E00
001D00
002C00
ENDCHAR
STARTCHAR uni04B9
ENCODING 1209
SWIDTH 545 0
DWIDTH 7 0
BBX 7 6 0 0
BITMAP
74F0
B5E0
BAD0
7ED4
0AD8
01E0
ENDCHAR
STARTCHAR uni04BA
ENCODING 1210
SWIDTH 679 0
DWIDTH 8 0
BBX 8 9 0 0
BITMAP
0B80
7780
9740
9B00
0F1C
0E1D
1D1D
1D2C
2C3C
ENDCHAR
STARTCHAR uni04BB
ENCODING 1211
SWIDTH 505 0
DWIDTH 6 0
BBX 8 9 -1 0
BITMAP
0100
0F00
0E00
1EE0
1DB0
2CB0
38E0
38E1
74B4
ENDCHAR
STARTCHAR uni04C0
ENCODING 1216
SWIDTH 375 0
DWIDTH 5 0
BBX 5 9 0 0
BITMAP
0B80
6740
9740
DB00
0E00
0E00
1D00
2D00
2C00
ENDCHAR
STARTCHAR uni04C1
ENCODING 1217
SWIDTH 777 0
DWIDTH 9 0
BBX 10 11 0 0
BITMAP
00D200
00A800
2D25E0
2A77A0
02B900
02F800
1EFF00
39D740
75D700
B2CB00
E38B00
ENDCHAR
STARTCHAR uni04C2
ENCODING 1218
SWIDTH 882 0
DWIDTH 11 0
BBX 12 8 -1 0
BITMAP
003480
001A00
1B5D7D
129DE4
02FEC0
137AC0
6739C1
6974A4
ENDCHAR
STARTCHAR uni04CB
ENCODING 1227
SWIDTH 695 0
DWIDTH 8 0
BBX 9 10 0 -1
BITMAP
0B8380
674740
974B00
9B4F00
07EE00
001E00
001D00
002C00
007C00
0B8000
ENDCHAR
STARTCHAR uni04CC
ENCODING 1228
SWIDTH 516 0
DWIDTH 6 0
BBX 7 9 0 -3
BITMAP
39E0
75D0
B6C0
7BC4
0394
02E0
0140
3F00
A900
ENDCHAR
STARTCHAR uni04CF
ENCODING 1231
SWIDTH 267 0
DWIDTH 3 0
BBX 4 8 0 0
BITMAP
2C
38
74
74
B0
F0
E5
B8
ENDCHAR
STARTCHAR uni04D0
ENCODING 1232
SWIDTH 668 0
DWIDTH 8 0
BBX 10 13 0 -2
BITMAP
001C50
000A40
001B40
005B00
018E00
2B9E00
AA2D00
5D2C00
1C2C00
283800
387800
340000
140000
ENDCHAR
STARTCHAR uni04D1
ENCODING 1233
SWIDTH 526 0
DWIDTH 6 0
BBX 7 8 0 0
BITMAP
0A20
0680
1EE0
75D0
F1D0
E2C0
E7D4
BAE0
ENDCHAR
STARTCHAR uni04D2
ENCODING 1234
SWIDTH 668 0
DWIDTH 8 0
BBX 10 13 0 -2
BITMAP
000D90
000000
001B40
005B00
018E00
2B9E00
AA2D00
5D2C00
1C2C00
283800
387800
340000
140000
ENDCHAR
STARTCHAR uni04D3
ENCODING 1235
SWIDTH 526 0
DWIDTH 6 0
BBX 7 8 0 0
BITMAP
0A60
0000
1EE0
75D0
F1D0
E2C0
E7D4
BAE0
ENDCHAR
STARTCHAR uni04D4
ENCODING 1236
SWIDTH 764 0
DWIDTH 9 0
BBX 11 11 0 -2
BITMAP
001B44
005BA4
018F00
2B9E00
AA2FD0
9D2D00
1C2C00
283800
387E90
340000
140000
ENDCHAR
STARTCHAR uni04D5
ENCODING 1237
SWIDTH 650 0
DWIDTH 8 0
BBX 8 6 0 0
BITMAP
1BBD
02E6
6BD9
F3E4
E7C1
BAE8
ENDCHAR
STARTCHAR uni04D6
ENCODING 1238
SWIDTH 459 0
DWIDTH 6 0
BBX 7 11 0 0
BITMAP
0714
0290
0790
0D30
1C60
1D00
1E00
7800
F400
B410
7E40
ENDCHAR
STARTCHAR uni04D7
ENCODING 1239
SWIDTH 384 0
DWIDTH 5 0
BBX 5 8 0 0
BITMAP
2880
1A40
1F40
7640
F700
F900
E040
B900
ENDCHAR
STARTCHAR uni04D8
ENCODING 1240
SWIDTH 544 0
DWIDTH 7 0
BBX 7 9 0 0
BITMAP
1BD0
25F0
00B4
00B4
06F4
28F0
B1E0
A280
7A00
ENDCHAR
STARTCHAR uni04D9
ENCODING 1241
SWIDTH 404 0
DWIDTH 5 0
BBX 5 6 0 0
BITMAP
6E00
0780
1B80
A740
CE00
B800
ENDCHAR
STARTCHAR uni04DC
ENCODING 1244
SWIDTH 777 0
DWIDTH 9 0
BBX 10 11 0 0
BITMAP
00A600
000000
2D25E0
2A77A0
02B900
02F800
1EFF00
39D740
75D700
B2CB00
E38B00
ENDCHAR
STARTCHAR uni04DD
ENCODING 1245
SWIDTH 882 0
DWIDTH 11 0
BBX 12 8 -1 0
BITMAP
002580
000000
1B5D7D
129DE4
02FEC0
137AC0
6739C1
6974A4
ENDCHAR
STARTCHAR uni04DE
ENCODING 1246
SWIDTH 525 0
DWIDTH 6 0
BBX 6 11 0 0
BITMAP
0730
0000
0AD0
10F0
01E0
0B80
02D0
01E0
91E0
C2C0
AA40
ENDCHAR
STARTCHAR uni04DF
ENCODING 1247
SWIDTH 498 0
DWIDTH 6 0
BBX 7 11 0 -3
BITMAP
0CD0
0000
1B40
52C0
82C0
4740
1E14
0B50
1B40
6B00
2D00
ENDCHAR
STARTCHAR uni04E2
ENCODING 1250
SWIDTH 705 0
DWIDTH 8 0
BBX 9 11 0 0
BITMAP
00AA00
000000
0B8780
278B40
975F40
9B3B00
0F6F00
0ECE00
1F5D00
1E2D00
2D2C00
ENDCHAR
STARTCHAR uni04E3
ENCODING 1251
SWIDTH 505 0
DWIDTH 6 0
BBX 7 8 0 0
BITMAP
1A90
0000
75D0
B6D0
B2C0
E380
E794
B6D0
ENDCHAR
STARTCHAR uni04E4
ENCODING 1252
SWIDTH 705 0
DWIDTH 8 0
BBX 9 11 0 0
BITMAP
006600
000000
0B8780
278B40
975F40
9B3B00
0F6F00
0ECE00
1F5D00
1E2D00
2D2C00
ENDCHAR
STARTCHAR uni04E5
ENCODING 1253
SWIDTH 505 0
DWIDTH 6 0
BBX 7 8 0 0
BITMAP
0CD0
0000
75D0
B6D0
B2C0
E380
E794
B6D0
ENDCHAR
STARTCHAR uni04E6
ENCODING 1254
SWIDTH 665 0
DWIDTH 8 0
BBX 8 11 0 0
BITMAP
009A
0000
06A8
258E
A74A
9E0A
1D0E
2D1D
2C2C
2D74
0B90
ENDCHAR
STARTCHAR uni04E7
ENCODING 1255
SWIDTH 439 0
DWIDTH 5 0
BBX 7 8 0 0
BITMAP
0CD0
0000
1E40
7594
F290
E240
E300
B900
ENDCHAR
STARTCHAR uni04E8
ENCODING 1256
SWIDTH 665 0
DWIDTH 8 0
BBX 8 9 0 0
BITMAP
06A8
258E
A74A
9E0A
1EAE
2D1D
2C2C
2C74
0B90
ENDCHAR
STARTCHAR uni04E9
ENCODING 1257
SWIDTH 439 0
DWIDTH 5 0
BBX 7 6 0 0
BITMAP
1E40
7594
FBD0
E240
E300
B900
ENDCHAR
STARTCHAR uni04EE
ENCODING 1262
SWIDTH 644 0
DWIDTH 8 0
BBX 9 11 0 0
BITMAP
006A40
000000
0BC140
22D200
91D600
91E800
00F800
00B400
006000
065000
078000
ENDCHAR
STARTCHAR uni04EF
ENCODING 1263
SWIDTH 486 0
DWIDTH 6 0
BBX 6 11 0 -3
BITMAP
1A90
0000
75D0
B6D0
B2C0
E380
E790
BB90
2F00
5F00
7D00
ENDCHAR
STARTCHAR uni04F0
ENCODING 1264
SWIDTH 644 0
DWIDTH 8 0
BBX 9 11 0 0
BITMAP
006300
000000
0BC140
22D200
91D600
91E800
00F800
00B400
006000
065000
078000
ENDCHAR
STARTCHAR uni04F1
ENCODING 1265
SWIDTH 486 0
DWIDTH 6 0
BBX 6 11 0 -3
BITMAP
0CD0
0000
75D0
B6D0
B2C0
E380
E790
BB90
2F00
5F00
7D00
ENDCHAR
STARTCHAR uni04F2
ENCODING 1266
SWIDTH 644 0
DWIDTH 8 0
BBX 9 12 0 0
BITMAP
002640
002600
000000
0BC140
22D200
91D600
91E800
00F800
00B400
006000
065000
078000
ENDCHAR
STARTCHAR uni04F3
ENCODING 1267
SWIDTH 486 0
DWIDTH 6 0
BBX 6 12 0 -3
BITMAP
06A0
0880
0000
75D0
B6D0
B2C0
E380
E790
BB90
2F00
5F00
7D00
ENDCHAR
STARTCHAR uni04F4
ENCODING 1268
SWIDTH 695 0
DWIDTH 8 0
BBX 9 11 0 0
BITMAP
006700
000000
0B8380
278740
A74B00
9B4B00
574E00
001E00
001D00
002C00
003C00
ENDCHAR
STARTCHAR uni04F5
ENCODING 1269
SWIDTH 505 0
DWIDTH 6 0
BBX 7 8 0 0
BITMAP
1CC0
0000
75D0
B6D0
B7C0
7B84
03A4
02D0
ENDCHAR
STARTCHAR uni04F6
ENCODING 1270
SWIDTH 442 0
DWIDTH 5 0
BBX 8 11 0 -2
BITMAP
17A9
6740
9740
5B00
0E00
0E00
1D00
1D00
2D00
0B80
0380
ENDCHAR
STARTCHAR uni04F7
ENCODING 1271
SWIDTH 375 0
DWIDTH 5 0
BBX 6 9 -1 -3
BITMAP
0B80
22C0
0B80
2D00
7850
2E40
0800
1D00
0400
ENDCHAR
STARTCHAR uni04F8
ENCODING 1272
SWIDTH 909 0
DWIDTH 11 0
BBX 11 11 0 0
BITMAP
000CD0
000000
0B802C
27802C
A74038
9B4078
5BA474
0E2CB0
1E1DF0
1D2CE0
2DA5D0
ENDCHAR
STARTCHAR uni04F9
ENCODING 1273
SWIDTH 642 0
DWIDTH 8 0
BBX 8 8 0 0
BITMAP
0620
0110
7418
707C
B678
E274
E776
BD3D
ENDCHAR
STARTCHAR uni051A
ENCODING 1306
SWIDTH 665 0
DWIDTH 8 0
BBX 8 11 0 -2
BITMAP
06A8
258E
A74A
9F0A
5D0E
2D1D
2C2C
2EB4
0BE0
007C
0014
ENDCHAR
STARTCHAR uni051B
ENCODING 1307
SWIDTH 486 0
DWIDTH 6 0
BBX 6 9 0 -3
BITMAP
1EE0
75D0
F1D0
E2C0
E380
BB80
0740
0B00
0A00
ENDCHAR
STARTCHAR uni051C
ENCODING 1308
SWIDTH 962 0
DWIDTH 12 0
BBX 13 9 0 0
BITMAP
0B82C240
6383C200
9387C500
D38BC800
038AC800
03D6D400
03E2E000
03D2E000
03C2D000
ENDCHAR
STARTCHAR uni051D
ENCODING 1309
SWIDTH 661 0
DWIDTH 8 0
BBX 8 6 0 0
BITMAP
75D6
B6D2
B2C6
E389
E798
B6E0
ENDCHAR
STARTCHAR uni0524
ENCODING 1316
SWIDTH 742 0
DWIDTH 9 0
BBX 10 11 0 -2
BITMAP
1BAF90
674B00
974E00
5B1D00
0E1D00
0E2C00
1D3C00
1D3800
2C7800
001F40
000B00
ENDCHAR
STARTCHAR uni0525
ENCODING 1317
SWIDTH 505 0
DWIDTH 6 0
BBX 8 9 -1 -3
BITMAP
1EE0
2DB0
2CB0
38E0
38E5
74B4
0060
00B0
0010
ENDCHAR
STARTCHAR uni1E0C
ENCODING 7692
SWIDTH 663 0
DWIDTH 8 0
BBX 8 12 0 -3
BITMAP
0AA4
755D
974E
DB0E
4F0E
0E1D
1D2C
2D38
2EE0
0000
0600
0B00
ENDCHAR
STARTCHAR uni1E0D
ENCODING 7693
SWIDTH 525 0
DWIDTH 6 0
BBX 7 12 0 -3
BITMAP
0010
00B0
00F0
1EE0
75D0
F1D0
E2C0
E3C4
BAE0
0000
2800
2800
ENDCHAR
STARTCHAR uni1E20
ENCODING 7712
SWIDTH 578 0
DWIDTH 7 0
BBX 7 13 0 -2
BITMAP
02A8
0000
06A4
2D18
7828
B400
B024
B074
74B0
2AA0
19D0
32C0
2A40
ENDCHAR
STARTCHAR uni1E21
ENCODING 7713
SWIDTH 507 0
DWIDTH 6 0
BBX 7 11 0 -3
BITMAP
0A90
0000
1EE0
75D0
F1D0
E2C0
E384
BBA0
1B40
2B00
2D00
ENDCHAR
STARTCHAR uni1E24
ENCODING 7716
SWIDTH 665 0
DWIDTH 8 0
BBX 9 12 0 -3
BITMAP
0B8B40
3B8B00
A74E00
9B4E00
5BFD00
0E1C00
1E2C00
1D3800
2C7800
000000
064000
074000
ENDCHAR
STARTCHAR uni1E25
ENCODING 7717
SWIDTH 505 0
DWIDTH 6 0
BBX 8 12 -1 -3
BITMAP
0100
0F00
0E00
1EE0
1DB0
2CB0
38E0
38E1
74B4
0000
0A00
0E00
ENDCHAR
STARTCHAR uni1E2A
ENCODING 7722
SWIDTH 665 0
DWIDTH 8 0
BBX 9 12 0 -3
BITMAP
0B8B40
3B8B00
A74E00
9B4E00
5BFD00
0E1C00
1E2C00
1D3800
2C7800
000000
185000
0A8000
ENDCHAR
STARTCHAR uni1E2B
ENCODING 7723
SWIDTH 505 0
DWIDTH 6 0
BBX 8 12 -1 -3
BITMAP
0100
0F00
0E00
1EE0
1DB0
2CB0
38E0
38E1
74B4
0000
2080
1A40
ENDCHAR
STARTCHAR uni1E36
ENCODING 7734
SWIDTH 379 0
DWIDTH 5 0
BBX 8 12 0 -3
BITMAP
0B80
6740
9740
9B00
0E00
0E00
1D00
2C00
2D00
0790
24BE
382D
ENDCHAR
STARTCHAR uni1E37
ENCODING 7735
SWIDTH 293 0
DWIDTH 4 0
BBX 4 11 0 -3
BITMAP
1D
2C
38
38
74
B0
B2
78
00
90
E0
ENDCHAR
STARTCHAR uni1E42
ENCODING 7746
SWIDTH 787 0
DWIDTH 9 0
BBX 9 12 1 -3
BITMAP
1B8780
674B40
CB4F40
DF6F00
2B7B00
37AF00
67DE00
978E00
C75D00
000000
0A0000
0A0000
ENDCHAR
STARTCHAR uni1E43
ENCODING 7747
SWIDTH 752 0
DWIDTH 9 0
BBX 11 9 -1 -3
BITMAP
1EEB80
2DB6C0
2CB2C0
38E380
39E394
75D2D0
000000
028000
02C000
ENDCHAR
STARTCHAR uni1E44
ENCODING 7748
SWIDTH 668 0
DWIDTH 8 0
BBX 9 12 0 0
BITMAP
001800
001D00
000000
1B8280
67C340
97D300
DAD700
1DE600
0CB900
18BD00
287C00
243800
ENDCHAR
STARTCHAR uni1E45
ENCODING 7749
SWIDTH 505 0
DWIDTH 6 0
BBX 8 9 -1 0
BITMAP
00D0
0090
0000
1EE0
2DB0
2CB0
38E0
38E1
74B4
ENDCHAR
STARTCHAR uni1E46
ENCODING 7750
SWIDTH 668 0
DWIDTH 8 0
BBX 9 12 0 -3
BITMAP
1B8280
67C340
97D300
DAD700
1DE600
0CB900
18BD00
287C00
243800
000000
024000
074000
ENDCHAR
STARTCHAR uni1E47
ENCODING 7751
SWIDTH 505 0
DWIDTH 6 0
BBX 8 9 -1 -3
BITMAP
1EE0
2DB0
2CB0
38E0
38E1
74B4
0000
0A00
0A00
ENDCHAR
STARTCHAR uni1E5A
ENCODING 7770
SWIDTH 601 0
DWIDTH 7 0
BBX 7 12 0 -3
BITMAP
0AA4
365C
975C
DB24
4FF4
0E38
1D74
2DB0
2CB0
0000
0600
0740
ENDCHAR
STARTCHAR uni1E5B
ENCODING 7771
SWIDTH 376 0
DWIDTH 5 0
BBX 6 9 -1 -3
BITMAP
1ED0
2D90
2C00
3800
3800
7400
0000
6000
7400
ENDCHAR
STARTCHAR uni1E60
ENCODING 7776
SWIDTH 570 0
DWIDTH 7 0
BBX 7 12 0 0
BITMAP
00A0
00A0
0000
06A0
0E28
0E24
0B40
02D0
28F0
70B0
70E0
2B80
ENDCHAR
STARTCHAR uni1E61
ENCODING 7777
SWIDTH 382 0
DWIDTH 5 0
BBX 6 9 -1 0
BITMAP
0280
0280
0000
0780
0B80
1780
2380
63D0
2E40
ENDCHAR
STARTCHAR uni1E62
ENCODING 7778
SWIDTH 570 0
DWIDTH 7 0
BBX 7 12 0 -3
BITMAP
06A0
0E28
0E24
0B40
02D0
28F0
70B0
70E0
2B80
0000
1800
1D00
ENDCHAR
STARTCHAR uni1E63
ENCODING 7779
SWIDTH 382 0
DWIDTH 5 0
BBX 6 9 -1 -3
BITMAP
0780
0B80
1780
2380
63D0
2E40
0000
2800
3800
ENDCHAR
STARTCHAR uni1E6C
ENCODING 7788
SWIDTH 481 0
DWIDTH 6 0
BBX 9 12 0 -3
BITMAP
1AE440
62EA00
92C000
D38000
078000
074000
0B0000
0B0000
0E0000
000000
190000
1D0000
ENDCHAR
STARTCHAR uni1E6D
ENCODING 7789
SWIDTH 267 0
DWIDTH 3 0
BBX 5 11 -1 -3
BITMAP
0A00
0E00
2F00
1D00
2C00
3800
3940
2E00
0000
6000
7400
ENDCHAR
STARTCHAR Wgrave
ENCODING 7808
SWIDTH 962 0
DWIDTH 12 0
BBX 13 12 0 0
BITMAP
00034000
00024000
00000000
0B82C240
6383C200
9387C500
D38BC800
038AC800
03D6D400
03E2E000
03D2E000
03C2D000
ENDCHAR
STARTCHAR wgrave
ENCODING 7809
SWIDTH 661 0
DWIDTH 8 0
BBX 8 9 0 0
BITMAP
0240
0180
0000
75D6
B6D2
B2C6
E389
E798
B6E0
ENDCHAR
STARTCHAR Wacute
ENCODING 7810
SWIDTH 962 0
DWIDTH 12 0
BBX 13 12 0 0
BITMAP
00007000
00009000
00004000
0B82C240
6383C200
9387C500
D38BC800
038AC800
03D6D400
03E2E000
03D2E000
03C2D000
ENDCHAR
STARTCHAR wacute
ENCODING 7811
SWIDTH 661 0
DWIDTH 8 0
BBX 8 9 0 0
BITMAP
0030
00A0
0040
75D6
B6D2
B2C6
E389
E798
B6E0
ENDCHAR
STARTCHAR Wdieresis
ENCODING 7812
SWIDTH 962 0
DWIDTH 12 0
BBX 13 11 0 0
BITMAP
00066000
00000000
0B82C240
6383C200
9387C500
D38BC800
038AC800
03D6D400
03E2E000
03D2E000
03C2D000
ENDCHAR
STARTCHAR wdieresis
ENCODING 7813
SWIDTH 661 0
DWIDTH 8 0
BBX 8 8 0 0
BITMAP
0730
0000
75D6
B6D2
B2C6
E389
E798
B6E0
ENDCHAR
STARTCHAR uni1E8E
ENCODING 7822
SWIDTH 620 0
DWIDTH 7 0
BBX 8 12 0 0
BITMAP
0018
001C
0000
0BC2
63C2
92D5
D1E8
00F4
00F0
00E0
01E0
02D0
ENDCHAR
STARTCHAR uni1E8F
ENCODING 7823
SWIDTH 505 0
DWIDTH 6 0
BBX 6 12 0 -3
BITMAP
0740
0640
0000
75D0
B6D0
B2C0
E380
E790
BB90
2F00
5F00
7D00
ENDCHAR
STARTCHAR uni1E92
ENCODING 7826
SWIDTH 542 0
DWIDTH 7 0
BBX 7 15 0 -3
BITMAP
0014
0030
0050
2AF4
34F0
02D0
03C0
0B40
0F00
2D00
3C70
BEA0
0000
1900
1D00
ENDCHAR
STARTCHAR uni1E93
ENCODING 7827
SWIDTH 428 0
DWIDTH 5 0
BBX 5 9 0 -3
BITMAP
2BC0
6740
0E00
2D00
3940
BA40
0000
6000
7400
ENDCHAR
STARTCHAR uni1E97
ENCODING 7831
SWIDTH 267 0
DWIDTH 3 0
BBX 4 10 0 0
BITMAP
77
14
38
38
BC
74
B0
E0
E5
B8
ENDCHAR
STARTCHAR uni1E9E
ENCODING 7838
SWIDTH 559 0
DWIDTH 7 0
BBX 8 12 -1 -3
BITMAP
02EF
075D
0B3C
0E74
1E74
1D38
2C2C
2C38
3AE0
7400
7400
5000
ENDCHAR
STARTCHAR uni1EA0
ENCODING 7840
SWIDTH 668 0
DWIDTH 8 0
BBX 9 12 0 -3
BITMAP
000B40
003F00
009A00
018E00
6B9D00
AA2D00
0D2C00
2C3800
287800
380000
159000
01D000
ENDCHAR
STARTCHAR uni1EA1
ENCODING 7841
SWIDTH 526 0
DWIDTH 6 0
BBX 7 9 0 -3
BITMAP
1EE0
75D0
F1D0
E2C0
E7D4
BAE0
0000
2800
2800
ENDCHAR
STARTCHAR uni1EA2
ENCODING 7842
SWIDTH 668 0
DWIDTH 8 0
BBX 9 14 0 -2
BITMAP
000680
000080
000200
001B40
005B00
018E00
2B9E00
AA2D00
5D2C00
1C2C00
283800
387800
340000
140000
ENDCHAR
STARTCHAR uni1EA3
ENCODING 7843
SWIDTH 526 0
DWIDTH 6 0
BBX 7 9 0 0
BITMAP
0290
0140
0000
1EE0
75D0
F1D0
E2C0
E7D4
BAE0
ENDCHAR
STARTCHAR uni1EA4
ENCODING 7844
SWIDTH 668 0
DWIDTH 8 0
BBX 10 14 0 -2
BITMAP
000020
0002A0
000440
001B40
005B00
018E00
2B9E00
AA2D00
5D2C00
1C2C00
283800
387800
340000
140000
ENDCHAR
STARTCHAR uni1EA5
ENCODING 7845
SWIDTH 526 0
DWIDTH 6 0
BBX 7 11 0 0
BITMAP
0004
0018
0190
0680
0000
1EE0
75D0
F1D0
E2C0
E7D4
BAE0
ENDCHAR
STARTCHAR uni1EA6
ENCODING 7846
SWIDTH 668 0
DWIDTH 8 0
BBX 10 14 0 -2
BITMAP
000060
000250
000440
001B40
005B00
018E00
2B9E00
AA2D00
5D2C00
1C2C00
283800
387800
340000
140000
ENDCHAR
STARTCHAR uni1EA7
ENCODING 7847
SWIDTH 526 0
DWIDTH 6 0
BBX 7 10 0 0
BITMAP
0020
0194
0680
0000
1EE0
75D0
F1D0
E2C0
E7D4
BAE0
ENDCHAR
STARTCHAR uni1EA8
ENCODING 7848
SWIDTH 668 0
DWIDTH 8 0
BBX 10 14 0 -2
BITMAP
000060
000260
000440
001B40
005B00
018E00
2B9E00
AA2D00
5D2C00
1C2C00
283800
387800
340000
140000
ENDCHAR
STARTCHAR uni1EA9
ENCODING 7849
SWIDTH 526 0
DWIDTH 6 0
BBX 7 10 0 0
BITMAP
0024
0194
0680
0000
1EE0
75D0
F1D0
E2C0
E7D4
BAE0
ENDCHAR
STARTCHAR uni1EAA
ENCODING 7850
SWIDTH 668 0
DWIDTH 8 0
BBX 10 14 0 -2
BITMAP
000790
000280
000440
001B40
005B00
018E00
2B9E00
AA2D00
5D2C00
1C2C00
283800
387800
340000
140000
ENDCHAR
STARTCHAR uni1EAB
ENCODING 7851
SWIDTH 526 0
DWIDTH 6 0
BBX 7 10 0 0
BITMAP
0190
0180
0680
0000
1EE0
75D0
F1D0
E2C0
E7D4
BAE0
ENDCHAR
STARTCHAR uni1EAC
ENCODING 7852
SWIDTH 668 0
DWIDTH 8 0
BBX 9 15 0 -3
BITMAP
000040
000680
000440
000B40
003F00
009A00
018E00
6B9D00
AA2D00
0D2C00
2C3800
287800
380000
159000
01D000
ENDCHAR
STARTCHAR uni1EAD
ENCODING 7853
SWIDTH 526 0
DWIDTH 6 0
BBX 7 12 0 -3
BITMAP
0180
0680
0400
1EE0
75D0
F1D0
E2C0
E7D4
BAE0
0000
2800
2800
ENDCHAR
STARTCHAR uni1EAE
ENCODING 7854
SWIDTH 668 0
DWIDTH 8 0
BBX 10 14 0 -2
BITMAP
000080
000990
000680
001B40
005B00
018E00
2B9E00
AA2D00
5D2C00
1C2C00
283800
387800
340000
140000
ENDCHAR
STARTCHAR uni1EAF
ENCODING 7855
SWIDTH 526 0
DWIDTH 6 0
BBX 7 10 0 0
BITMAP
0080
0180
0A90
0000
1EE0
75D0
F1D0
E2C0
E7D4
BAE0
ENDCHAR
STARTCHAR uni1EB0
ENCODING 7856
SWIDTH 668 0
DWIDTH 8 0
BBX 10 14 0 -2
BITMAP
000300
000A50
000680
001B40
005B00
018E00
2B9E00
AA2D00
5D2C00
1C2C00
283800
387800
340000
140000
ENDCHAR
STARTCHAR uni1EB1
ENCODING 7857
SWIDTH 526 0
DWIDTH 6 0
BBX 7 10 0 0
BITMAP
0200
0140
0A90
0000
1EE0
75D0
F1D0
E2C0
E7D4
BAE0
ENDCHAR
STARTCHAR uni1EB2
ENCODING 7858
SWIDTH 668 0
DWIDTH 8 0
BBX 10 14 0 -2
BITMAP
000240
000690
000A80
001B40
005B00
018E00
2B9E00
AA2D00
5D2C00
1C2C00
283800
387800
340000
140000
ENDCHAR
STARTCHAR uni1EB3
ENCODING 7859
SWIDTH 526 0
DWIDTH 6 0
BBX 7 10 0 0
BITMAP
0180
0180
0A90
0000
1EE0
75D0
F1D0
E2C0
E7D4
BAE0
ENDCHAR
STARTCHAR uni1EB4
ENCODING 7860
SWIDTH 668 0
DWIDTH 8 0
BBX 10 14 0 -2
BITMAP
000780
000850
000680
001B40
005B00
018E00
2B9E00
AA2D00
5D2C00
1C2C00
283800
387800
340000
140000
ENDCHAR
STARTCHAR uni1EB5
ENCODING 7861
SWIDTH 526 0
DWIDTH 6 0
BBX 7 10 0 0
BITMAP
0190
0000
0690
0000
1EE0
75D0
F1D0
E2C0
E7D4
BAE0
ENDCHAR
STARTCHAR uni1EB6
ENCODING 7862
SWIDTH 668 0
DWIDTH 8 0
BBX 10 14 0 -3
BITMAP
001860
000A80
000B40
003F00
009A00
018E00
6B9D00
AA2D00
0D2C00
2C3800
287800
380000
159000
01D000
ENDCHAR
STARTCHAR uni1EB7
ENCODING 7863
SWIDTH 526 0
DWIDTH 6 0
BBX 7 12 0 -3
BITMAP
0C30
0C60
0680
1EE0
75D0
F1D0
E2C0
E7D4
BAE0
0000
2800
2800
ENDCHAR
STARTCHAR uni1EB8
ENCODING 7864
SWIDTH 459 0
DWIDTH 6 0
BBX 6 12 0 -3
BITMAP
0790
0D30
1C60
1D00
1E00
7800
F400
B410
7E40
0000
2400
3800
ENDCHAR
STARTCHAR uni1EB9
ENCODING 7865
SWIDTH 384 0
DWIDTH 5 0
BBX 5 9 0 -3
BITMAP
1F40
7640
F700
F900
E040
B900
0000
6000
B000
ENDCHAR
STARTCHAR uni1EBA
ENCODING 7866
SWIDTH 459 0
DWIDTH 6 0
BBX 6 12 0 0
BITMAP
01A0
0090
0000
0790
0D30
1C60
1D00
1E00
7800
F400
B410
7E40
ENDCHAR
STARTCHAR uni1EBB
ENCODING 7867
SWIDTH 384 0
DWIDTH 5 0
BBX 5 9 0 0
BITMAP
0640
0500
0000
1F40
7640
F700
F900
E040
B900
ENDCHAR
STARTCHAR uni1EBC
ENCODING 7868
SWIDTH 459 0
DWIDTH 6 0
BBX 7 11 0 0
BITMAP
01B8
0000
0790
0D30
1C60
1D00
1E00
7800
F400
B410
7E40
ENDCHAR
STARTCHAR uni1EBD
ENCODING 7869
SWIDTH 384 0
DWIDTH 5 0
BBX 5 8 0 0
BITMAP
2F80
0100
1F40
7640
F700
F900
E040
B900
ENDCHAR
STARTCHAR uni1EBE
ENCODING 7870
SWIDTH 459 0
DWIDTH 6 0
BBX 7 12 0 0
BITMAP
0048
01A4
0000
0790
0D30
1C60
1D00
1E00
7800
F400
B410
7E40
ENDCHAR
STARTCHAR uni1EBF
ENCODING 7871
SWIDTH 384 0
DWIDTH 5 0
BBX 7 11 0 0
BITMAP
0014
0020
0250
0940
0000
1F40
7640
F700
F900
E040
B900
ENDCHAR
STARTCHAR uni1EC0
ENCODING 7872
SWIDTH 459 0
DWIDTH 6 0
BBX 7 12 0 0
BITMAP
0018
0094
0110
0790
0D30
1C60
1D00
1E00
7800
F400
B410
7E40
ENDCHAR
STARTCHAR uni1EC1
ENCODING 7873
SWIDTH 384 0
DWIDTH 5 0
BBX 6 10 0 0
BITMAP
0060
0260
0A40
0000
1F40
7640
F700
F900
E040
B900
ENDCHAR
STARTCHAR uni1EC2
ENCODING 7874
SWIDTH 459 0
DWIDTH 6 0
BBX 8 12 0 0
BITMAP
0009
0099
0110
0790
0D30
1C60
1D00
1E00
7800
F400
B410
7E40
ENDCHAR
STARTCHAR uni1EC3
ENCODING 7875
SWIDTH 384 0
DWIDTH 5 0
BBX 6 10 0 0
BITMAP
0060
0260
0940
0000
1F40
7640
F700
F900
E040
B900
ENDCHAR
STARTCHAR uni1EC4
ENCODING 7876
SWIDTH 459 0
DWIDTH 6 0
BBX 7 12 0 0
BITMAP
00A4
01A0
0000
0790
0D30
1C60
1D00
1E00
7800
F400
B410
7E40
ENDCHAR
STARTCHAR uni1EC5
ENCODING 7877
SWIDTH 384 0
DWIDTH 5 0
BBX 5 10 0 0
BITMAP
0280
0200
0940
0000
1F40
7640
F700
F900
E040
B900
ENDCHAR
STARTCHAR uni1EC6
ENCODING 7878
SWIDTH 459 0
DWIDTH 6 0
BBX 6 15 0 -3
BITMAP
0040
01A0
0110
0790
0D30
1C60
1D00
1E00
7800
F400
B410
7E40
0000
2400
3800
ENDCHAR
STARTCHAR uni1EC7
ENCODING 7879
SWIDTH 384 0
DWIDTH 5 0
BBX 5 12 0 -3
BITMAP
0240
0A80
1000
1F40
7640
F700
F900
E040
B900
0000
6000
B000
ENDCHAR
STARTCHAR uni1EC8
ENCODING 7880
SWIDTH 375 0
DWIDTH 5 0
BBX 6 12 0 0
BITMAP
0290
0050
0140
0B80
6740
9740
DB00
0E00
0E00
1D00
2D00
2C00
ENDCHAR
STARTCHAR uni1EC9
ENCODING 7881
SWIDTH 267 0
DWIDTH 3 0
BBX 4 9 0 0
BITMAP
29
14
00
74
B4
B0
E0
E5
B8
ENDCHAR
STARTCHAR uni1ECA
ENCODING 7882
SWIDTH 375 0
DWIDTH 5 0
BBX 5 12 0 -3
BITMAP
0B80
6740
9740
DB00
0E00
0E00
1D00
2D00
2C00
0000
2400
3400
ENDCHAR
STARTCHAR uni1ECB
ENCODING 7883
SWIDTH 267 0
DWIDTH 3 0
BBX 5 11 -1 -3
BITMAP
0A00
0A00
1D00
2D00
2C00
3800
3940
2E00
0000
6000
7400
ENDCHAR
STARTCHAR uni1ECC
ENCODING 7884
SWIDTH 665 0
DWIDTH 8 0
BBX 8 12 0 -3
BITMAP
06A8
258E
A74A
9E0A
1D0E
2D1D
2C2C
2D74
0B90
0000
0A00
0B00
ENDCHAR
STARTCHAR uni1ECD
ENCODING 7885
SWIDTH 433 0
DWIDTH 5 0
BBX 8 9 -1 -3
BITMAP
0790
1DA5
3CA4
3890
78C0
2E40
0000
1800
2C00
ENDCHAR
STARTCHAR uni1ECE
ENCODING 7886
SWIDTH 665 0
DWIDTH 8 0
BBX 8 12 0 0
BITMAP
0028
0008
0020
06A8
258E
A74A
9E0A
1D0E
2D1D
2C2C
2D74
0B90
ENDCHAR
STARTCHAR uni1ECF
ENCODING 7887
SWIDTH 433 0
DWIDTH 5 0
BBX 8 9 -1 0
BITMAP
01A0
0090
0000
0790
1DA5
3CA4
3890
78C0
2E40
ENDCHAR
STARTCHAR uni1ED0
ENCODING 7888
SWIDTH 665 0
DWIDTH 8 0
BBX 8 12 0 0
BITMAP
0002
0029
0044
06A8
258E
A74A
9E0A
1D0E
2D1D
2C2C
2D74
0B90
ENDCHAR
STARTCHAR uni1ED1
ENCODING 7889
SWIDTH 433 0
DWIDTH 5 0
BBX 8 11 -1 0
BITMAP
0005
0008
0094
0250
0000
0790
1DA5
3CA4
3890
78C0
2E40
ENDCHAR
STARTCHAR uni1ED2
ENCODING 7890
SWIDTH 665 0
DWIDTH 8 0
BBX 8 12 0 0
BITMAP
0006
0025
0044
06A8
258E
A74A
9E0A
1D0E
2D1D
2C2C
2D74
0B90
ENDCHAR
STARTCHAR uni1ED3
ENCODING 7891
SWIDTH 433 0
DWIDTH 5 0
BBX 8 10 -1 0
BITMAP
0018
0098
0290
0000
0790
1DA5
3CA4
3890
78C0
2E40
ENDCHAR
STARTCHAR uni1ED4
ENCODING 7892
SWIDTH 665 0
DWIDTH 8 0
BBX 9 12 0 0
BITMAP
000240
002640
004400
06A800
258E00
A74A00
9E0A00
1D0E00
2D1D00
2C2C00
2D7400
0B9000
ENDCHAR
STARTCHAR uni1ED5
ENCODING 7893
SWIDTH 433 0
DWIDTH 5 0
BBX 8 10 -1 0
BITMAP
0018
0098
0290
0000
0790
1DA5
3CA4
3890
78C0
2E40
ENDCHAR
STARTCHAR uni1ED6
ENCODING 7894
SWIDTH 665 0
DWIDTH 8 0
BBX 8 12 0 0
BITMAP
0079
0028
0044
06A8
258E
A74A
9E0A
1D0E
2D1D
2C2C
2D74
0B90
ENDCHAR
STARTCHAR uni1ED7
ENCODING 7895
SWIDTH 433 0
DWIDTH 5 0
BBX 8 10 -1 0
BITMAP
0054
0080
0250
0000
0790
1DA5
3CA4
3890
78C0
2E40
ENDCHAR
STARTCHAR uni1ED8
ENCODING 7896
SWIDTH 665 0
DWIDTH 8 0
BBX 8 15 0 -3
BITMAP
0010
0064
0144
06A8
258E
A74A
9E0A
1D0E
2D1D
2C2C
2D74
0B90
0000
0A00
0B00
ENDCHAR
STARTCHAR uni1ED9
ENCODING 7897
SWIDTH 433 0
DWIDTH 5 0
BBX 8 12 -1 -3
BITMAP
0080
0290
0400
0790
1DA5
3CA4
3890
78C0
2E40
0000
1800
2C00
ENDCHAR
STARTCHAR uni1EDA
ENCODING 7898
SWIDTH 665 0
DWIDTH 8 0
BBX 9 12 0 0
BITMAP
001800
002540
001180
06AA40
258E00
A74A00
9E0B00
1D0E00
2D1D00
2C2C00
2D7400
0B9000
ENDCHAR
STARTCHAR uni1EDB
ENCODING 7899
SWIDTH 439 0
DWIDTH 5 0
BBX 6 9 0 0
BITMAP
0280
0350
0160
1E90
7580
F180
E240
E300
B900
ENDCHAR
STARTCHAR uni1EDC
ENCODING 7900
SWIDTH 665 0
DWIDTH 8 0
BBX 9 12 0 0
BITMAP
01C000
00C140
000180
06AA40
258E00
A74A00
9E0B00
1D0E00
2D1D00
2C2C00
2D7400
0B9000
ENDCHAR
STARTCHAR uni1EDD
ENCODING 7901
SWIDTH 439 0
DWIDTH 5 0
BBX 6 9 0 0
BITMAP
0900
0620
0060
1E90
7580
F180
E240
E300
B900
ENDCHAR
STARTCHAR uni1EDE
ENCODING 7902
SWIDTH 665 0
DWIDTH 8 0
BBX 9 12 0 0
BITMAP
002800
000800
002180
06AA40
258E00
A74A00
9E0B00
1D0E00
2D1D00
2C2C00
2D7400
0B9000
ENDCHAR
STARTCHAR uni1EDF
ENCODING 7903
SWIDTH 439 0
DWIDTH 5 0
BBX 6 9 0 0
BITMAP
0680
0260
0060
1E90
7580
F180
E240
E300
B900
ENDCHAR
STARTCHAR uni1EE0
ENCODING 7904
SWIDTH 665 0
DWIDTH 8 0
BBX 9 11 0 0
BITMAP
02E440
005180
06AA40
258E00
A74A00
9E0B00
1D0E00
2D1D00
2C2C00
2D7400
0B9000
ENDCHAR
STARTCHAR uni1EE1
ENCODING 7905
SWIDTH 439 0
DWIDTH 5 0
BBX 6 8 0 0
BITMAP
2E50
0060
1E90
7580
F180
E240
E700
B900
ENDCHAR
STARTCHAR uni1EE2
ENCODING 7906
SWIDTH 665 0
DWIDTH 8 0
BBX 9 13 0 -3
BITMAP
000180
06AA40
258E00
A74A00
9E0B00
1D0E00
2D1D00
2C2C00
2D7400
0B9000
000000
0A0000
0B0000
ENDCHAR
STARTCHAR uni1EE3
ENCODING 7907
SWIDTH 439 0
DWIDTH 5 0
BBX 6 11 0 -3
BITMAP
0010
0060
1E90
7580
F180
E240
E300
B900
0000
6000
B000
ENDCHAR
STARTCHAR uni1EE4
ENCODING 7908
SWIDTH 716 0
DWIDTH 9 0
BBX 9 12 0 -3
BITMAP
0BC2C0
638380
D74380
CB0740
0B0B00
0E0F00
0D1E00
0E6C00
0BE400
000000
024000
034000
ENDCHAR
STARTCHAR uni1EE5
ENCODING 7909
SWIDTH 505 0
DWIDTH 6 0
BBX 7 9 0 -3
BITMAP
75D0
B6D0
B2C0
E380
E794
B6D0
0000
2800
3800
ENDCHAR
STARTCHAR uni1EE6
ENCODING 7910
SWIDTH 716 0
DWIDTH 9 0
BBX 9 12 0 0
BITMAP
001A00
000200
000800
0BC2C0
638380
D74380
CB0740
0B0B00
0E0F00
0D1E00
0E6C00
0BE400
ENDCHAR
STARTCHAR uni1EE7
ENCODING 7911
SWIDTH 505 0
DWIDTH 6 0
BBX 7 9 0 0
BITMAP
0640
0600
0000
75D0
B6D0
B2C0
E380
E794
B6D0
ENDCHAR
STARTCHAR uni1EE8
ENCODING 7912
SWIDTH 716 0
DWIDTH 9 0
BBX 11 12 0 0
BITMAP
000700
000924
000434
0BC2D0
638380
D74380
CB0740
0B0B00
0E0F00
0D1E00
0E6C00
0BE400
ENDCHAR
STARTCHAR uni1EE9
ENCODING 7913
SWIDTH 505 0
DWIDTH 6 0
BBX 7 9 0 0
BITMAP
01C0
0254
0124
75D0
B6D0
B2C0
E380
E794
B6D0
ENDCHAR
STARTCHAR uni1EEA
ENCODING 7914
SWIDTH 716 0
DWIDTH 9 0
BBX 11 12 0 0
BITMAP
003400
002424
000020
0BC2D0
638380
D74380
CB0740
0B0B00
0E0F00
0D1E00
0E6C00
0BE400
ENDCHAR
STARTCHAR uni1EEB
ENCODING 7915
SWIDTH 505 0
DWIDTH 6 0
BBX 7 9 0 0
BITMAP
0A00
0618
0024
75D0
B6D0
B2C0
E380
E794
B6D0
ENDCHAR
STARTCHAR uni1EEC
ENCODING 7916
SWIDTH 716 0
DWIDTH 9 0
BBX 11 12 0 0
BITMAP
001A00
000224
000824
0BC2D0
638380
D74380
CB0740
0B0B00
0E0F00
0D1E00
0E6C00
0BE400
ENDCHAR
STARTCHAR uni1EED
ENCODING 7917
SWIDTH 505 0
DWIDTH 6 0
BBX 7 9 0 0
BITMAP
0640
0614
0024
75D0
B6D0
B2C0
E380
E794
B6D0
ENDCHAR
STARTCHAR uni1EEE
ENCODING 7918
SWIDTH 716 0
DWIDTH 9 0
BBX 11 11 0 0
BITMAP
007E64
000534
0BC2D0
638380
D74380
CB0740
0B0B00
0E0F00
0D1E00
0E6C00
0BE400
ENDCHAR
STARTCHAR uni1EEF
ENCODING 7919
SWIDTH 505 0
DWIDTH 6 0
BBX 7 8 0 0
BITMAP
0B94
0124
75E0
B6D0
B2C0
E380
E794
B6D0
ENDCHAR
STARTCHAR uni1EF0
ENCODING 7920
SWIDTH 716 0
DWIDTH 9 0
BBX 11 14 0 -3
BITMAP
000010
000024
0BC2E0
6383C0
D74380
CB0740
0B0B00
0E0F00
0D1E00
0E6C00
0BE400
000000
024000
034000
ENDCHAR
STARTCHAR uni1EF1
ENCODING 7921
SWIDTH 505 0
DWIDTH 6 0
BBX 7 11 0 -3
BITMAP
0014
0024
75E0
B6D0
B2C0
E380
E794
B6D0
0000
2800
3800
ENDCHAR
STARTCHAR Ygrave
ENCODING 7922
SWIDTH 620 0
DWIDTH 7 0
BBX 8 12 0 0
BITMAP
0024
0018
0000
0BC2
63C2
92D5
D1E8
00F4
00F0
00E0
01E0
02D0
ENDCHAR
STARTCHAR ygrave
ENCODING 7923
SWIDTH 505 0
DWIDTH 6 0
BBX 6 12 0 -3
BITMAP
0A00
0600
0000
75D0
B6D0
B2C0
E380
E790
BB90
2F00
5F00
7D00
ENDCHAR
STARTCHAR uni1EF4
ENCODING 7924
SWIDTH 620 0
DWIDTH 7 0
BBX 8 12 0 -3
BITMAP
0BC2
63C2
92D5
D1E8
00F4
00F0
00E0
01E0
02D0
0000
0280
0280
ENDCHAR
STARTCHAR uni1EF5
ENCODING 7925
SWIDTH 505 0
DWIDTH 6 0
BBX 6 9 0 -3
BITMAP
75D0
B6D0
B2C0
E380
E790
BB90
2F00
5F50
7DA0
ENDCHAR
STARTCHAR uni1EF6
ENCODING 7926
SWIDTH 620 0
DWIDTH 7 0
BBX 8 12 0 0
BITMAP
001A
0002
0008
0BC2
63C2
92D5
D1E8
00F4
00F0
00E0
01E0
02D0
ENDCHAR
STARTCHAR uni1EF7
ENCODING 7927
SWIDTH 505 0
DWIDTH 6 0
BBX 6 12 0 -3
BITMAP
0640
0600
0000
75D0
B6D0
B2C0
E380
E790
BB90
2F00
5F00
7D00
ENDCHAR
STARTCHAR uni1EF8
ENCODING 7928
SWIDTH 620 0
DWIDTH 7 0
BBX 8 11 0 0
BITMAP
00BA
0015
0BC2
63C2
92D5
D1E8
00F4
00F0
00E0
01E0
02D0
ENDCHAR
STARTCHAR uni1EF9
ENCODING 7929
SWIDTH 505 0
DWIDTH 6 0
BBX 6 11 0 -3
BITMAP
1B90
0000
75D0
B6D0
B2C0
E380
E790
BB90
2F00
5F00
7D00
ENDCHAR
STARTCHAR uni2010
ENCODING 8208
SWIDTH 290 0
DWIDTH 3 0
BBX 3 1 0 3
BITMAP
68
ENDCHAR
STARTCHAR endash
ENCODING 8211
SWIDTH 352 0
DWIDTH 4 0
BBX 4 1 0 3
BITMAP
69
ENDCHAR
STARTCHAR emdash
ENCODING 8212
SWIDTH 444 0
DWIDTH 5 0
BBX 5 1 0 3
BITMAP
6A40
ENDCHAR
STARTCHAR quoteleft
ENCODING 8216
SWIDTH 209 0
DWIDTH 3 0
BBX 2 3 1 6
BITMAP
10
90
A0
ENDCHAR
STARTCHAR quoteright
ENCODING 8217
SWIDTH 238 0
DWIDTH 3 0
BBX 2 3 1 6
BITMAP
A0
A0
40
ENDCHAR
STARTCHAR quotesinglbase
ENCODING 8218
SWIDTH 220 0
DWIDTH 3 0
BBX 2 3 0 -1
BITMAP
D0
90
40
ENDCHAR
STARTCHAR quotedblleft
ENCODING 8220
SWIDTH 429 0
DWIDTH 5 0
BBX 4 3 1 6
BITMAP
11
96
A7
ENDCHAR
STARTCHAR quotedblright
ENCODING 8221
SWIDTH 426 0
DWIDTH 5 0
BBX 4 3 1 6
BITMAP
A7
63
41
ENDCHAR
STARTCHAR quotedblbase
ENCODING 8222
SWIDTH 440 0
DWIDTH 5 0
BBX 4 3 0 -1
BITMAP
DA
96
44
ENDCHAR
STARTCHAR dagger
ENCODING 8224
SWIDTH 495 0
DWIDTH 6 0
BBX 5 12 1 -3
BITMAP
0500
0900
0C00
0800
FF40
6900
2000
3000
2000
6000
9000
8000
ENDCHAR
STARTCHAR daggerdbl
ENCODING 8225
SWIDTH 495 0
DWIDTH 6 0
BBX 6 12 0 -3
BITMAP
0140
0240
0300
0200
3FD0
1A40
0900
6E80
0800
1800
2400
2000
ENDCHAR
STARTCHAR bullet
ENCODING 8226
SWIDTH 434 0
DWIDTH 5 0
BBX 3 2 1 2
BITMAP
78
74
ENDCHAR
STARTCHAR ellipsis
ENCODING 8230
SWIDTH 702 0
DWIDTH 8 0
BBX 8 2 0 0
BITMAP
618A
72CA
ENDCHAR
STARTCHAR perthousand
ENCODING 8240
SWIDTH 1175 0
DWIDTH 14 0
BBX 14 9 0 0
BITMAP
1A060000
36480000
72580000
63600000
6656C2E0
298D9630
025C9970
0218C9A0
090E4780
ENDCHAR
STARTCHAR minute
ENCODING 8242
SWIDTH 196 0
DWIDTH 2 0
BBX 2 3 1 6
BITMAP
60
90
80
ENDCHAR
STARTCHAR second
ENCODING 8243
SWIDTH 341 0
DWIDTH 4 0
BBX 4 3 1 6
BITMAP
69
9C
94
ENDCHAR
STARTCHAR guilsinglleft
ENCODING 8249
SWIDTH 359 0
DWIDTH 4 0
BBX 4 4 0 1
BITMAP
09
60
64
09
ENDCHAR
STARTCHAR guilsinglright
ENCODING 8250
SWIDTH 344 0
DWIDTH 4 0
BBX 4 4 0 1
BITMAP
24
06
19
50
ENDCHAR
STARTCHAR fraction
ENCODING 8260
SWIDTH 248 0
DWIDTH 3 0
BBX 6 9 -1 0
BITMAP
0050
0080
0240
0200
0900
1800
2000
5000
8000
ENDCHAR
STARTCHAR uni2052
ENCODING 8274
SWIDTH 796 0
DWIDTH 10 0
BBX 6 9 2 0
BITMAP
D060
9080
0180
0200
0500
0800
2400
2090
90E0
ENDCHAR
STARTCHAR uni2070
ENCODING 8304
SWIDTH 379 0
DWIDTH 5 0
BBX 5 6 0 3
BITMAP
1A00
3640
7240
6340
6600
2800
ENDCHAR
STARTCHAR uni2074
ENCODING 8308
SWIDTH 352 0
DWIDTH 4 0
BBX 3 5 1 4
BITMAP
98
98
A8
24
30
ENDCHAR
STARTCHAR uni2075
ENCODING 8309
SWIDTH 335 0
DWIDTH 4 0
BBX 4 6 0 3
BITMAP
2A
20
29
26
5A
28
ENDCHAR
STARTCHAR uni2076
ENCODING 8310
SWIDTH 351 0
DWIDTH 4 0
BBX 4 6 0 3
BITMAP
1A
35
7A
67
66
28
ENDCHAR
STARTCHAR uni2077
ENCODING 8311
SWIDTH 329 0
DWIDTH 4 0
BBX 4 5 0 4
BITMAP
6E
08
24
70
20
ENDCHAR
STARTCHAR uni2078
ENCODING 8312
SWIDTH 354 0
DWIDTH 4 0
BBX 4 6 0 3
BITMAP
1E
26
1D
2A
67
29
ENDCHAR
STARTCHAR uni2079
ENCODING 8313
SWIDTH 345 0
DWIDTH 4 0
BBX 4 6 0 3
BITMAP
19
23
67
2A
19
14
ENDCHAR
STARTCHAR uni2080
ENCODING 8320
SWIDTH 379 0
DWIDTH 5 0
BBX 5 5 0 0
BITMAP
1B00
3640
7240
6300
3900
ENDCHAR
STARTCHAR uni2081
ENCODING 8321
SWIDTH 229 0
DWIDTH 3 0
BBX 3 5 0 0
BITMAP
74
24
30
30
60
ENDCHAR
STARTCHAR uni2082
ENCODING 8322
SWIDTH 328 0
DWIDTH 4 0
BBX 4 5 0 0
BITMAP
2E
26
08
20
79
ENDCHAR
STARTCHAR uni2083
ENCODING 8323
SWIDTH 336 0
DWIDTH 4 0
BBX 4 5 0 0
BITMAP
1A
26
09
66
29
ENDCHAR
STARTCHAR uni2084
ENCODING 8324
SWIDTH 352 0
DWIDTH 4 0
BBX 3 5 1 0
BITMAP
98
98
A8
24
30
ENDCHAR
STARTCHAR uni2085
ENCODING 8325
SWIDTH 335 0
DWIDTH 4 0
BBX 4 5 0 0
BITMAP
2A
20
29
66
69
ENDCHAR
STARTCHAR uni2086
ENCODING 8326
SWIDTH 351 0
DWIDTH 4 0
BBX 4 5 0 0
BITMAP
1A
35
7A
67
39
ENDCHAR
STARTCHAR uni2087
ENCODING 8327
SWIDTH 329 0
DWIDTH 4 0
BBX 4 5 0 0
BITMAP
6E
08
24
30
60
ENDCHAR
STARTCHAR uni2088
ENCODING 8328
SWIDTH 354 0
DWIDTH 4 0
BBX 4 5 0 0
BITMAP
1E
2A
1D
67
29
ENDCHAR
STARTCHAR uni2089
ENCODING 8329
SWIDTH 345 0
DWIDTH 4 0
BBX 4 5 0 0
BITMAP
2A
63
2B
06
68
ENDCHAR
STARTCHAR colonmonetary
ENCODING 8353
SWIDTH 384 0
DWIDTH 5 0
BBX 5 9 0 -1
BITMAP
0580
0A80
34C0
A000
E000
A000
3E00
1800
0400
ENDCHAR
STARTCHAR franc
ENCODING 8355
SWIDTH 529 0
DWIDTH 6 0
BBX 7 9 0 0
BITMAP
07E8
0740
0B40
0B00
0F90
1E00
BE80
2C00
2C00
ENDCHAR
STARTCHAR lira
ENCODING 8356
SWIDTH 455 0
DWIDTH 5 0
BBX 6 9 0 0
BITMAP
02A0
0B30
0E00
6F80
1D00
BE80
2C00
3410
BBE0
ENDCHAR
STARTCHAR uni20A6
ENCODING 8358
SWIDTH 723 0
DWIDTH 9 0
BBX 9 9 0 0
BITMAP
038280
07C240
07C300
0BD700
6EEB80
AEFF80
18BC00
287C00
347800
ENDCHAR
STARTCHAR uni20A9
ENCODING 8361
SWIDTH 841 0
DWIDTH 10 0
BBX 11 9 0 0
BITMAP
1D0E08
1D1E14
1D2E20
1D2E20
6EAEA8
AFEFE8
1E4E80
1F0F40
0E0E00
ENDCHAR
STARTCHAR Euro
ENCODING 8364
SWIDTH 507 0
DWIDTH 6 0
BBX 7 9 0 0
BITMAP
01A8
0B1C
1E14
7EA0
2C00
BE90
2C00
2D00
0B90
ENDCHAR
STARTCHAR uni20AE
ENCODING 8366
SWIDTH 481 0
DWIDTH 6 0
BBX 9 9 0 0
BITMAP
1AE440
62DA00
92C000
D38000
57E400
6BA400
6F4000
0B0000
0E0000
ENDCHAR
STARTCHAR uni20B3
ENCODING 8371
SWIDTH 573 0
DWIDTH 7 0
BBX 7 9 0 0
BITMAP
0AA4
365C
975C
DB1C
4F74
2F90
7F80
2C00
2C00
ENDCHAR
STARTCHAR uni20B4
ENCODING 8372
SWIDTH 570 0
DWIDTH 7 0
BBX 7 9 0 0
BITMAP
0AE0
2474
14A0
6BA4
6FA0
3800
74A0
7470
2E90
ENDCHAR
STARTCHAR uni20B8
ENCODING 8376
SWIDTH 522 0
DWIDTH 6 0
BBX 9 9 0 0
BITMAP
2AAA80
0AE040
75EA40
A2D000
D2C000
538000
078000
074000
0B0000
ENDCHAR
STARTCHAR uni20B9
ENCODING 8377
SWIDTH 544 0
DWIDTH 7 0
BBX 7 10 0 -1
BITMAP
1AA8
2AE4
01D0
0280
6F40
0380
0380
0740
0740
0100
ENDCHAR
STARTCHAR uni20BA
ENCODING 8378
SWIDTH 455 0
DWIDTH 5 0
BBX 7 9 0 0
BITMAP
0740
0B00
0F80
6E50
1E40
6D34
2C34
38A0
3E40
ENDCHAR
STARTCHAR uni20BD
ENCODING 8381
SWIDTH 573 0
DWIDTH 7 0
BBX 7 9 0 0
BITMAP
0AA4
365C
975C
DB1C
4F74
6F90
7F40
2C00
2C00
ENDCHAR
STARTCHAR uni2116
ENCODING 8470
SWIDTH 996 0
DWIDTH 12 0
BBX 12 9 0 0
BITMAP
1B8280
67C359
97D372
9AD765
0DEA28
0CB9BD
1CBD00
287C00
243800
ENDCHAR
STARTCHAR uni2120
ENCODING 8480
SWIDTH 585 0
DWIDTH 7 0
BBX 6 4 1 5
BITMAP
1510
2690
6690
5540
ENDCHAR
STARTCHAR trademark
ENCODING 8482
SWIDTH 379 0
DWIDTH 5 0
BBX 5 3 0 5
BITMAP
5540
4A40
8A00
ENDCHAR
STARTCHAR uni2126
ENCODING 8486
SWIDTH 745 0
DWIDTH 9 0
BBX 9 9 0 0
BITMAP
01B900
074700
1C0240
240240
340240
300600
240900
082400
BD7E00
ENDCHAR
STARTCHAR uni212A
ENCODING 8490
SWIDTH 601 0
DWIDTH 7 0
BBX 8 9 0 0
BITMAP
0B8A
2758
9760
DB90
4FA0
0E38
1D74
2DB0
2CB0
ENDCHAR
STARTCHAR uni212B
ENCODING 8491
SWIDTH 668 0
DWIDTH 8 0
BBX 9 13 0 -1
BITMAP
000140
000540
000740
002F00
009B00
018E00
6BAD00
AA2D00
0D2C00
1C3C00
283800
382400
240000
ENDCHAR
STARTCHAR estimated
ENCODING 8494
SWIDTH 786 0
DWIDTH 9 0
BBX 9 9 0 0
BITMAP
06A400
1C0A00
380740
7807C0
BEAA80
780000
380000
1C0500
06A400
ENDCHAR
STARTCHAR uni2153
ENCODING 8531
SWIDTH 733 0
DWIDTH 9 0
BBX 9 9 0 0
BITMAP
040800
742400
242000
309000
618B40
520980
060200
081680
141A00
ENDCHAR
STARTCHAR uni2154
ENCODING 8532
SWIDTH 852 0
DWIDTH 10 0
BBX 10 9 0 0
BITMAP
2E0240
260200
080900
201800
6921A0
006170
008090
014270
020290
ENDCHAR
STARTCHAR oneeighth
ENCODING 8539
SWIDTH 741 0
DWIDTH 9 0
BBX 9 9 0 0
BITMAP
040800
742400
242000
309000
618A40
520D80
060B00
082680
141A40
ENDCHAR
STARTCHAR threeeighths
ENCODING 8540
SWIDTH 828 0
DWIDTH 10 0
BBX 10 9 0 0
BITMAP
1A0200
260500
090800
662400
2862A0
008360
0182C0
0209A0
050690
ENDCHAR
STARTCHAR fiveeighths
ENCODING 8541
SWIDTH 827 0
DWIDTH 10 0
BBX 10 9 0 0
BITMAP
2A0200
200500
290800
262400
5A62A0
288360
0182C0
0209A0
050690
ENDCHAR
STARTCHAR seveneighths
ENCODING 8542
SWIDTH 761 0
DWIDTH 9 0
BBX 9 9 0 0
BITMAP
6E0800
081800
242000
705000
208780
024980
020B40
091980
181A40
ENDCHAR
STARTCHAR partialdiff
ENCODING 8706
SWIDTH 597 0
DWIDTH 7 0
BBX 7 9 0 0
BITMAP
02F4
011C
000C
000C
0BEC
2428
6020
6090
2E40
ENDCHAR
STARTCHAR uni2206
ENCODING 8710
SWIDTH 619 0
DWIDTH 7 0
BBX 8 9 0 0
BITMAP
0070
00F4
0264
0728
0918
181C
301C
A00D
BFFD
ENDCHAR
STARTCHAR product
ENCODING 8719
SWIDTH 661 0
DWIDTH 8 0
BBX 8 9 0 0
BITMAP
7FFE
1830
1860
2460
3090
3080
60C0
5180
9140
ENDCHAR
STARTCHAR summation
ENCODING 8721
SWIDTH 605 0
DWIDTH 7 0
BBX 8 9 0 0
BITMAP
0FFD
0900
0700
0240
0180
0700
0D00
3400
BFE0
ENDCHAR
STARTCHAR minus
ENCODING 8722
SWIDTH 471 0
DWIDTH 6 0
BBX 5 1 0 4
BITMAP
7F80
ENDCHAR
STARTCHAR uni2215
ENCODING 8725
SWIDTH 488 0
DWIDTH 6 0
BBX 6 9 0 0
BITMAP
0060
0080
0140
0200
0900
0800
2400
6000
8000
ENDCHAR
STARTCHAR uni2219
ENCODING 8729
SWIDTH 434 0
DWIDTH 5 0
BBX 3 3 1 2
BITMAP
10
78
74
ENDCHAR
STARTCHAR radical
ENCODING 8730
SWIDTH 660 0
DWIDTH 8 0
BBX 8 9 0 0
BITMAP
007E
0090
00C0
0180
0240
B200
3900
2C00
1400
ENDCHAR
STARTCHAR infinity
ENCODING 8734
SWIDTH 833 0
DWIDTH 10 0
BBX 9 4 0 1
BITMAP
1E1B40
61E180
61A240
3D2E00
ENDCHAR
STARTCHAR integral
ENCODING 8747
SWIDTH 305 0
DWIDTH 4 0
BBX 6 12 -1 -2
BITMAP
0190
0340
0300
0600
0900
0900
0C00
1C00
1800
2400
3000
9000
ENDCHAR
STARTCHAR approxequal
ENCODING 8776
SWIDTH 441 0
DWIDTH 5 0
BBX 6 4 0 1
BITMAP
2D00
02D0
0000
7F80
ENDCHAR
STARTCHAR notequal
ENCODING 8800
SWIDTH 500 0
DWIDTH 6 0
BBX 6 6 0 0
BITMAP
0200
3FD0
1940
0800
7FC0
1940
ENDCHAR
STARTCHAR lessequal
ENCODING 8804
SWIDTH 405 0
DWIDTH 5 0
BBX 5 6 0 1
BITMAP
0180
1A00
7800
0B00
0100
FF40
ENDCHAR
STARTCHAR greaterequal
ENCODING 8805
SWIDTH 405 0
DWIDTH 5 0
BBX 5 6 0 1
BITMAP
2400
0A40
0740
2800
0000
BF40
ENDCHAR
STARTCHAR lozenge
ENCODING 9674
SWIDTH 619 0
DWIDTH 7 0
BBX 7 9 0 0
BITMAP
01D0
0360
0D30
2428
6018
3024
2490
1A80
0E00
ENDCHAR
STARTCHAR uni27E8
ENCODING 10216
SWIDTH 456 0
DWIDTH 5 0
BBX 6 12 0 -2
BITMAP
0090
0140
0200
0800
2400
5000
2000
1400
0800
0200
0140
0040
ENDCHAR
STARTCHAR uni27E9
ENCODING 10217
SWIDTH 456 0
DWIDTH 5 0
BBX 5 12 0 -1
BITMAP
1000
2000
1800
0900
0200
0140
0080
0200
0500
1800
2000
8000
ENDCHAR
STARTCHAR ff
ENCODING 64256
SWIDTH 508 0
DWIDTH 6 0
BBX 11 12 -3 -3
BITMAP
007AE4
00B384
00E780
01FFD0
02DB40
02CB00
03CE00
038E00
07AD00
2F6C00
5B2C00
6EB400
ENDCHAR
STARTCHAR fi
ENCODING 64257
SWIDTH 534 0
DWIDTH 6 0
BBX 10 12 -3 -3
BITMAP
002E40
00B280
00E100
01F780
01D740
02CB40
03CB00
038F60
074B80
1B4000
5B0000
6D0000
ENDCHAR
STARTCHAR fl
ENCODING 64258
SWIDTH 548 0
DWIDTH 7 0
BBX 10 12 -3 -3
BITMAP
007A40
00B1D0
00E2C0
01F780
02D380
02C740
03CB40
038B60
074780
2B4000
5B0000
6D0000
ENDCHAR
STARTCHAR ffi
ENCODING 64259
SWIDTH 764 0
DWIDTH 9 0
BBX 13 12 -3 -3
BITMAP
0079A900
00B38E00
00E74400
01FFBD00
02DB1D00
02CF2C00
03CE3800
039D3940
07AD2E00
2B6C0000
5B380000
6EA00000
ENDCHAR
STARTCHAR ffl
ENCODING 64260
SWIDTH 780 0
DWIDTH 9 0
BBX 13 12 -3 -3
BITMAP
007AE900
00B38B00
00E74E00
01FF9E00
02DB1D00
02CF2D00
03CE2C00
039D3D40
07AD2E00
2B6C0000
5B380000
6EA00000
ENDCHAR
STARTCHAR .notdef
ENCODING -1
SWIDTH 810 0
DWIDTH 10 0
BBX 10 16 0 -3
BITMAP
025550
010010
050050
040040
040040
046440
059840
142140
108100
104100
108100
100100
400500
400400
400400
955400
ENDCHAR
STARTCHAR A.salt
ENCODING -1
SWIDTH 590 0
DWIDTH 7 0
BBX 8 11 0 -2
BITMAP
006D
01AC
022C
0938
1EB4
2874
74B0
B0F0
A0E0
E000
5000
ENDCHAR
STARTCHAR B.salt
ENCODING -1
SWIDTH 633 0
DWIDTH 8 0
BBX 7 9 0 0
BITMAP
1AA4
765C
D768
9BF4
0E2C
0E2C
1D2C
2D74
2EE0
ENDCHAR
STARTCHAR E.salt
ENCODING -1
SWIDTH 554 0
DWIDTH 7 0
BBX 7 9 0 0
BITMAP
17A8
6740
9B00
9B00
0FE0
1E00
1D00
2D00
3E90
ENDCHAR
STARTCHAR N.salt
ENCODING -1
SWIDTH 669 0
DWIDTH 8 0
BBX 9 9 0 0
BITMAP
0BED00
674E00
9B4E00
9F1D00
1E2D00
1E2C00
2D3800
2C3840
3C2D00
ENDCHAR
STARTCHAR i.loclTRK
ENCODING -1
SWIDTH 267 0
DWIDTH 3 0
BBX 4 8 0 0
BITMAP
28
28
74
B4
B0
E0
E5
B8
ENDCHAR
STARTCHAR a.end
ENCODING -1
SWIDTH 467 0
DWIDTH 6 0
BBX 6 6 0 0
BITMAP
1EE0
75D0
F1D0
E2C0
E3C0
BAD0
ENDCHAR
STARTCHAR aacute.end
ENCODING -1
SWIDTH 461 0
DWIDTH 6 0
BBX 7 9 -1 0
BITMAP
0070
0090
0040
0BB8
1D74
3CB4
78B0
78E0
2EB0
ENDCHAR
STARTCHAR c.end
ENCODING -1
SWIDTH 341 0
DWIDTH 4 0
BBX 6 6 -1 0
BITMAP
0B80
1D90
3C00
3800
7800
2E40
ENDCHAR
STARTCHAR d.end
ENCODING -1
SWIDTH 476 0
DWIDTH 6 0
BBX 6 9 0 0
BITMAP
0010
00B0
00F0
1EE0
75D0
F1D0
E2C0
E3C0
BAD0
ENDCHAR
STARTCHAR e.end
ENCODING -1
SWIDTH 366 0
DWIDTH 4 0
BBX 5 6 0 0
BITMAP
1F40
7640
F700
F900
E000
B900
ENDCHAR
STARTCHAR eacute.end
ENCODING -1
SWIDTH 367 0
DWIDTH 4 0
BBX 5 9 0 0
BITMAP
0280
0300
0100
1F40
7640
F700
F900
E000
B900
ENDCHAR
STARTCHAR uni0292.end
ENCODING -1
SWIDTH 391 0
DWIDTH 5 0
BBX 5 9 0 -3
BITMAP
6F40
9A00
1D00
3800
2D00
0E00
1E00
9D00
B800
ENDCHAR
STARTCHAR g.end
ENCODING -1
SWIDTH 480 0
DWIDTH 6 0
BBX 6 9 0 -3
BITMAP
1EE0
75D0
F1D0
E2C0
E380
BB80
1B40
5B00
2D00
ENDCHAR
STARTCHAR uni01E5.end
ENCODING -1
SWIDTH 507 0
DWIDTH 6 0
BBX 6 9 0 -3
BITMAP
1EE0
75D0
F1D0
E2C0
E3C0
BB80
1B40
6F80
2E00
ENDCHAR
STARTCHAR h.end
ENCODING -1
SWIDTH 453 0
DWIDTH 5 0
BBX 6 9 -1 0
BITMAP
0100
0F00
0E00
1EE0
2DB0
2CB0
38E0
38E0
74B0
ENDCHAR
STARTCHAR i.end
ENCODING -1
SWIDTH 209 0
DWIDTH 3 0
BBX 3 9 0 0
BITMAP
28
28
00
74
B4
B0
E0
E0
B4
ENDCHAR
STARTCHAR iacute.end
ENCODING -1
SWIDTH 209 0
DWIDTH 3 0
BBX 4 9 0 0
BITMAP
09
18
10
74
B4
B0
E0
E0
B4
ENDCHAR
STARTCHAR ij.end
ENCODING -1
SWIDTH 480 0
DWIDTH 6 0
BBX 6 11 0 -3
BITMAP
28B0
2860
74E0
B5D0
B2D0
E2C0
E380
B780
1B40
5B00
2D00
ENDCHAR
STARTCHAR j.end
ENCODING -1
SWIDTH 213 0
DWIDTH 3 0
BBX 6 11 -3 -3
BITMAP
00A0
00A0
01D0
02D0
02C0
0380
0380
0740
2F40
5B00
6D00
ENDCHAR
STARTCHAR k.end
ENCODING -1
SWIDTH 472 0
DWIDTH 6 0
BBX 7 9 -1 0
BITMAP
0100
0F00
0E00
1D24
1D80
2FE0
3CB0
38E0
74B4
ENDCHAR
STARTCHAR l.end
ENCODING -1
SWIDTH 207 0
DWIDTH 2 0
BBX 3 8 0 0
BITMAP
28
38
78
74
B0
F0
E0
B4
ENDCHAR
STARTCHAR m.end
ENCODING -1
SWIDTH 701 0
DWIDTH 8 0
BBX 9 6 -1 0
BITMAP
1EEB80
2DB6C0
2CB2C0
38E380
39E380
75D2C0
ENDCHAR
STARTCHAR n.end
ENCODING -1
SWIDTH 454 0
DWIDTH 5 0
BBX 6 6 -1 0
BITMAP
1EE0
2DB0
2CB0
38E0
38E0
74B0
ENDCHAR
STARTCHAR o.end
ENCODING -1
SWIDTH 487 0
DWIDTH 6 0
BBX 6 6 0 0
BITMAP
1E40
7590
F280
E240
E300
B900
ENDCHAR
STARTCHAR oacute.end
ENCODING -1
SWIDTH 487 0
DWIDTH 6 0
BBX 6 9 0 0
BITMAP
0280
0300
0100
1E40
7590
F280
E240
E300
B900
ENDCHAR
STARTCHAR s.end
ENCODING -1
SWIDTH 316 0
DWIDTH 4 0
BBX 5 6 -1 0
BITMAP
0780
0B80
1780
2380
6380
2E00
ENDCHAR
STARTCHAR t.end
ENCODING -1
SWIDTH 276 0
DWIDTH 3 0
BBX 4 8 0 0
BITMAP
28
38
7D
74
B0
F0
E0
B0
ENDCHAR
STARTCHAR u.end
ENCODING -1
SWIDTH 459 0
DWIDTH 6 0
BBX 6 6 0 0
BITMAP
75D0
B6D0
B2C0
E380
E780
B6D0
ENDCHAR
STARTCHAR uacute.end
ENCODING -1
SWIDTH 459 0
DWIDTH 6 0
BBX 6 9 0 0
BITMAP
0280
0300
0100
75D0
B6D0
B2C0
E380
E780
B6D0
ENDCHAR
STARTCHAR x.end
ENCODING -1
SWIDTH 500 0
DWIDTH 6 0
BBX 6 6 0 0
BITMAP
1E60
1760
4780
4B40
1780
62D0
ENDCHAR
STARTCHAR y.end
ENCODING -1
SWIDTH 460 0
DWIDTH 6 0
BBX 6 9 0 -3
BITMAP
75D0
B6D0
B2C0
E380
E780
BB40
2B00
5B00
6D00
ENDCHAR
STARTCHAR k.salt
ENCODING -1
SWIDTH 518 0
DWIDTH 6 0
BBX 8 9 -1 0
BITMAP
0100
0F00
0E00
1D64
1F90
2DF0
38F0
38E5
74B8
ENDCHAR
STARTCHAR p.salt
ENCODING -1
SWIDTH 482 0
DWIDTH 6 0
BBX 7 10 -1 -3
BITMAP
0900
1EE0
2D70
2C74
38B4
3AA0
7780
B000
B000
9000
ENDCHAR
STARTCHAR E_x
ENCODING -1
SWIDTH 797 0
DWIDTH 10 0
BBX 10 9 0 0
BITMAP
07A000
1D3000
1D1480
1E1D50
3C1E80
B40F40
F40E10
B42B60
6E4780
ENDCHAR
STARTCHAR F_i
ENCODING -1
SWIDTH 726 0
DWIDTH 9 0
BBX 9 9 0 0
BITMAP
1BFF80
639A00
974000
DB4B00
5B9E00
0F1E00
1E1D00
1D2D80
2C1E40
ENDCHAR
STARTCHAR T_h
ENCODING -1
SWIDTH 971 0
DWIDTH 12 0
BBX 12 9 0 0
BITMAP
1AFE80
62C740
D2C740
938BB4
078B38
074E38
0B1D74
0B1D75
0E2C79
ENDCHAR
STARTCHAR T_i
ENCODING -1
SWIDTH 744 0
DWIDTH 9 0
BBX 9 9 0 0
BITMAP
1AFF80
62DA40
92C000
D38B00
078B00
074E00
0B1E00
0B1D40
0E0F40
ENDCHAR
STARTCHAR a_x
ENCODING -1
SWIDTH 899 0
DWIDTH 11 0
BBX 11 6 0 0
BITMAP
1EE764
75D394
F1D3E0
E2C2C0
E7DAD8
B9E4F4
ENDCHAR
STARTCHAR a_z
ENCODING -1
SWIDTH 906 0
DWIDTH 11 0
BBX 11 6 0 0
BITMAP
1EE6B8
75D5B0
F1D1D0
E2C2C0
E3C750
BADFA0
ENDCHAR
STARTCHAR b_s
ENCODING -1
SWIDTH 799 0
DWIDTH 10 0
BBX 10 9 0 0
BITMAP
040000
3C0000
380100
7B4B80
B5E780
B1C380
F2A790
E363D0
B92A00
ENDCHAR
STARTCHAR b_s_x
ENCODING -1
SWIDTH 1144 0
DWIDTH 14 0
BBX 14 9 0 0
BITMAP
14000000
38000000
38014090
76879D50
B1D38E80
B1838F40
E2A79F10
E723DB60
B92A0380
ENDCHAR
STARTCHAR b_s_z
ENCODING -1
SWIDTH 1158 0
DWIDTH 14 0
BBX 14 9 0 0
BITMAP
04000000
3C000000
38010000
7F4B9AE0
B5E796C0
B1C38740
F2A78B00
E3639D90
B92A7E80
ENDCHAR
STARTCHAR c_x
ENCODING -1
SWIDTH 755 0
DWIDTH 9 0
BBX 11 6 -1 0
BITMAP
0BDE60
1D9E20
3C0B80
780B40
381B94
2E92D0
ENDCHAR
STARTCHAR c_z
ENCODING -1
SWIDTH 769 0
DWIDTH 9 0
BBX 10 6 -1 0
BITMAP
0B8AF0
1D9DD0
3C0380
380740
780E50
2E6FD0
ENDCHAR
STARTCHAR e_x
ENCODING -1
SWIDTH 762 0
DWIDTH 9 0
BBX 10 6 0 0
BITMAP
1F7980
766C80
F72E40
F91D00
E06E50
BA4B80
ENDCHAR
STARTCHAR e_z
ENCODING -1
SWIDTH 788 0
DWIDTH 9 0
BBX 11 6 -1 0
BITMAP
0B8AF4
1D99E0
3DC2C0
7E0740
780B10
2E5FA0
ENDCHAR
STARTCHAR eacute_x
ENCODING -1
SWIDTH 760 0
DWIDTH 9 0
BBX 10 9 0 0
BITMAP
018000
024000
020000
1F7980
766C80
F72E40
F81D00
E06E50
BA4B80
ENDCHAR
STARTCHAR f_f_t
ENCODING -1
SWIDTH 780 0
DWIDTH 9 0
BBX 13 12 -3 -3
BITMAP
007AE900
00B38B00
00E74E00
01FFAF40
02DB1D00
02CF2D00
03CE2C00
039D3D40
07AD2E00
2B6C0000
5B380000
6EA00000
ENDCHAR
STARTCHAR f_i_x
ENCODING -1
SWIDTH 898 0
DWIDTH 11 0
BBX 14 12 -3 -3
BITMAP
002E4000
00B28000
00E14040
01F79DA0
01D74E50
02CB4E80
03CB0B00
038F6B60
074B93D0
1B400000
5B000000
6D000000
ENDCHAR
STARTCHAR f_i_z
ENCODING -1
SWIDTH 904 0
DWIDTH 11 0
BBX 14 12 -3 -3
BITMAP
002E4000
00B28000
00E10000
01F79AE0
01D756C0
02CB4740
03CB0B00
038F1D90
074B7E80
1B400000
5B000000
6D000000
ENDCHAR
STARTCHAR f_l_x
ENCODING -1
SWIDTH 912 0
DWIDTH 11 0
BBX 14 12 -3 -3
BITMAP
007A4000
00B1D000
00E2C000
01F78E60
02D38E60
02C74B80
03CB0B00
038B5B60
074793D0
2B400000
5B000000
6D000000
ENDCHAR
STARTCHAR f_l_z
ENCODING -1
SWIDTH 938 0
DWIDTH 11 0
BBX 14 12 -3 -3
BITMAP
007A4000
00B1D000
00E2C000
01F78AF0
02D389D0
02C74280
03CB4740
038B0E50
0747AF90
2B400000
5B000000
6D000000
ENDCHAR
STARTCHAR f_t
ENCODING -1
SWIDTH 548 0
DWIDTH 7 0
BBX 10 12 -3 -3
BITMAP
007A40
00B1D0
00E2C0
01FBD0
02D380
02C740
03CB40
038B60
074780
2B4000
5B0000
6D0000
ENDCHAR
STARTCHAR f_u
ENCODING -1
SWIDTH 772 0
DWIDTH 9 0
BBX 13 12 -3 -3
BITMAP
00790000
00B10000
00E00000
01FB8E00
02D75D00
02C76D00
03CB2C00
038F7D40
074BAE00
2B400000
5B000000
6D000000
ENDCHAR
STARTCHAR f_x
ENCODING -1
SWIDTH 663 0
DWIDTH 8 0
BBX 12 12 -3 -3
BITMAP
007900
00B200
00E000
01FB98
02D398
02C3E0
03C3C0
038AD5
0758E4
1B4000
5F0000
6D0000
ENDCHAR
STARTCHAR g_p
ENCODING -1
SWIDTH 975 0
DWIDTH 12 0
BBX 12 10 0 -3
BITMAP
000240
1EE7AC
75D75D
F1DB1D
E2CF2D
E38E38
BBEFE0
1B6D00
2B2C00
2D2800
ENDCHAR
STARTCHAR g_x
ENCODING -1
SWIDTH 892 0
DWIDTH 11 0
BBX 11 9 0 -3
BITMAP
1EE764
75D754
F1D3A0
E2C3C0
E78AD8
BBE1E4
1B4000
2B0000
2D0000
ENDCHAR
STARTCHAR g_z
ENCODING -1
SWIDTH 907 0
DWIDTH 11 0
BBX 11 9 0 -3
BITMAP
1EE6B8
75D5B0
F1D1D0
E2C2C0
E38750
BB8FA0
1B4000
5B0000
2D0000
ENDCHAR
STARTCHAR i_x
ENCODING -1
SWIDTH 631 0
DWIDTH 8 0
BBX 8 9 0 0
BITMAP
2800
2800
0008
76D5
B5D8
B0F4
E0E0
E6B6
B878
ENDCHAR
STARTCHAR i_z
ENCODING -1
SWIDTH 637 0
DWIDTH 8 0
BBX 8 9 0 0
BITMAP
2800
2800
0000
75BD
B678
B074
E0E0
E2C8
B7E8
ENDCHAR
STARTCHAR iacute_x
ENCODING -1
SWIDTH 631 0
DWIDTH 8 0
BBX 8 9 0 0
BITMAP
0900
1800
0008
76D5
B5D8
B0F4
E0E0
E6B6
B878
ENDCHAR
STARTCHAR iacute_z
ENCODING -1
SWIDTH 637 0
DWIDTH 8 0
BBX 8 9 0 0
BITMAP
0900
1800
1000
75BD
B678
B074
E0E0
E2C8
B7E8
ENDCHAR
STARTCHAR j_x
ENCODING -1
SWIDTH 624 0
DWIDTH 7 0
BBX 11 11 -3 -3
BITMAP
00E000
00A000
01DB20
02D760
02C790
038380
038BD8
07A1E0
1F0000
5B0000
6D0000
ENDCHAR
STARTCHAR j_z
ENCODING -1
SWIDTH 618 0
DWIDTH 7 0
BBX 10 11 -3 -3
BITMAP
00A000
00A000
01DAF0
01D9E0
02C2C0
03C740
038A20
075FD0
2B4000
5B0000
6D0000
ENDCHAR
STARTCHAR l_x
ENCODING -1
SWIDTH 631 0
DWIDTH 8 0
BBX 8 9 0 0
BITMAP
1400
3C00
3808
76D5
B5D8
B0F4
E0E0
E6B6
B878
ENDCHAR
STARTCHAR l_z
ENCODING -1
SWIDTH 635 0
DWIDTH 8 0
BBX 8 9 0 0
BITMAP
0400
3C00
3800
75BD
B678
B074
F0E0
E2C4
B7E8
ENDCHAR
STARTCHAR m_x
ENCODING -1
SWIDTH 1124 0
DWIDTH 13 0
BBX 15 6 -1 0
BITMAP
1EE78B20
2DB6C760
2CB2C7D0
38E38380
39E39BD8
75D2E1E0
ENDCHAR
STARTCHAR m_z
ENCODING -1
SWIDTH 1125 0
DWIDTH 14 0
BBX 15 6 -1 0
BITMAP
1EE78AF4
2DB6C4E0
2CB2C2C0
38E38780
39E38B20
75D2EFA0
ENDCHAR
STARTCHAR n_z
ENCODING -1
SWIDTH 882 0
DWIDTH 11 0
BBX 12 6 -1 0
BITMAP
1EE2BD
2DB138
2CB0B4
38E0E0
38E2C8
74B7E8
ENDCHAR
STARTCHAR o_ae
ENCODING -1
SWIDTH 1089 0
DWIDTH 13 0
BBX 13 6 0 0
BITMAP
1E46EB80
76907880
F18AF640
E26CB900
E32CF040
B91EBA40
ENDCHAR
STARTCHAR o_s
ENCODING -1
SWIDTH 786 0
DWIDTH 9 0
BBX 10 6 0 0
BITMAP
1E4B40
76A740
F28780
E26790
E367C0
B92E00
ENDCHAR
STARTCHAR o_s_x
ENCODING -1
SWIDTH 1132 0
DWIDTH 14 0
BBX 14 6 0 0
BITMAP
1E4B6D90
76975D90
F2878F40
E2679E10
E7639B60
BD2E0780
ENDCHAR
STARTCHAR o_s_z
ENCODING -1
SWIDTH 1139 0
DWIDTH 14 0
BBX 14 6 0 0
BITMAP
1E4B5BD0
76A75680
F2878740
E2678E00
E367ADC0
B92E7E80
ENDCHAR
STARTCHAR o_x
ENCODING -1
SWIDTH 851 0
DWIDTH 10 0
BBX 11 6 0 0
BITMAP
1E4E60
759F20
F28B90
E24B40
E32744
B932D0
ENDCHAR
STARTCHAR oacute_s
ENCODING -1
SWIDTH 787 0
DWIDTH 9 0
BBX 10 9 0 0
BITMAP
028000
030000
010000
1E4B40
76A740
F28780
E26790
E363C0
B92E00
ENDCHAR
STARTCHAR oacute_s_x
ENCODING -1
SWIDTH 1141 0
DWIDTH 14 0
BBX 14 9 0 0
BITMAP
01800000
03000000
01000000
1E4B5BD0
76A756C0
F1878740
E2678E00
E363ADC0
B92E7E80
ENDCHAR
STARTCHAR oacute_s_z
ENCODING -1
SWIDTH 1140 0
DWIDTH 14 0
BBX 14 9 0 0
BITMAP
02800000
03000000
01000000
1E4B5BD0
76A75680
F2878740
E2678E40
E363ADC0
B92E7E80
ENDCHAR
STARTCHAR oacute_x
ENCODING -1
SWIDTH 852 0
DWIDTH 10 0
BBX 11 9 0 0
BITMAP
018000
034000
060000
1E4E60
759F20
F28B90
E24B40
E32784
B932E0
ENDCHAR
STARTCHAR r_x
ENCODING -1
SWIDTH 784 0
DWIDTH 9 0
BBX 11 7 -1 0
BITMAP
000020
1EDF24
2C5B20
2C0790
380B80
382784
7425E0
ENDCHAR
STARTCHAR r_z
ENCODING -1
SWIDTH 654 0
DWIDTH 8 0
BBX 9 6 -1 0
BITMAP
1EFB80
2D9B00
2C1D00
382800
387640
74FA00
ENDCHAR
STARTCHAR s_x
ENCODING -1
SWIDTH 727 0
DWIDTH 9 0
BBX 10 7 -1 0
BITMAP
014090
079D50
0B9E80
178F40
238F00
53EB60
2E0790
ENDCHAR
STARTCHAR s_z
ENCODING -1
SWIDTH 744 0
DWIDTH 9 0
BBX 10 7 -1 0
BITMAP
010000
079AE0
0B96C0
178780
238B00
639D50
2E3E80
ENDCHAR
STARTCHAR t_x
ENCODING -1
SWIDTH 631 0
DWIDTH 8 0
BBX 8 7 0 0
BITMAP
3800
BFD9
75D9
B1E8
F0E0
E1F1
B979
ENDCHAR
STARTCHAR t_z
ENCODING -1
SWIDTH 704 0
DWIDTH 8 0
BBX 9 8 0 0
BITMAP
280000
380000
7DAF40
749E00
B02C00
F07400
E0B200
B1FA00
ENDCHAR
STARTCHAR u_v
ENCODING -1
SWIDTH 923 0
DWIDTH 11 0
BBX 11 6 0 0
BITMAP
75D798
B6D748
B2CB08
E38F24
E78E60
BB4B80
ENDCHAR
STARTCHAR u_x
ENCODING -1
SWIDTH 878 0
DWIDTH 11 0
BBX 11 7 0 0
BITMAP
000020
75DB14
B6D760
B2C3C0
E38384
E79BD8
B6E1E0
ENDCHAR
STARTCHAR y_p
ENCODING -1
SWIDTH 954 0
DWIDTH 11 0
BBX 11 10 0 -3
BITMAP
000240
75D7B8
B6DB2C
B2CF2C
E38E2C
E79D78
BBBFE0
1F6C00
5F3800
7D3400
ENDCHAR
STARTCHAR y_x
ENCODING -1
SWIDTH 871 0
DWIDTH 10 0
BBX 11 9 0 -3
BITMAP
75DB20
B6D760
B2C790
E38380
E78BD8
BBA1E0
1F0000
5F0000
7D0000
ENDCHAR
STARTCHAR y_z
ENCODING -1
SWIDTH 888 0
DWIDTH 11 0
BBX 11 9 0 -3
BITMAP
75D6F4
B6D9E0
B2C1D0
E38380
E78B20
BB5FA0
1B0000
5B0000
6D0000
ENDCHAR
STARTCHAR a_x.end
ENCODING -1
SWIDTH 884 0
DWIDTH 11 0
BBX 11 6 0 0
BITMAP
1EE764
75D394
F1D3A0
E2C2C0
E7DAD0
B9E4E0
ENDCHAR
STARTCHAR b_s.end
ENCODING -1
SWIDTH 731 0
DWIDTH 9 0
BBX 9 9 0 0
BITMAP
040000
3C0000
380100
7B4B80
B5E780
B1C380
F2A780
E36380
B92A40
ENDCHAR
STARTCHAR e_x.end
ENCODING -1
SWIDTH 747 0
DWIDTH 9 0
BBX 9 6 0 0
BITMAP
1F7980
766C80
F72E40
F91D00
E06D00
BA4B40
ENDCHAR
STARTCHAR f_u.end
ENCODING -1
SWIDTH 724 0
DWIDTH 9 0
BBX 12 12 -3 -3
BITMAP
007900
00B100
00E000
01FB8E
02D75D
02C76D
03CB2C
038F7C
074BAD
2B4000
5B0000
6D0000
ENDCHAR
STARTCHAR fi.end
ENCODING -1
SWIDTH 479 0
DWIDTH 6 0
BBX 9 12 -3 -3
BITMAP
002E40
00B280
00E100
01F780
01D740
02CB40
03CB00
038F00
074B40
1B4000
5B0000
6D0000
ENDCHAR
STARTCHAR fl.end
ENCODING -1
SWIDTH 490 0
DWIDTH 6 0
BBX 10 12 -3 -3
BITMAP
007A40
00B1D0
00E2C0
01F780
02D380
02C740
03CB40
038B00
074780
2B4000
5B0000
6D0000
ENDCHAR
STARTCHAR i_x.end
ENCODING -1
SWIDTH 616 0
DWIDTH 7 0
BBX 8 9 0 0
BITMAP
2800
2800
0008
76D5
B5D8
B0F4
E0E0
E6B4
B878
ENDCHAR
STARTCHAR o_s.end
ENCODING -1
SWIDTH 718 0
DWIDTH 9 0
BBX 9 6 0 0
BITMAP
1E4B40
76A740
F28780
E26780
E36780
B92E00
ENDCHAR
STARTCHAR oacute_s.end
ENCODING -1
SWIDTH 719 0
DWIDTH 9 0
BBX 9 9 0 0
BITMAP
028000
030000
010000
1E4B40
76A740
F28780
E26780
E36380
B92E00
ENDCHAR
STARTCHAR u_x.end
ENCODING -1
SWIDTH 863 0
DWIDTH 10 0
BBX 11 6 0 0
BITMAP
75DB20
B6D764
B2C7A0
E38380
E78BC0
B6E5E0
ENDCHAR
STARTCHAR uni0424.loclBGR
ENCODING -1
SWIDTH 840 0
DWIDTH 10 0
BBX 10 12 0 -2
BITMAP
06A800
0D3C00
047900
0ABA80
3874E0
B0B0B0
B0E0B0
B0E0E0
75D280
1BE900
02C000
014000
ENDCHAR
STARTCHAR uni0492.loclBSH
ENCODING -1
SWIDTH 459 0
DWIDTH 6 0
BBX 7 9 0 0
BITMAP
17A8
6740
9B40
DB00
5FE0
1E00
1D00
2C00
3C00
ENDCHAR
STARTCHAR uni04AA.loclCHU
ENCODING -1
SWIDTH 497 0
DWIDTH 6 0
BBX 7 12 0 -3
BITMAP
07A0
1E24
3C24
7800
B400
B400
B400
B820
2F80
0500
0640
0900
ENDCHAR
STARTCHAR uni0418.loclSRB
ENCODING -1
SWIDTH 705 0
DWIDTH 8 0
BBX 9 9 0 0
BITMAP
0B8380
278740
974F40
9B3F00
0FAF00
0F8E00
1E1D00
1D2D00
2C2C00
ENDCHAR
STARTCHAR uni0419.loclSRB
ENCODING -1
SWIDTH 705 0
DWIDTH 8 0
BBX 9 11 0 0
BITMAP
00A200
006800
0B8380
278740
974F40
9B3F00
0FAF00
0F8E00
1E1D00
1D2D00
2C2C00
ENDCHAR
STARTCHAR uni0430.end
ENCODING -1
SWIDTH 467 0
DWIDTH 6 0
BBX 6 6 0 0
BITMAP
1EE0
75D0
F1D0
E2C0
E3C0
BAD0
ENDCHAR
STARTCHAR uni0432.end
ENCODING -1
SWIDTH 406 0
DWIDTH 5 0
BBX 5 9 0 0
BITMAP
0B40
1C80
3880
7580
B240
E740
E180
E240
7A00
ENDCHAR
STARTCHAR uni0434.end
ENCODING -1
SWIDTH 480 0
DWIDTH 6 0
BBX 6 9 0 -3
BITMAP
1EE0
75D0
F1D0
E2C0
E380
BB80
1B40
5B00
2D00
ENDCHAR
STARTCHAR uni0435.end
ENCODING -1
SWIDTH 366 0
DWIDTH 4 0
BBX 5 6 0 0
BITMAP
1F40
7640
F700
F900
E000
B900
ENDCHAR
STARTCHAR uni0451.end
ENCODING -1
SWIDTH 366 0
DWIDTH 4 0
BBX 5 8 0 0
BITMAP
19C0
0000
1F40
7640
F700
F900
E000
B900
ENDCHAR
STARTCHAR uni0436.end
ENCODING -1
SWIDTH 848 0
DWIDTH 10 0
BBX 12 6 -1 0
BITMAP
1B5D7D
129DE4
02FEC0
137AC0
6739C0
6974A8
ENDCHAR
STARTCHAR uni0437.end
ENCODING -1
SWIDTH 426 0
DWIDTH 5 0
BBX 5 9 0 -3
BITMAP
1B40
12C0
42C0
4740
1E00
0B00
1B40
5B00
2D00
ENDCHAR
STARTCHAR uni0438.end
ENCODING -1
SWIDTH 459 0
DWIDTH 6 0
BBX 6 6 0 0
BITMAP
75D0
B6D0
B2C0
E380
E780
B6D0
ENDCHAR
STARTCHAR uni0439.end
ENCODING -1
SWIDTH 459 0
DWIDTH 6 0
BBX 6 9 0 0
BITMAP
0410
1C50
0A40
75D0
B6D0
B2C0
E380
E780
B6D0
ENDCHAR
STARTCHAR uni043A.end
ENCODING -1
SWIDTH 501 0
DWIDTH 6 0
BBX 7 6 -1 0
BITMAP
1D68
1D40
2FD0
3CE0
38E0
74B4
ENDCHAR
STARTCHAR uni043B.end
ENCODING -1
SWIDTH 511 0
DWIDTH 6 0
BBX 7 6 -1 0
BITMAP
00BC
0268
0238
1274
6574
6838
ENDCHAR
STARTCHAR uni043C.end
ENCODING -1
SWIDTH 780 0
DWIDTH 9 0
BBX 11 6 -1 0
BITMAP
00B0B4
01B1F0
0272E0
0275E0
6579E0
2874F0
ENDCHAR
STARTCHAR uni043D.end
ENCODING -1
SWIDTH 460 0
DWIDTH 6 0
BBX 7 6 -1 0
BITMAP
1D74
2D74
2EF0
38E0
38E0
74B4
ENDCHAR
STARTCHAR uni043E.end
ENCODING -1
SWIDTH 439 0
DWIDTH 5 0
BBX 5 6 0 0
BITMAP
1E40
7580
F180
E240
E300
B900
ENDCHAR
STARTCHAR uni043F.end
ENCODING -1
SWIDTH 454 0
DWIDTH 5 0
BBX 6 6 -1 0
BITMAP
1EE0
2DB0
2CB0
38E0
38E0
74B0
ENDCHAR
STARTCHAR uni0441.end
ENCODING -1
SWIDTH 341 0
DWIDTH 4 0
BBX 6 6 -1 0
BITMAP
0B80
1D90
3C00
3800
7800
2E40
ENDCHAR
STARTCHAR uni0442.end
ENCODING -1
SWIDTH 701 0
DWIDTH 8 0
BBX 9 6 -1 0
BITMAP
1EEB80
2DB6C0
2CB2C0
38E380
39E380
75D2C0
ENDCHAR
STARTCHAR uni0443.end
ENCODING -1
SWIDTH 460 0
DWIDTH 6 0
BBX 6 9 0 -3
BITMAP
75D0
B6D0
B2C0
E380
E780
BB40
2B00
5B00
6D00
ENDCHAR
STARTCHAR uni0445.end
ENCODING -1
SWIDTH 500 0
DWIDTH 6 0
BBX 6 6 0 0
BITMAP
1E60
1760
4780
4B40
1780
62D0
ENDCHAR
STARTCHAR uni0447.end
ENCODING -1
SWIDTH 459 0
DWIDTH 6 0
BBX 6 6 0 0
BITMAP
75D0
B6D0
B7C0
7B80
0380
02D0
ENDCHAR
STARTCHAR uni0448.end
ENCODING -1
SWIDTH 706 0
DWIDTH 8 0
BBX 9 6 0 0
BITMAP
75D740
B6DB00
B2CB00
E38E00
E7AE00
B6DB00
ENDCHAR
STARTCHAR uni044B.end
ENCODING -1
SWIDTH 608 0
DWIDTH 7 0
BBX 8 6 0 0
BITMAP
741D
B07C
B768
E278
E778
BD38
ENDCHAR
STARTCHAR uni0455.end
ENCODING -1
SWIDTH 316 0
DWIDTH 4 0
BBX 5 6 -1 0
BITMAP
0780
0B80
1780
2380
6380
2E00
ENDCHAR
STARTCHAR uni0456.end
ENCODING -1
SWIDTH 209 0
DWIDTH 3 0
BBX 3 9 0 0
BITMAP
28
28
00
74
B4
B0
E0
E0
B4
ENDCHAR
STARTCHAR uni0458.end
ENCODING -1
SWIDTH 213 0
DWIDTH 3 0
BBX 6 11 -3 -3
BITMAP
00A0
00A0
01D0
02D0
02C0
0380
0380
0740
2F40
5B00
6D00
ENDCHAR
STARTCHAR uni044E.end
ENCODING -1
SWIDTH 675 0
DWIDTH 8 0
BBX 9 6 -1 0
BITMAP
1D2E00
2DB640
2EE240
39E240
39D200
74B800
ENDCHAR
STARTCHAR uni044F.end
ENCODING -1
SWIDTH 480 0
DWIDTH 6 0
BBX 7 6 -1 0
BITMAP
06B8
0D34
0D74
0BF0
66B0
68B4
ENDCHAR
STARTCHAR uni0437.init
ENCODING -1
SWIDTH 455 0
DWIDTH 5 0
BBX 6 9 0 -3
BITMAP
2E00
8780
0740
0B00
3D20
0E80
2E00
9E00
B800
ENDCHAR
STARTCHAR uni0445.init
ENCODING -1
SWIDTH 390 0
DWIDTH 5 0
BBX 6 7 -1 0
BITMAP
0090
2C50
1D80
0F40
2E00
5B10
A790
ENDCHAR
STARTCHAR uni0436.loclBGR
ENCODING -1
SWIDTH 882 0
DWIDTH 11 0
BBX 12 9 -1 0
BITMAP
000500
000A00
000E00
1B5D7D
129DE4
02FEC0
137AC0
6739C1
6974A4
ENDCHAR
STARTCHAR uni043A.loclBGR
ENCODING -1
SWIDTH 518 0
DWIDTH 6 0
BBX 8 9 -1 0
BITMAP
0100
0F00
0E00
1D60
1E80
2EF0
38B0
38E5
74B8
ENDCHAR
STARTCHAR uni044E.loclBGR
ENCODING -1
SWIDTH 675 0
DWIDTH 8 0
BBX 11 9 -1 0
BITMAP
050000
0E0000
0E0000
1D2E00
2DB694
2EE280
39E240
39D600
74B800
ENDCHAR
STARTCHAR uni0493.loclBSH
ENCODING -1
SWIDTH 398 0
DWIDTH 5 0
BBX 6 6 -1 0
BITMAP
2EA0
2800
3A40
7400
7500
7900
ENDCHAR
STARTCHAR uni04AB.loclCHU
ENCODING -1
SWIDTH 384 0
DWIDTH 5 0
BBX 5 9 0 -3
BITMAP
1F40
7640
F000
E000
E140
BD00
0800
0A00
2400
ENDCHAR
STARTCHAR uni0453.loclMKD
ENCODING -1
SWIDTH 267 0
DWIDTH 3 0
BBX 4 11 0 0
BITMAP
06
08
00
69
00
74
B4
B0
E0
E5
B8
ENDCHAR
STARTCHAR uni0433.loclSRB
ENCODING -1
SWIDTH 267 0
DWIDTH 3 0
BBX 4 8 0 0
BITMAP
69
00
74
B4
B0
E0
E5
B8
ENDCHAR
STARTCHAR uni043F.loclSRB
ENCODING -1
SWIDTH 505 0
DWIDTH 6 0
BBX 7 8 0 0
BITMAP
1A90
0000
75D0
B6D0
B2C0
E380
E794
B6D0
ENDCHAR
STARTCHAR uni0442.loclSRB
ENCODING -1
SWIDTH 752 0
DWIDTH 9 0
BBX 10 8 0 0
BITMAP
1AAA00
000000
75D740
B6DB00
B2CB00
E38E00
E7AE50
B6DB40
ENDCHAR
STARTCHAR uni04150437
ENCODING -1
SWIDTH 940 0
DWIDTH 11 0
BBX 12 12 0 -3
BITMAP
079000
1D3000
1C6000
0E02E0
2D0474
B810B4
F410E0
B447C1
7E41E4
0006E0
0009D0
000B80
ENDCHAR
STARTCHAR uni04150445
ENCODING -1
SWIDTH 797 0
DWIDTH 10 0
BBX 10 9 0 0
BITMAP
07A000
1D3000
1D1480
1E1D50
3C1E80
B40F40
F40E10
B42B60
6E4780
ENDCHAR
STARTCHAR uni04010437
ENCODING -1
SWIDTH 940 0
DWIDTH 11 0
BBX 12 14 0 -3
BITMAP
036400
000000
079000
1D3000
1C6000
0E02E0
2D0474
B810B4
F410E0
B447C1
7E41E4
0006E0
0009D0
000B80
ENDCHAR
STARTCHAR uni04010445
ENCODING -1
SWIDTH 797 0
DWIDTH 10 0
BBX 10 11 0 0
BITMAP
036400
000000
07A000
1D3000
1D1480
1E1D50
3C1E80
B40F40
F40E10
B42B60
6E4780
ENDCHAR
STARTCHAR uni04210437
ENCODING -1
SWIDTH 973 0
DWIDTH 12 0
BBX 12 12 0 -3
BITMAP
07A000
1E2400
3C2400
7801B4
B40438
B40438
B410B4
B412D1
2E40F5
0002F0
0009E0
000780
ENDCHAR
STARTCHAR uni04210445
ENCODING -1
SWIDTH 814 0
DWIDTH 10 0
BBX 10 9 0 0
BITMAP
07A000
1E2400
3C1490
781D60
B40E80
B40F40
B40F00
B86B60
2F8390
ENDCHAR
STARTCHAR uni04040437
ENCODING -1
SWIDTH 973 0
DWIDTH 12 0
BBX 12 12 0 -3
BITMAP
07E000
1E2400
3C2400
7801B4
BE8438
B40438
B410B4
B412D1
2E40F5
0002F0
0009E0
000780
ENDCHAR
STARTCHAR uni04040445
ENCODING -1
SWIDTH 814 0
DWIDTH 10 0
BBX 10 9 0 0
BITMAP
07E000
1E2400
3C1490
781D60
BE8E90
B40E80
B40B00
B82B60
2F93D0
ENDCHAR
STARTCHAR uni04300445
ENCODING -1
SWIDTH 899 0
DWIDTH 11 0
BBX 11 6 0 0
BITMAP
1EE764
75D394
F1D3E0
E2C2C0
E7DAD8
B9E4F4
ENDCHAR
STARTCHAR uni04300447
ENCODING -1
SWIDTH 993 0
DWIDTH 12 0
BBX 12 6 0 0
BITMAP
1EE75D
75DB2C
F1DB7C
E2CBB8
E3C075
BAD039
ENDCHAR
STARTCHAR uni04310433
ENCODING -1
SWIDTH 816 0
DWIDTH 10 0
BBX 10 9 0 0
BITMAP
0BF800
0FF000
060000
1F4B80
75A2D0
F1C7C0
E25E00
E22C10
B91E80
ENDCHAR
STARTCHAR uni04310453
ENCODING -1
SWIDTH 816 0
DWIDTH 10 0
BBX 10 9 0 0
BITMAP
0BF8D0
0FF180
060100
1F4B80
75A2D0
F1C7C0
E25E00
E22C10
B91E80
ENDCHAR
STARTCHAR uni04310451
ENCODING -1
SWIDTH 814 0
DWIDTH 10 0
BBX 10 9 0 0
BITMAP
0FF400
0FE620
060000
1B47D0
759E60
F1ADD0
E27E40
E33C10
B91F80
ENDCHAR
STARTCHAR uni04310436
ENCODING -1
SWIDTH 1261 0
DWIDTH 15 0
BBX 16 9 0 0
BITMAP
0BF80000
0FF00000
06000000
1B5B5D7C
75D3ADD4
F1C3FFC0
E2437AC0
E36776C5
B92974E4
ENDCHAR
STARTCHAR uni04310439
ENCODING -1
SWIDTH 935 0
DWIDTH 11 0
BBX 12 9 0 0
BITMAP
0BF604
0FE754
060290
1B4E38
759D74
F1ADB4
E26CB0
E33CE1
B92EB4
ENDCHAR
STARTCHAR uni0431045E
ENCODING -1
SWIDTH 916 0
DWIDTH 11 0
BBX 12 12 0 -3
BITMAP
0BF604
0FE754
060290
1B4E38
759D74
F1ADB0
E26CB0
E33CE5
B92EE4
0006D0
0016C0
000F40
ENDCHAR
STARTCHAR uni0431044D
ENCODING -1
SWIDTH 860 0
DWIDTH 10 0
BBX 10 9 0 0
BITMAP
0BF800
0FF000
060000
1B4AD0
75A0E0
F1C6E0
E281D0
E362C0
B92A00
ENDCHAR
STARTCHAR uni04310456
ENCODING -1
SWIDTH 697 0
DWIDTH 8 0
BBX 9 9 0 0
BITMAP
0BFA00
0FDB00
060000
1B4E00
759D00
F1AD00
E26C00
E33C40
B92E00
ENDCHAR
STARTCHAR uni04310457
ENCODING -1
SWIDTH 697 0
DWIDTH 8 0
BBX 9 9 0 0
BITMAP
0FE000
0F9980
060000
1B4E00
759D00
F1AD00
E26C00
E33C40
B92E00
ENDCHAR
STARTCHAR uni04310458
ENCODING -1
SWIDTH 669 0
DWIDTH 8 0
BBX 9 12 0 -3
BITMAP
002000
0FEA00
079A00
1A0E00
755D00
F1AD00
E2AC00
E33940
B97900
01B400
06B000
02D000
ENDCHAR
STARTCHAR uni04320433
ENCODING -1
SWIDTH 837 0
DWIDTH 10 0
BBX 10 9 0 0
BITMAP
0B4000
1C8000
388000
7587C0
B251D0
E787C0
E19F00
E26D10
791F80
ENDCHAR
STARTCHAR uni04320453
ENCODING -1
SWIDTH 837 0
DWIDTH 10 0
BBX 10 9 0 0
BITMAP
0B40D0
1C8180
388100
7587C0
B251D0
E787C0
E19F00
E26D10
791F80
ENDCHAR
STARTCHAR uni04320436
ENCODING -1
SWIDTH 1279 0
DWIDTH 15 0
BBX 16 9 0 0
BITMAP
0B400000
1C800000
38800000
759B4E6D
B252DDE5
E682FED0
E182ADC0
E26739C1
792934B8
ENDCHAR
STARTCHAR uni04320437
ENCODING -1
SWIDTH 824 0
DWIDTH 10 0
BBX 10 12 0 -3
BITMAP
0B4000
1C8000
388000
759B40
B253C0
E783C0
E18740
E26E10
790B50
001F00
005B00
006D00
ENDCHAR
STARTCHAR uni04320445
ENCODING -1
SWIDTH 851 0
DWIDTH 10 0
BBX 11 9 0 0
BITMAP
0B4000
1C8000
388000
759E60
B26B20
E78790
E18740
E25B44
7962D0
ENDCHAR
STARTCHAR uni04330437
ENCODING -1
SWIDTH 840 0
DWIDTH 10 0
BBX 12 9 -1 -3
BITMAP
0B82E0
22C4B0
0B90B0
2E10E0
784785
2E01D4
0006D0
000AC0
000B40
ENDCHAR
STARTCHAR uni04330445
ENCODING -1
SWIDTH 740 0
DWIDTH 9 0
BBX 10 7 -1 0
BITMAP
000050
0B9D20
22DE90
0B8F80
2E0B00
782B50
2E8390
ENDCHAR
STARTCHAR uni04330447
ENCODING -1
SWIDTH 880 0
DWIDTH 11 0
BBX 12 6 -1 0
BITMAP
0B8B3C
22CE38
0B9EB4
2E1BB5
7840B5
2E4078
ENDCHAR
STARTCHAR uni04530437
ENCODING -1
SWIDTH 840 0
DWIDTH 10 0
BBX 12 12 -1 -3
BITMAP
00A000
00C000
004000
0B82E0
22C4B0
0B90B0
2E10E0
784785
2E01D4
0006D0
000AC0
000B40
ENDCHAR
STARTCHAR uni04530445
ENCODING -1
SWIDTH 740 0
DWIDTH 9 0
BBX 10 9 -1 0
BITMAP
009000
018000
000050
0B9D20
22DE90
0B8F80
2E0B00
782B50
2E8390
ENDCHAR
STARTCHAR uni04530447
ENCODING -1
SWIDTH 880 0
DWIDTH 11 0
BBX 12 9 -1 0
BITMAP
00A000
00C000
004000
0B8B3C
22CE38
0B9EB4
2E1BB5
7840B5
2E4078
ENDCHAR
STARTCHAR uni04340447
ENCODING -1
SWIDTH 1010 0
DWIDTH 12 0
BBX 13 9 0 -3
BITMAP
1EE75D00
75D75D00
F1DB7C00
E2CBBC00
E3943840
BB902D00
1B400000
2B000000
2D000000
ENDCHAR
STARTCHAR uni04340458
ENCODING -1
SWIDTH 746 0
DWIDTH 9 0
BBX 10 11 0 -3
BITMAP
000280
000280
1EE780
75D740
F1DB00
E2CF00
E38E50
BB9E80
176D00
2B6C00
3EF400
ENDCHAR
STARTCHAR uni04350437
ENCODING -1
SWIDTH 876 0
DWIDTH 11 0
BBX 11 9 0 -3
BITMAP
1F4B80
7651E0
F711E0
F942C0
E04F48
B90390
000B80
002780
001E00
ENDCHAR
STARTCHAR uni04350445
ENCODING -1
SWIDTH 762 0
DWIDTH 9 0
BBX 10 6 0 0
BITMAP
1F7980
766C80
F72E40
F91D00
E06E50
BA4B80
ENDCHAR
STARTCHAR uni04350447
ENCODING -1
SWIDTH 889 0
DWIDTH 11 0
BBX 11 6 0 0
BITMAP
1F6CB0
767CE0
F779E0
F9BFD0
E141D8
B901E4
ENDCHAR
STARTCHAR uni04510437
ENCODING -1
SWIDTH 876 0
DWIDTH 11 0
BBX 11 11 0 -3
BITMAP
19C000
000000
1F4B80
7651E0
F711E0
F942C0
E04F48
B90390
000B80
002780
001E00
ENDCHAR
STARTCHAR uni04510445
ENCODING -1
SWIDTH 762 0
DWIDTH 9 0
BBX 10 8 0 0
BITMAP
19C000
000000
1F7980
766C80
F72E40
F91D00
E06E50
BA4B80
ENDCHAR
STARTCHAR uni04510447
ENCODING -1
SWIDTH 889 0
DWIDTH 11 0
BBX 11 8 0 0
BITMAP
19C000
000000
1F6CB0
767CE0
F779E0
F9BFD0
E141D8
B901E4
ENDCHAR
STARTCHAR uni04360447
ENCODING -1
SWIDTH 1392 0
DWIDTH 17 0
BBX 18 6 -1 0
BITMAP
1B5D7DB2C0
129DE4E380
02FEC1EB80
137AC1BB50
6739C50B60
6974A40780
ENDCHAR
STARTCHAR uni04370437
ENCODING -1
SWIDTH 921 0
DWIDTH 11 0
BBX 12 9 0 -3
BITMAP
1B46E0
52C4B0
82D0B0
4751E0
1E1785
0B42D4
1B46D0
6B0AC0
2D0B40
ENDCHAR
STARTCHAR uni04380447
ENCODING -1
SWIDTH 1010 0
DWIDTH 12 0
BBX 13 6 0 0
BITMAP
75D75D00
B6D75D00
B2CB7C00
E38BB840
E7943940
B6D02D00
ENDCHAR
STARTCHAR uni04390447
ENCODING -1
SWIDTH 1010 0
DWIDTH 12 0
BBX 13 9 0 0
BITMAP
04100000
1C500000
0A400000
75D75D00
B6D75D00
B2CB7C00
E38BB840
E7943940
B6D02D00
ENDCHAR
STARTCHAR uni043A0447
ENCODING -1
SWIDTH 1016 0
DWIDTH 12 0
BBX 14 6 -1 0
BITMAP
1D68E380
1D41D740
2FD1DB40
3CE2EF00
38E50F50
74B80B80
ENDCHAR
STARTCHAR uni045C0447
ENCODING -1
SWIDTH 1016 0
DWIDTH 12 0
BBX 14 9 -1 0
BITMAP
00600000
00900000
00400000
1D68E380
1D41D740
2FD1DB40
3CE2EF00
38E50F50
74B80B80
ENDCHAR
STARTCHAR uni043B0447
ENCODING -1
SWIDTH 1061 0
DWIDTH 13 0
BBX 14 6 -1 0
BITMAP
00BCB2C0
0168B3C0
0238E780
1275BB40
75750750
28780780
ENDCHAR
STARTCHAR uni043C0447
ENCODING -1
SWIDTH 1276 0
DWIDTH 15 0
BBX 17 6 -1 0
BITMAP
01D1E38E00
02E2D75D00
02E7D76D00
12EACBBC40
65FBD43D40
28F2E02E00
ENDCHAR
STARTCHAR uni043D0447
ENCODING -1
SWIDTH 1011 0
DWIDTH 12 0
BBX 14 6 -1 0
BITMAP
1D75D740
2D75D740
2EF2DF00
38E2EF10
38E50E10
74B40B40
ENDCHAR
STARTCHAR uni043E0433
ENCODING -1
SWIDTH 804 0
DWIDTH 10 0
BBX 10 6 0 0
BITMAP
1E4B80
76A2D0
F187C0
E26E00
E23C10
B92E40
ENDCHAR
STARTCHAR uni043E0453
ENCODING -1
SWIDTH 804 0
DWIDTH 10 0
BBX 10 9 0 0
BITMAP
0000A0
0000C0
000040
1E4B80
76A2D0
F187C0
E26E00
E23C10
B92E40
ENDCHAR
STARTCHAR uni043E0436
ENCODING -1
SWIDTH 1271 0
DWIDTH 15 0
BBX 16 6 0 0
BITMAP
1E5B4D6D
76D29DE5
F182FED0
E24379C0
E36739C1
B96974A4
ENDCHAR
STARTCHAR uni043E0437
ENCODING -1
SWIDTH 837 0
DWIDTH 10 0
BBX 11 9 0 -3
BITMAP
1E5B80
7692C0
F182C0
E24780
E31E14
B90B50
001B40
006B00
002D00
ENDCHAR
STARTCHAR uni043E043B
ENCODING -1
SWIDTH 992 0
DWIDTH 12 0
BBX 12 6 0 0
BITMAP
1E40BD
7581AC
F1827C
E24238
E37675
BA692D
ENDCHAR
STARTCHAR uni043E043C
ENCODING -1
SWIDTH 1207 0
DWIDTH 14 0
BBX 15 6 0 0
BITMAP
1E40E0E0
7581E2E0
F182E3D0
E242BAC0
E772BAD8
BE68B5E0
ENDCHAR
STARTCHAR uni043E0445
ENCODING -1
SWIDTH 850 0
DWIDTH 10 0
BBX 11 6 0 0
BITMAP
1E4E60
759F20
F28B90
E24B40
E32744
B932D0
ENDCHAR
STARTCHAR uni043E0459
ENCODING -1
SWIDTH 1179 0
DWIDTH 14 0
BBX 14 6 0 0
BITMAP
1E40BD00
7581AD40
F1827ED0
E24238E0
E37635D0
BA692E40
ENDCHAR
STARTCHAR uni043E044D
ENCODING -1
SWIDTH 867 0
DWIDTH 10 0
BBX 10 6 0 0
BITMAP
1E4AD0
76A0F0
F186F0
E240E0
E332C0
B92A40
ENDCHAR
STARTCHAR uni043F0447
ENCODING -1
SWIDTH 1010 0
DWIDTH 12 0
BBX 14 6 -1 0
BITMAP
1EE1D740
2DB1DB40
2CB2DF00
38E2EF10
38E10E10
74B40B40
ENDCHAR
STARTCHAR uni04400437
ENCODING -1
SWIDTH 890 0
DWIDTH 11 0
BBX 12 10 -1 -3
BITMAP
090000
1EE1B4
2D7838
2C7438
38B0B4
39E2D2
7F80F9
B002F0
B009E0
E00680
ENDCHAR
STARTCHAR uni04410437
ENCODING -1
SWIDTH 876 0
DWIDTH 11 0
BBX 11 9 0 -3
BITMAP
1F4B80
7551E0
F011E0
E042C0
E04F48
B90390
000B80
002780
001E00
ENDCHAR
STARTCHAR uni04410445
ENCODING -1
SWIDTH 755 0
DWIDTH 9 0
BBX 11 6 -1 0
BITMAP
0BDE60
1D9E20
3C0B80
780B40
381B94
2E92D0
ENDCHAR
STARTCHAR uni04410447
ENCODING -1
SWIDTH 889 0
DWIDTH 11 0
BBX 11 6 0 0
BITMAP
1F6CB0
7678E0
F039E0
E06ED0
E141D4
B901E0
ENDCHAR
STARTCHAR uni0441044A
ENCODING -1
SWIDTH 841 0
DWIDTH 10 0
BBX 10 6 0 0
BITMAP
1F6B00
767600
F01ED0
E03CB0
E078E0
B92E80
ENDCHAR
STARTCHAR uni04420447
ENCODING -1
SWIDTH 1257 0
DWIDTH 15 0
BBX 17 6 -1 0
BITMAP
1EEB875D00
2DB6C76D00
2CB2CB7C00
38E38BBC40
39E3943940
75D2D02D00
ENDCHAR
STARTCHAR uni04430447
ENCODING -1
SWIDTH 989 0
DWIDTH 12 0
BBX 12 9 0 -3
BITMAP
75D76D
B6DB2C
B2CF78
E38BB8
EB907A
BB903D
2F0000
5E0000
7D0000
ENDCHAR
STARTCHAR uni04430458
ENCODING -1
SWIDTH 725 0
DWIDTH 9 0
BBX 9 11 0 -3
BITMAP
000340
000240
75D740
B6DB00
B2CF00
E38E00
E79D80
BB6E40
1F7C00
5F3800
6EA000
ENDCHAR
STARTCHAR uni045E0447
ENCODING -1
SWIDTH 989 0
DWIDTH 12 0
BBX 12 12 0 -3
BITMAP
041000
1C5000
0A4000
75D76D
B6DB2C
B2CF78
E38BB8
EB907A
BB903D
2F0000
5E0000
7D0000
ENDCHAR
STARTCHAR uni045E0458
ENCODING -1
SWIDTH 725 0
DWIDTH 9 0
BBX 9 11 0 -3
BITMAP
1C5380
0A4240
75D740
B6DB00
B2CF00
E38E00
E79D80
BB6E40
1B2C00
5F7800
7EE000
ENDCHAR
STARTCHAR uni04440437
ENCODING -1
SWIDTH 1148 0
DWIDTH 14 0
BBX 14 12 0 -3
BITMAP
00100000
00B00000
00E00000
1EEB1B40
75D793C0
F1C74380
E2C70740
E38A2D10
BBF80B50
07402F00
0B005E00
0A006D00
ENDCHAR
STARTCHAR uni04450447
ENCODING -1
SWIDTH 1027 0
DWIDTH 12 0
BBX 13 6 0 0
BITMAP
1E638E00
57675D00
47876D00
4B47BC40
17843C40
61D02D00
ENDCHAR
STARTCHAR uni0445044A
ENCODING -1
SWIDTH 1006 0
DWIDTH 12 0
BBX 12 6 0 0
BITMAP
1E62A0
1B2690
4792E9
47438E
1B8B5D
62E7E4
ENDCHAR
STARTCHAR uni04470447
ENCODING -1
SWIDTH 1010 0
DWIDTH 12 0
BBX 13 6 0 0
BITMAP
75D75D00
B6D75D00
B7CB7C00
7B8BB840
03943940
02D02D00
ENDCHAR
STARTCHAR uni04480447
ENCODING -1
SWIDTH 1257 0
DWIDTH 15 0
BBX 16 6 0 0
BITMAP
75D75D74
B6DB1DB4
B2CB2DF0
E38E2EE1
E7AE40E5
B6DB40B4
ENDCHAR
STARTCHAR uni045F0447
ENCODING -1
SWIDTH 1010 0
DWIDTH 12 0
BBX 13 9 0 -3
BITMAP
75D75D00
B6D75D00
B2CB7C00
E38BB840
E7943940
B6D02D00
08000000
0D000000
09000000
ENDCHAR
STARTCHAR uni044B0447
ENCODING -1
SWIDTH 1157 0
DWIDTH 14 0
BBX 14 6 0 0
BITMAP
741D75D0
B07CB2C0
B768F380
E278FB80
E77A07A0
BD3D03D0
ENDCHAR
STARTCHAR uni04550437
ENCODING -1
SWIDTH 840 0
DWIDTH 10 0
BBX 12 9 -1 -3
BITMAP
0782E0
0B84B0
1790B0
2390E0
63C785
2E41E4
0006D0
000AC0
000B40
ENDCHAR
STARTCHAR uni04550445
ENCODING -1
SWIDTH 727 0
DWIDTH 9 0
BBX 10 7 -1 0
BITMAP
014090
079D50
0B9E80
178F40
238F00
53EB60
2E0790
ENDCHAR
STARTCHAR uni04550447
ENCODING -1
SWIDTH 909 0
DWIDTH 11 0
BBX 12 7 -1 0
BITMAP
010000
07875D
0B8B2C
178F78
239BB8
53D079
2E003D
ENDCHAR
STARTCHAR uni04540437
ENCODING -1
SWIDTH 876 0
DWIDTH 11 0
BBX 11 9 0 -3
BITMAP
1F4B80
7511E0
F911E0
E042C0
E04F48
B90390
000B80
002780
001E00
ENDCHAR
STARTCHAR uni04540445
ENCODING -1
SWIDTH 755 0
DWIDTH 9 0
BBX 11 6 -1 0
BITMAP
0BDE60
1D4F60
3E4B80
780B40
381B94
2E92D0
ENDCHAR
STARTCHAR uni04540447
ENCODING -1
SWIDTH 889 0
DWIDTH 11 0
BBX 11 6 0 0
BITMAP
1F6CB0
7578E0
F939E0
E06ED0
E141D4
B901E0
ENDCHAR
STARTCHAR uni044D0437
ENCODING -1
SWIDTH 837 0
DWIDTH 10 0
BBX 12 9 -1 -3
BITMAP
0BD6E0
10F4B0
06E0B0
01D1E0
628785
6A01E4
0006D0
001AC0
000B40
ENDCHAR
STARTCHAR uni04560447
ENCODING -1
SWIDTH 763 0
DWIDTH 9 0
BBX 10 9 0 0
BITMAP
280000
280000
000000
75E780
B5D740
B2DF00
E2EF10
E50E50
B40B40
ENDCHAR
STARTCHAR uni04570447
ENCODING -1
SWIDTH 763 0
DWIDTH 9 0
BBX 10 8 0 0
BITMAP
960000
000000
75E780
B5D740
B2DF00
E2EF10
E50E50
B40B40
ENDCHAR
STARTCHAR uni04570457
ENCODING -1
SWIDTH 543 0
DWIDTH 7 0
BBX 7 8 0 0
BITMAP
99D8
0000
74E0
B5D0
B2D0
E2C0
E7D8
BAE0
ENDCHAR
STARTCHAR uni04580447
ENCODING -1
SWIDTH 743 0
DWIDTH 9 0
BBX 12 11 -3 -3
BITMAP
00A000
00A000
01D75D
01DB2C
02CF78
038BB8
03907A
07903D
1F0000
5B0000
6D0000
ENDCHAR
STARTCHAR uni04580458
ENCODING -1
SWIDTH 480 0
DWIDTH 6 0
BBX 9 11 -3 -3
BITMAP
00A380
00A240
01D740
01DB00
02CF00
038E00
039D80
07AE40
1B6C00
5F7800
7EF400
ENDCHAR
STARTCHAR uni045B0447
ENCODING -1
SWIDTH 990 0
DWIDTH 12 0
BBX 13 12 -1 -3
BITMAP
06000000
0E000000
2F800000
1D02DB00
2EA2CB00
2CB3DE00
38E6ED00
38E41E80
75E40F40
07C00000
16800000
1B400000
ENDCHAR
STARTCHAR uni045B0458
ENCODING -1
SWIDTH 722 0
DWIDTH 9 0
BBX 10 11 -1 -3
BITMAP
0A00D0
2F8000
1D01D0
2EA2C0
2CB380
38E380
38E760
75DB90
06CB00
17DE00
1FB800
ENDCHAR
STARTCHAR uni044E0433
ENCODING -1
SWIDTH 1050 0
DWIDTH 13 0
BBX 14 6 -1 0
BITMAP
1D2E5B80
2DB692C0
2EE24780
39E26E00
39D63810
74B82E40
ENDCHAR
STARTCHAR uni044E0453
ENCODING -1
SWIDTH 1050 0
DWIDTH 13 0
BBX 14 9 -1 0
BITMAP
00000090
00000180
00000000
1D2E5B80
2DB692C0
2EE24780
39E26E00
39D63810
74B82E40
ENDCHAR
STARTCHAR uni044E0436
ENCODING -1
SWIDTH 1507 0
DWIDTH 18 0
BBX 20 6 -1 0
BITMAP
1D2E1B5D7C
2DB6D3ADD4
2EE283FFC0
39E2437AC0
39D69776C5
74B86975E4
ENDCHAR
STARTCHAR uni044E0437
ENCODING -1
SWIDTH 1073 0
DWIDTH 13 0
BBX 14 9 -1 -3
BITMAP
1D2E5B40
2DB693C0
2EE243C0
39E24740
39D62E10
74B80B50
00001F00
00005B00
00006D00
ENDCHAR
STARTCHAR uni044E043B
ENCODING -1
SWIDTH 1228 0
DWIDTH 15 0
BBX 16 6 -1 0
BITMAP
1D2E00BC
2DB6416C
2EE24238
39E25274
39D27675
74BA6839
ENDCHAR
STARTCHAR uni044E043C
ENCODING -1
SWIDTH 1443 0
DWIDTH 17 0
BBX 19 6 -1 0
BITMAP
1D2E01E1E0
2DB642E2D0
2EE242E7D0
39E242EAC0
39D375FAC4
74BA68F1E0
ENDCHAR
STARTCHAR uni044E0445
ENCODING -1
SWIDTH 1088 0
DWIDTH 13 0
BBX 15 6 -1 0
BITMAP
1D2E0E60
2DB6AF60
2EE28B80
39E25F40
39D62754
74B862D0
ENDCHAR
STARTCHAR uni044E0459
ENCODING -1
SWIDTH 1415 0
DWIDTH 17 0
BBX 18 6 -1 0
BITMAP
1D2E00BC00
2DB6416D40
2EE2423AD0
39E25274D0
39D27675C0
74BA682E40
ENDCHAR
STARTCHAR uni044E044D
ENCODING -1
SWIDTH 1103 0
DWIDTH 13 0
BBX 14 6 -1 0
BITMAP
1D2E0AD0
2DB6A0E0
2EE246E0
39E241D0
39D662C0
74B82A00
ENDCHAR
STARTCHAR uni044F0447
ENCODING -1
SWIDTH 1030 0
DWIDTH 12 0
BBX 14 6 -1 0
BITMAP
06B8E380
0D35E780
0D75DB40
0BF2FF00
66B10B10
78B80B80
ENDCHAR
STARTCHAR uni04300445.liga
ENCODING -1
SWIDTH 884 0
DWIDTH 11 0
BBX 11 6 0 0
BITMAP
1EE764
75D394
F1D3A0
E2C2C0
E7DAD0
B9E4E0
ENDCHAR
STARTCHAR uni04300447.liga
ENCODING -1
SWIDTH 947 0
DWIDTH 11 0
BBX 12 6 0 0
BITMAP
1EE75D
75DB2C
F1DB7C
E2CBB8
E3C074
BAD038
ENDCHAR
STARTCHAR uni04310451.liga
ENCODING -1
SWIDTH 746 0
DWIDTH 9 0
BBX 10 9 0 0
BITMAP
0FF400
0FE620
060000
1B47D0
759E60
F1AD90
E27E40
E73C40
B91F40
ENDCHAR
STARTCHAR uni04310436.liga
ENCODING -1
SWIDTH 1258 0
DWIDTH 15 0
BBX 16 9 0 0
BITMAP
0BF80000
0FF00000
06000000
1B5B5D7D
75D3ADD4
F1C3FFC0
E2437AC0
E36776C0
B92974E4
ENDCHAR
STARTCHAR uni04310439.liga
ENCODING -1
SWIDTH 901 0
DWIDTH 11 0
BBX 11 9 0 0
BITMAP
0BF604
0FE754
060290
1B4E38
759D74
F1ADB4
E26CB0
E33CE0
B92EB4
ENDCHAR
STARTCHAR uni0431045E.liga
ENCODING -1
SWIDTH 890 0
DWIDTH 11 0
BBX 11 12 0 -3
BITMAP
0BF604
0FE754
060290
1B4E78
759D74
F1ADB0
E26CB0
E73DE0
B92EE0
000AD0
0016C0
000B40
ENDCHAR
STARTCHAR uni04310456.liga
ENCODING -1
SWIDTH 639 0
DWIDTH 8 0
BBX 8 9 0 0
BITMAP
0BFA
0FDB
0600
1B4E
759D
F1AD
E26C
E33C
B92D
ENDCHAR
STARTCHAR uni04310457.liga
ENCODING -1
SWIDTH 638 0
DWIDTH 8 0
BBX 9 9 0 0
BITMAP
0FE000
0F9980
060000
1B4E00
759D00
F1AD00
E26C00
E33800
B92D00
ENDCHAR
STARTCHAR uni04310458.liga
ENCODING -1
SWIDTH 638 0
DWIDTH 8 0
BBX 8 12 0 -3
BITMAP
0020
0FEA
079A
1A0E
755D
F1AD
E2AC
E338
B978
02B4
05B0
02D0
ENDCHAR
STARTCHAR uni04320436.liga
ENCODING -1
SWIDTH 1275 0
DWIDTH 15 0
BBX 16 9 0 0
BITMAP
0B400000
1C800000
38800000
759B4E6D
B252DDE5
E682FED0
E182ADC0
E26739C0
792934A8
ENDCHAR
STARTCHAR uni04320437.liga
ENCODING -1
SWIDTH 752 0
DWIDTH 9 0
BBX 9 12 0 -3
BITMAP
0B4000
1C8000
388000
759B40
B253C0
E783C0
E18740
E26E00
790B00
002B40
005B00
006D00
ENDCHAR
STARTCHAR uni04320445.liga
ENCODING -1
SWIDTH 842 0
DWIDTH 10 0
BBX 10 9 0 0
BITMAP
0B4000
1C8000
388000
759E60
B26B20
E78790
E18740
E25B80
7962D0
ENDCHAR
STARTCHAR uni04330437.liga
ENCODING -1
SWIDTH 768 0
DWIDTH 9 0
BBX 10 9 -1 -3
BITMAP
0B82E0
22C4B0
0B90B0
2E10E0
784780
2E01D0
000AD0
0016C0
000B40
ENDCHAR
STARTCHAR uni04330445.liga
ENCODING -1
SWIDTH 725 0
DWIDTH 9 0
BBX 10 7 -1 0
BITMAP
000050
0B9D20
22DE90
0B8F40
2E0F00
782B40
2E4380
ENDCHAR
STARTCHAR uni04330447.liga
ENCODING -1
SWIDTH 834 0
DWIDTH 10 0
BBX 11 6 -1 0
BITMAP
0B8B3C
22CE38
0B9EB4
2E1BB4
7840B0
2E4078
ENDCHAR
STARTCHAR uni04530437.liga
ENCODING -1
SWIDTH 768 0
DWIDTH 9 0
BBX 10 12 -1 -3
BITMAP
00A000
00C000
004000
0B82E0
22C4B0
0B90B0
2E10E0
784780
2E01D0
000AD0
0016C0
000B40
ENDCHAR
STARTCHAR uni04530445.liga
ENCODING -1
SWIDTH 725 0
DWIDTH 9 0
BBX 10 9 -1 0
BITMAP
009000
018000
000050
0B9D20
22DE90
0B8F40
2E0F00
782B40
2E4380
ENDCHAR
STARTCHAR uni04530447.liga
ENCODING -1
SWIDTH 834 0
DWIDTH 10 0
BBX 11 9 -1 0
BITMAP
00A000
00C000
004000
0B8B3C
22CE38
0B9EB4
2E1BB4
7840B0
2E4078
ENDCHAR
STARTCHAR uni04340447.liga
ENCODING -1
SWIDTH 965 0
DWIDTH 12 0
BBX 12 9 0 -3
BITMAP
1EE75D
75D75D
F1DB7C
E2CBBC
E39438
BB902D
1B4000
2B0000
2D0000
ENDCHAR
STARTCHAR uni04340458.liga
ENCODING -1
SWIDTH 715 0
DWIDTH 9 0
BBX 9 11 0 -3
BITMAP
000280
000280
1EE780
75D740
F1DB00
E2CF00
E38E00
BB9D00
176D00
2B6C00
3EF400
ENDCHAR
STARTCHAR uni04350437.liga
ENCODING -1
SWIDTH 804 0
DWIDTH 10 0
BBX 10 9 0 -3
BITMAP
1F4B80
7651E0
F711E0
F942C0
E04F40
B90380
001B80
002380
001E00
ENDCHAR
STARTCHAR uni04350445.liga
ENCODING -1
SWIDTH 747 0
DWIDTH 9 0
BBX 9 6 0 0
BITMAP
1F7980
766C80
F72E40
F91D00
E06D00
BA4B40
ENDCHAR
STARTCHAR uni04350447.liga
ENCODING -1
SWIDTH 844 0
DWIDTH 10 0
BBX 10 6 0 0
BITMAP
1F6CB0
767CE0
F779E0
F9BFD0
E141D0
B901E0
ENDCHAR
STARTCHAR uni04510437.liga
ENCODING -1
SWIDTH 804 0
DWIDTH 10 0
BBX 10 11 0 -3
BITMAP
19C000
000000
1F4B80
7651E0
F711E0
F942C0
E04F40
B90380
001B80
002380
001E00
ENDCHAR
STARTCHAR uni04510445.liga
ENCODING -1
SWIDTH 747 0
DWIDTH 9 0
BBX 9 8 0 0
BITMAP
19C000
000000
1F7980
766C80
F72E40
F91D00
E06D00
BA4B40
ENDCHAR
STARTCHAR uni04510447.liga
ENCODING -1
SWIDTH 844 0
DWIDTH 10 0
BBX 10 8 0 0
BITMAP
19C000
000000
1F6CB0
767CE0
F779E0
F9BFD0
E141D0
B901E0
ENDCHAR
STARTCHAR uni04360447.liga
ENCODING -1
SWIDTH 1341 0
DWIDTH 16 0
BBX 17 6 -1 0
BITMAP
1B5D7DB2C0
129DE4E380
02FEC1EB80
137AC1BB40
6739C50B40
6974A40780
ENDCHAR
STARTCHAR uni04370437.liga
ENCODING -1
SWIDTH 849 0
DWIDTH 10 0
BBX 10 9 0 -3
BITMAP
1B46E0
52C4B0
82D0B0
4751E0
1E1780
0B42D0
1B46D0
6B16C0
2D0B40
ENDCHAR
STARTCHAR uni04380447.liga
ENCODING -1
SWIDTH 964 0
DWIDTH 12 0
BBX 12 6 0 0
BITMAP
75D75D
B6D75D
B2CB7C
E38BB8
E79438
B6D02D
ENDCHAR
STARTCHAR uni04390447.liga
ENCODING -1
SWIDTH 964 0
DWIDTH 12 0
BBX 12 9 0 0
BITMAP
041000
1C5000
0A4000
75D75D
B6D75D
B2CB7C
E38BB8
E79438
B6D02D
ENDCHAR
STARTCHAR uni043A0447.liga
ENCODING -1
SWIDTH 978 0
DWIDTH 12 0
BBX 13 6 -1 0
BITMAP
1D68E380
1D41D740
2FD1DB40
3CE2EF00
38E50F00
74B80B40
ENDCHAR
STARTCHAR uni045C0447.liga
ENCODING -1
SWIDTH 978 0
DWIDTH 12 0
BBX 13 9 -1 0
BITMAP
00600000
00900000
00400000
1D68E380
1D41D740
2FD1DB40
3CE2EF00
38E50F00
74B80B40
ENDCHAR
STARTCHAR uni043B0447.liga
ENCODING -1
SWIDTH 1015 0
DWIDTH 12 0
BBX 13 6 -1 0
BITMAP
00BCB2C0
0168B3C0
0238E780
1275BB40
75750740
28780780
ENDCHAR
STARTCHAR uni043C0447.liga
ENCODING -1
SWIDTH 1231 0
DWIDTH 15 0
BBX 16 6 -1 0
BITMAP
01D1E38E
02E2D75D
02E7D76D
12EACBBC
65FBD43C
28F2E02D
ENDCHAR
STARTCHAR uni043D0447.liga
ENCODING -1
SWIDTH 965 0
DWIDTH 12 0
BBX 13 6 -1 0
BITMAP
1D75D740
2D75D740
2EF2DF00
38E2EF00
38E50E00
74B40B40
ENDCHAR
STARTCHAR uni043E0436.liga
ENCODING -1
SWIDTH 1268 0
DWIDTH 15 0
BBX 16 6 0 0
BITMAP
1E5B4D6D
76D29DE5
F182FED0
E24379C0
E36739C0
B96974A8
ENDCHAR
STARTCHAR uni043E0437.liga
ENCODING -1
SWIDTH 765 0
DWIDTH 9 0
BBX 9 9 0 -3
BITMAP
1E5B80
7692C0
F182C0
E24780
E21E00
B90B40
002B40
005B00
002D00
ENDCHAR
STARTCHAR uni043E043B.liga
ENCODING -1
SWIDTH 945 0
DWIDTH 11 0
BBX 12 6 0 0
BITMAP
1E40BD
7581AC
F1827C
E24238
E37674
BA6938
ENDCHAR
STARTCHAR uni043E043C.liga
ENCODING -1
SWIDTH 1161 0
DWIDTH 14 0
BBX 14 6 0 0
BITMAP
1E40E0F0
7581E2E0
F182E3D0
E242E6D0
E362BAC0
BA68B5D0
ENDCHAR
STARTCHAR uni043E0445.liga
ENCODING -1
SWIDTH 835 0
DWIDTH 10 0
BBX 10 6 0 0
BITMAP
1E4E60
759F20
F28B90
E24B40
E32780
B922D0
ENDCHAR
STARTCHAR uni043F0447.liga
ENCODING -1
SWIDTH 965 0
DWIDTH 12 0
BBX 13 6 -1 0
BITMAP
1EE1D740
2DB1DB40
2CB2DF00
38E2EF00
38E10E00
74B40B40
ENDCHAR
STARTCHAR uni04400437.liga
ENCODING -1
SWIDTH 818 0
DWIDTH 10 0
BBX 11 10 -1 -3
BITMAP
090000
1EE1B4
2D7838
2C7438
38B0B4
39E2D0
7F80E0
B006F0
B008E0
E00680
ENDCHAR
STARTCHAR uni04410437.liga
ENCODING -1
SWIDTH 804 0
DWIDTH 10 0
BBX 10 9 0 -3
BITMAP
1F4B80
7551E0
F011E0
E042C0
E04F40
B90380
001B80
002380
001E00
ENDCHAR
STARTCHAR uni04410445.liga
ENCODING -1
SWIDTH 740 0
DWIDTH 9 0
BBX 10 6 -1 0
BITMAP
0B9E60
1D9E20
3C0B80
780B40
381B40
2E92D0
ENDCHAR
STARTCHAR uni04410447.liga
ENCODING -1
SWIDTH 843 0
DWIDTH 10 0
BBX 10 6 0 0
BITMAP
1F6CB0
7678E0
F039E0
E06ED0
E141D0
B901E0
ENDCHAR
STARTCHAR uni04420447.liga
ENCODING -1
SWIDTH 1211 0
DWIDTH 15 0
BBX 16 6 -1 0
BITMAP
1EEB875D
2DB6C76D
2CB2CB7C
38E38BB8
39E39038
75D2D02D
ENDCHAR
STARTCHAR uni04430447.liga
ENCODING -1
SWIDTH 943 0
DWIDTH 11 0
BBX 12 9 0 -3
BITMAP
75D76D
B6DB2C
B2CF78
E38BB8
EB9078
BB9038
2F0000
5E0000
7D0000
ENDCHAR
STARTCHAR uni04430458.liga
ENCODING -1
SWIDTH 694 0
DWIDTH 8 0
BBX 9 11 0 -3
BITMAP
000340
000240
75D740
B6DB00
B2CF00
E38E00
E79D00
BB6D00
1F7C00
5F3800
6EA000
ENDCHAR
STARTCHAR uni045E0447.liga
ENCODING -1
SWIDTH 943 0
DWIDTH 11 0
BBX 12 12 0 -3
BITMAP
041000
1C5000
0A4000
75D76D
B6DB2C
B2CF78
E38BB8
EB9078
BB9038
2F0000
5E0000
7D0000
ENDCHAR
STARTCHAR uni045E0458.liga
ENCODING -1
SWIDTH 694 0
DWIDTH 8 0
BBX 9 11 0 -3
BITMAP
1C5380
0A4240
75D740
B6DB00
B2CF00
E38E00
E79D00
BB6D00
1B2C00
5F7800
7EE000
ENDCHAR
STARTCHAR uni04440437.liga
ENCODING -1
SWIDTH 1076 0
DWIDTH 13 0
BBX 13 12 0 -3
BITMAP
00100000
00B00000
00E00000
1EEB1B40
75D793C0
F1C74380
E2C70740
E38A2D00
BBF80B00
07402B00
0B008F00
0A006D00
ENDCHAR
STARTCHAR uni04450447.liga
ENCODING -1
SWIDTH 981 0
DWIDTH 12 0
BBX 12 6 0 0
BITMAP
1E638E
57675D
47876D
4B47BC
17843C
61D02D
ENDCHAR
STARTCHAR uni04470447.liga
ENCODING -1
SWIDTH 964 0
DWIDTH 12 0
BBX 12 6 0 0
BITMAP
75D75D
B6D75D
B7CB7C
7B8BB8
039438
02D02D
ENDCHAR
STARTCHAR uni04480447.liga
ENCODING -1
SWIDTH 1211 0
DWIDTH 15 0
BBX 15 6 0 0
BITMAP
75D75D74
B6DB1DB4
B2CB2DF0
E38E2EE0
E7AE40E0
B6DB40B4
ENDCHAR
STARTCHAR uni045F0447.liga
ENCODING -1
SWIDTH 964 0
DWIDTH 12 0
BBX 12 9 0 -3
BITMAP
75D75D
B6D75D
B2CB7C
E38BB8
E79438
B6D02D
080000
0D0000
090000
ENDCHAR
STARTCHAR uni044B0447.liga
ENCODING -1
SWIDTH 1112 0
DWIDTH 13 0
BBX 14 6 0 0
BITMAP
741D75D0
B07CB2C0
B768F380
E278FB80
E77A0780
BD3D03C0
ENDCHAR
STARTCHAR uni04550437.liga
ENCODING -1
SWIDTH 768 0
DWIDTH 9 0
BBX 10 9 -1 -3
BITMAP
0782E0
0B84B0
1790B0
2390E0
63C780
2E41D0
000AD0
0016C0
000B40
ENDCHAR
STARTCHAR uni04550445.liga
ENCODING -1
SWIDTH 712 0
DWIDTH 9 0
BBX 10 7 -1 0
BITMAP
014090
0B9D50
0B9E80
178F40
238F00
63EB00
2E4780
ENDCHAR
STARTCHAR uni04550447.liga
ENCODING -1
SWIDTH 864 0
DWIDTH 10 0
BBX 12 7 -1 0
BITMAP
010000
07875D
0B8B2C
178F7C
239BB8
53D078
2E003C
ENDCHAR
STARTCHAR uni04540437.liga
ENCODING -1
SWIDTH 804 0
DWIDTH 10 0
BBX 10 9 0 -3
BITMAP
1F4B80
7511E0
F911E0
E042C0
E04F40
B90380
001B80
002380
001E00
ENDCHAR
STARTCHAR uni04540445.liga
ENCODING -1
SWIDTH 740 0
DWIDTH 9 0
BBX 10 6 -1 0
BITMAP
0BDE60
1D4F60
3E4B80
780B40
381B40
2E92D0
ENDCHAR
STARTCHAR uni04540447.liga
ENCODING -1
SWIDTH 844 0
DWIDTH 10 0
BBX 10 6 0 0
BITMAP
1F6CB0
7578E0
F939E0
E06ED0
E141D0
B901E0
ENDCHAR
STARTCHAR uni044D0437.liga
ENCODING -1
SWIDTH 765 0
DWIDTH 9 0
BBX 10 9 -1 -3
BITMAP
0BD6E0
10F4B0
06E0B0
01D1E0
628780
6A02D0
000AD0
0016C0
000B40
ENDCHAR
STARTCHAR uni04560447.liga
ENCODING -1
SWIDTH 717 0
DWIDTH 9 0
BBX 9 9 0 0
BITMAP
280000
280000
000000
75E780
B5D740
B2DF00
E2EF00
E50E00
B40B40
ENDCHAR
STARTCHAR uni04570447.liga
ENCODING -1
SWIDTH 718 0
DWIDTH 9 0
BBX 9 8 0 0
BITMAP
960000
000000
75E780
B5D740
B2DF00
E2EF00
E50E00
B40B40
ENDCHAR
STARTCHAR uni04570457.liga
ENCODING -1
SWIDTH 476 0
DWIDTH 6 0
BBX 7 8 0 0
BITMAP
99D8
0000
74E0
B5D0
B2D0
E2C0
E7C0
BAD0
ENDCHAR
STARTCHAR uni04580447.liga
ENCODING -1
SWIDTH 697 0
DWIDTH 8 0
BBX 12 11 -3 -3
BITMAP
00A000
00A000
01D75D
01DB2C
02CF78
038BB8
039078
07903C
1F0000
5B0000
6D0000
ENDCHAR
STARTCHAR uni04580458.liga
ENCODING -1
SWIDTH 449 0
DWIDTH 5 0
BBX 9 11 -3 -3
BITMAP
00A380
00A240
01D740
01DB00
02CF00
038E00
039D00
07AD00
1B6C00
5F7800
7EF400
ENDCHAR
STARTCHAR uni045B0447.liga
ENCODING -1
SWIDTH 937 0
DWIDTH 11 0
BBX 12 12 -1 -3
BITMAP
060000
0E0000
2F8000
1D02DB
2EA2CB
2CB3DE
38E6ED
38E41E
75E40E
07C000
168000
1B4000
ENDCHAR
STARTCHAR uni045B0458.liga
ENCODING -1
SWIDTH 691 0
DWIDTH 8 0
BBX 10 11 -1 -3
BITMAP
0A00D0
2F8000
1D01D0
2EA2C0
2CB380
38E380
38E740
75DB40
06CB00
17DE00
1FB800
ENDCHAR
STARTCHAR uni044E0436.liga
ENCODING -1
SWIDTH 1503 0
DWIDTH 18 0
BBX 19 6 -1 0
BITMAP
1D2E1B5D7C
2DB6D3ADD4
2EE283FFC0
39E2437AC0
39D69776C0
74B86975E4
ENDCHAR
STARTCHAR uni044E0437.liga
ENCODING -1
SWIDTH 1001 0
DWIDTH 12 0
BBX 13 9 -1 -3
BITMAP
1D2E5B40
2DB693C0
2EE243C0
39E24740
39D62E00
74B80B00
00002B00
00005B00
00006D00
ENDCHAR
STARTCHAR uni044E043B.liga
ENCODING -1
SWIDTH 1181 0
DWIDTH 14 0
BBX 15 6 -1 0
BITMAP
1D2E00BC
2DB6416C
2EE24238
39E25274
39D27674
74BA6838
ENDCHAR
STARTCHAR uni044E043C.liga
ENCODING -1
SWIDTH 1396 0
DWIDTH 17 0
BBX 18 6 -1 0
BITMAP
1D2E01E1E0
2DB642E2D0
2EE242E7D0
39E242EAC0
39D375FAC0
74BA68F1D0
ENDCHAR
STARTCHAR uni044E0445.liga
ENCODING -1
SWIDTH 1072 0
DWIDTH 13 0
BBX 14 6 -1 0
BITMAP
1D2E0E60
2DB6AF60
2EE28B80
39E25F40
39D62740
74B862D0
ENDCHAR
STARTCHAR uni044F0447.liga
ENCODING -1
SWIDTH 984 0
DWIDTH 12 0
BBX 13 6 -1 0
BITMAP
06B8E380
0D35E780
0D75DB40
0BF2FF00
66B10B00
78B80B40
ENDCHAR
STARTCHAR brevecombcy
ENCODING -1
SWIDTH 0 0
DWIDTH 0 0
BBX 5 2 -4 6
BITMAP
7140
2900
ENDCHAR
STARTCHAR brevecombcy.case
ENCODING -1
SWIDTH 0 0
DWIDTH 0 0
BBX 4 2 -3 9
BITMAP
A2
68
ENDCHAR
ENDFONT
